<?xml version="1.0" encoding="utf-8" standalone="no"?>
<!DOCTYPE svg PUBLIC "-//W3C//DTD SVG 1.1//EN"
  "http://www.w3.org/Graphics/SVG/1.1/DTD/svg11.dtd">
<svg xmlns:xlink="http://www.w3.org/1999/xlink" width="680.51375pt" height="422.435662pt" viewBox="0 0 680.51375 422.435662" xmlns="http://www.w3.org/2000/svg" version="1.1">
 <metadata>
  <rdf:RDF xmlns:dc="http://purl.org/dc/elements/1.1/" xmlns:cc="http://creativecommons.org/ns#" xmlns:rdf="http://www.w3.org/1999/02/22-rdf-syntax-ns#">
   <cc:Work>
    <dc:type rdf:resource="http://purl.org/dc/dcmitype/StillImage"/>
    <dc:date>2025-04-04T12:14:00.431059</dc:date>
    <dc:format>image/svg+xml</dc:format>
    <dc:creator>
     <cc:Agent>
      <dc:title>Matplotlib v3.10.1, https://matplotlib.org/</dc:title>
     </cc:Agent>
    </dc:creator>
   </cc:Work>
  </rdf:RDF>
 </metadata>
 <defs>
  <style type="text/css">*{stroke-linejoin: round; stroke-linecap: butt}</style>
 </defs>
 <g id="figure_1">
  <g id="patch_1">
   <path d="M -0 422.435662 
L 680.51375 422.435662 
L 680.51375 0 
L -0 0 
z
" style="fill: #ffffff"/>
  </g>
  <g id="axes_1">
   <g id="patch_2">
    <path d="M 42.53875 344.221812 
L 673.31375 344.221812 
L 673.31375 23.837812 
L 42.53875 23.837812 
z
" style="fill: #ffffff"/>
   </g>
   <g id="matplotlib.axis_1">
    <g id="xtick_1">
     <g id="line2d_1">
      <path d="M 71.210341 344.221812 
L 71.210341 23.837812 
" clip-path="url(#pdded38d33c)" style="fill: none; stroke-dasharray: 2.96,1.28; stroke-dashoffset: 0; stroke: #b0b0b0; stroke-opacity: 0.7; stroke-width: 0.8"/>
     </g>
     <g id="line2d_2">
      <defs>
       <path id="m566b277617" d="M 0 0 
L 0 3.5 
" style="stroke: #000000; stroke-width: 0.8"/>
      </defs>
      <g>
       <use xlink:href="#m566b277617" x="71.210341" y="344.221812" style="stroke: #000000; stroke-width: 0.8"/>
      </g>
     </g>
     <g id="text_1">
      <!-- 10 -->
      <g transform="translate(64.847841 358.82025) scale(0.1 -0.1)">
       <defs>
        <path id="DejaVuSans-31" d="M 794 531 
L 1825 531 
L 1825 4091 
L 703 3866 
L 703 4441 
L 1819 4666 
L 2450 4666 
L 2450 531 
L 3481 531 
L 3481 0 
L 794 0 
L 794 531 
z
" transform="scale(0.015625)"/>
        <path id="DejaVuSans-30" d="M 2034 4250 
Q 1547 4250 1301 3770 
Q 1056 3291 1056 2328 
Q 1056 1369 1301 889 
Q 1547 409 2034 409 
Q 2525 409 2770 889 
Q 3016 1369 3016 2328 
Q 3016 3291 2770 3770 
Q 2525 4250 2034 4250 
z
M 2034 4750 
Q 2819 4750 3233 4129 
Q 3647 3509 3647 2328 
Q 3647 1150 3233 529 
Q 2819 -91 2034 -91 
Q 1250 -91 836 529 
Q 422 1150 422 2328 
Q 422 3509 836 4129 
Q 1250 4750 2034 4750 
z
" transform="scale(0.015625)"/>
       </defs>
       <use xlink:href="#DejaVuSans-31"/>
       <use xlink:href="#DejaVuSans-30" transform="translate(63.623047 0)"/>
      </g>
     </g>
    </g>
    <g id="xtick_2">
     <g id="line2d_3">
      <path d="M 118.996326 344.221812 
L 118.996326 23.837812 
" clip-path="url(#pdded38d33c)" style="fill: none; stroke-dasharray: 2.96,1.28; stroke-dashoffset: 0; stroke: #b0b0b0; stroke-opacity: 0.7; stroke-width: 0.8"/>
     </g>
     <g id="line2d_4">
      <g>
       <use xlink:href="#m566b277617" x="118.996326" y="344.221812" style="stroke: #000000; stroke-width: 0.8"/>
      </g>
     </g>
     <g id="text_2">
      <!-- 20 -->
      <g transform="translate(112.633826 358.82025) scale(0.1 -0.1)">
       <defs>
        <path id="DejaVuSans-32" d="M 1228 531 
L 3431 531 
L 3431 0 
L 469 0 
L 469 531 
Q 828 903 1448 1529 
Q 2069 2156 2228 2338 
Q 2531 2678 2651 2914 
Q 2772 3150 2772 3378 
Q 2772 3750 2511 3984 
Q 2250 4219 1831 4219 
Q 1534 4219 1204 4116 
Q 875 4013 500 3803 
L 500 4441 
Q 881 4594 1212 4672 
Q 1544 4750 1819 4750 
Q 2544 4750 2975 4387 
Q 3406 4025 3406 3419 
Q 3406 3131 3298 2873 
Q 3191 2616 2906 2266 
Q 2828 2175 2409 1742 
Q 1991 1309 1228 531 
z
" transform="scale(0.015625)"/>
       </defs>
       <use xlink:href="#DejaVuSans-32"/>
       <use xlink:href="#DejaVuSans-30" transform="translate(63.623047 0)"/>
      </g>
     </g>
    </g>
    <g id="xtick_3">
     <g id="line2d_5">
      <path d="M 166.782311 344.221812 
L 166.782311 23.837812 
" clip-path="url(#pdded38d33c)" style="fill: none; stroke-dasharray: 2.96,1.28; stroke-dashoffset: 0; stroke: #b0b0b0; stroke-opacity: 0.7; stroke-width: 0.8"/>
     </g>
     <g id="line2d_6">
      <g>
       <use xlink:href="#m566b277617" x="166.782311" y="344.221812" style="stroke: #000000; stroke-width: 0.8"/>
      </g>
     </g>
     <g id="text_3">
      <!-- 50 -->
      <g transform="translate(160.419811 358.82025) scale(0.1 -0.1)">
       <defs>
        <path id="DejaVuSans-35" d="M 691 4666 
L 3169 4666 
L 3169 4134 
L 1269 4134 
L 1269 2991 
Q 1406 3038 1543 3061 
Q 1681 3084 1819 3084 
Q 2600 3084 3056 2656 
Q 3513 2228 3513 1497 
Q 3513 744 3044 326 
Q 2575 -91 1722 -91 
Q 1428 -91 1123 -41 
Q 819 9 494 109 
L 494 744 
Q 775 591 1075 516 
Q 1375 441 1709 441 
Q 2250 441 2565 725 
Q 2881 1009 2881 1497 
Q 2881 1984 2565 2268 
Q 2250 2553 1709 2553 
Q 1456 2553 1204 2497 
Q 953 2441 691 2322 
L 691 4666 
z
" transform="scale(0.015625)"/>
       </defs>
       <use xlink:href="#DejaVuSans-35"/>
       <use xlink:href="#DejaVuSans-30" transform="translate(63.623047 0)"/>
      </g>
     </g>
    </g>
    <g id="xtick_4">
     <g id="line2d_7">
      <path d="M 214.568295 344.221812 
L 214.568295 23.837812 
" clip-path="url(#pdded38d33c)" style="fill: none; stroke-dasharray: 2.96,1.28; stroke-dashoffset: 0; stroke: #b0b0b0; stroke-opacity: 0.7; stroke-width: 0.8"/>
     </g>
     <g id="line2d_8">
      <g>
       <use xlink:href="#m566b277617" x="214.568295" y="344.221812" style="stroke: #000000; stroke-width: 0.8"/>
      </g>
     </g>
     <g id="text_4">
      <!-- 100 -->
      <g transform="translate(205.024545 358.82025) scale(0.1 -0.1)">
       <use xlink:href="#DejaVuSans-31"/>
       <use xlink:href="#DejaVuSans-30" transform="translate(63.623047 0)"/>
       <use xlink:href="#DejaVuSans-30" transform="translate(127.246094 0)"/>
      </g>
     </g>
    </g>
    <g id="xtick_5">
     <g id="line2d_9">
      <path d="M 262.35428 344.221812 
L 262.35428 23.837812 
" clip-path="url(#pdded38d33c)" style="fill: none; stroke-dasharray: 2.96,1.28; stroke-dashoffset: 0; stroke: #b0b0b0; stroke-opacity: 0.7; stroke-width: 0.8"/>
     </g>
     <g id="line2d_10">
      <g>
       <use xlink:href="#m566b277617" x="262.35428" y="344.221812" style="stroke: #000000; stroke-width: 0.8"/>
      </g>
     </g>
     <g id="text_5">
      <!-- 200 -->
      <g transform="translate(252.81053 358.82025) scale(0.1 -0.1)">
       <use xlink:href="#DejaVuSans-32"/>
       <use xlink:href="#DejaVuSans-30" transform="translate(63.623047 0)"/>
       <use xlink:href="#DejaVuSans-30" transform="translate(127.246094 0)"/>
      </g>
     </g>
    </g>
    <g id="xtick_6">
     <g id="line2d_11">
      <path d="M 310.140265 344.221812 
L 310.140265 23.837812 
" clip-path="url(#pdded38d33c)" style="fill: none; stroke-dasharray: 2.96,1.28; stroke-dashoffset: 0; stroke: #b0b0b0; stroke-opacity: 0.7; stroke-width: 0.8"/>
     </g>
     <g id="line2d_12">
      <g>
       <use xlink:href="#m566b277617" x="310.140265" y="344.221812" style="stroke: #000000; stroke-width: 0.8"/>
      </g>
     </g>
     <g id="text_6">
      <!-- 300 -->
      <g transform="translate(300.596515 358.82025) scale(0.1 -0.1)">
       <defs>
        <path id="DejaVuSans-33" d="M 2597 2516 
Q 3050 2419 3304 2112 
Q 3559 1806 3559 1356 
Q 3559 666 3084 287 
Q 2609 -91 1734 -91 
Q 1441 -91 1130 -33 
Q 819 25 488 141 
L 488 750 
Q 750 597 1062 519 
Q 1375 441 1716 441 
Q 2309 441 2620 675 
Q 2931 909 2931 1356 
Q 2931 1769 2642 2001 
Q 2353 2234 1838 2234 
L 1294 2234 
L 1294 2753 
L 1863 2753 
Q 2328 2753 2575 2939 
Q 2822 3125 2822 3475 
Q 2822 3834 2567 4026 
Q 2313 4219 1838 4219 
Q 1578 4219 1281 4162 
Q 984 4106 628 3988 
L 628 4550 
Q 988 4650 1302 4700 
Q 1616 4750 1894 4750 
Q 2613 4750 3031 4423 
Q 3450 4097 3450 3541 
Q 3450 3153 3228 2886 
Q 3006 2619 2597 2516 
z
" transform="scale(0.015625)"/>
       </defs>
       <use xlink:href="#DejaVuSans-33"/>
       <use xlink:href="#DejaVuSans-30" transform="translate(63.623047 0)"/>
       <use xlink:href="#DejaVuSans-30" transform="translate(127.246094 0)"/>
      </g>
     </g>
    </g>
    <g id="xtick_7">
     <g id="line2d_13">
      <path d="M 357.92625 344.221812 
L 357.92625 23.837812 
" clip-path="url(#pdded38d33c)" style="fill: none; stroke-dasharray: 2.96,1.28; stroke-dashoffset: 0; stroke: #b0b0b0; stroke-opacity: 0.7; stroke-width: 0.8"/>
     </g>
     <g id="line2d_14">
      <g>
       <use xlink:href="#m566b277617" x="357.92625" y="344.221812" style="stroke: #000000; stroke-width: 0.8"/>
      </g>
     </g>
     <g id="text_7">
      <!-- 400 -->
      <g transform="translate(348.3825 358.82025) scale(0.1 -0.1)">
       <defs>
        <path id="DejaVuSans-34" d="M 2419 4116 
L 825 1625 
L 2419 1625 
L 2419 4116 
z
M 2253 4666 
L 3047 4666 
L 3047 1625 
L 3713 1625 
L 3713 1100 
L 3047 1100 
L 3047 0 
L 2419 0 
L 2419 1100 
L 313 1100 
L 313 1709 
L 2253 4666 
z
" transform="scale(0.015625)"/>
       </defs>
       <use xlink:href="#DejaVuSans-34"/>
       <use xlink:href="#DejaVuSans-30" transform="translate(63.623047 0)"/>
       <use xlink:href="#DejaVuSans-30" transform="translate(127.246094 0)"/>
      </g>
     </g>
    </g>
    <g id="xtick_8">
     <g id="line2d_15">
      <path d="M 405.712235 344.221812 
L 405.712235 23.837812 
" clip-path="url(#pdded38d33c)" style="fill: none; stroke-dasharray: 2.96,1.28; stroke-dashoffset: 0; stroke: #b0b0b0; stroke-opacity: 0.7; stroke-width: 0.8"/>
     </g>
     <g id="line2d_16">
      <g>
       <use xlink:href="#m566b277617" x="405.712235" y="344.221812" style="stroke: #000000; stroke-width: 0.8"/>
      </g>
     </g>
     <g id="text_8">
      <!-- 500 -->
      <g transform="translate(396.168485 358.82025) scale(0.1 -0.1)">
       <use xlink:href="#DejaVuSans-35"/>
       <use xlink:href="#DejaVuSans-30" transform="translate(63.623047 0)"/>
       <use xlink:href="#DejaVuSans-30" transform="translate(127.246094 0)"/>
      </g>
     </g>
    </g>
    <g id="xtick_9">
     <g id="line2d_17">
      <path d="M 453.49822 344.221812 
L 453.49822 23.837812 
" clip-path="url(#pdded38d33c)" style="fill: none; stroke-dasharray: 2.96,1.28; stroke-dashoffset: 0; stroke: #b0b0b0; stroke-opacity: 0.7; stroke-width: 0.8"/>
     </g>
     <g id="line2d_18">
      <g>
       <use xlink:href="#m566b277617" x="453.49822" y="344.221812" style="stroke: #000000; stroke-width: 0.8"/>
      </g>
     </g>
     <g id="text_9">
      <!-- 600 -->
      <g transform="translate(443.95447 358.82025) scale(0.1 -0.1)">
       <defs>
        <path id="DejaVuSans-36" d="M 2113 2584 
Q 1688 2584 1439 2293 
Q 1191 2003 1191 1497 
Q 1191 994 1439 701 
Q 1688 409 2113 409 
Q 2538 409 2786 701 
Q 3034 994 3034 1497 
Q 3034 2003 2786 2293 
Q 2538 2584 2113 2584 
z
M 3366 4563 
L 3366 3988 
Q 3128 4100 2886 4159 
Q 2644 4219 2406 4219 
Q 1781 4219 1451 3797 
Q 1122 3375 1075 2522 
Q 1259 2794 1537 2939 
Q 1816 3084 2150 3084 
Q 2853 3084 3261 2657 
Q 3669 2231 3669 1497 
Q 3669 778 3244 343 
Q 2819 -91 2113 -91 
Q 1303 -91 875 529 
Q 447 1150 447 2328 
Q 447 3434 972 4092 
Q 1497 4750 2381 4750 
Q 2619 4750 2861 4703 
Q 3103 4656 3366 4563 
z
" transform="scale(0.015625)"/>
       </defs>
       <use xlink:href="#DejaVuSans-36"/>
       <use xlink:href="#DejaVuSans-30" transform="translate(63.623047 0)"/>
       <use xlink:href="#DejaVuSans-30" transform="translate(127.246094 0)"/>
      </g>
     </g>
    </g>
    <g id="xtick_10">
     <g id="line2d_19">
      <path d="M 501.284205 344.221812 
L 501.284205 23.837812 
" clip-path="url(#pdded38d33c)" style="fill: none; stroke-dasharray: 2.96,1.28; stroke-dashoffset: 0; stroke: #b0b0b0; stroke-opacity: 0.7; stroke-width: 0.8"/>
     </g>
     <g id="line2d_20">
      <g>
       <use xlink:href="#m566b277617" x="501.284205" y="344.221812" style="stroke: #000000; stroke-width: 0.8"/>
      </g>
     </g>
     <g id="text_10">
      <!-- 700 -->
      <g transform="translate(491.740455 358.82025) scale(0.1 -0.1)">
       <defs>
        <path id="DejaVuSans-37" d="M 525 4666 
L 3525 4666 
L 3525 4397 
L 1831 0 
L 1172 0 
L 2766 4134 
L 525 4134 
L 525 4666 
z
" transform="scale(0.015625)"/>
       </defs>
       <use xlink:href="#DejaVuSans-37"/>
       <use xlink:href="#DejaVuSans-30" transform="translate(63.623047 0)"/>
       <use xlink:href="#DejaVuSans-30" transform="translate(127.246094 0)"/>
      </g>
     </g>
    </g>
    <g id="xtick_11">
     <g id="line2d_21">
      <path d="M 549.070189 344.221812 
L 549.070189 23.837812 
" clip-path="url(#pdded38d33c)" style="fill: none; stroke-dasharray: 2.96,1.28; stroke-dashoffset: 0; stroke: #b0b0b0; stroke-opacity: 0.7; stroke-width: 0.8"/>
     </g>
     <g id="line2d_22">
      <g>
       <use xlink:href="#m566b277617" x="549.070189" y="344.221812" style="stroke: #000000; stroke-width: 0.8"/>
      </g>
     </g>
     <g id="text_11">
      <!-- 800 -->
      <g transform="translate(539.526439 358.82025) scale(0.1 -0.1)">
       <defs>
        <path id="DejaVuSans-38" d="M 2034 2216 
Q 1584 2216 1326 1975 
Q 1069 1734 1069 1313 
Q 1069 891 1326 650 
Q 1584 409 2034 409 
Q 2484 409 2743 651 
Q 3003 894 3003 1313 
Q 3003 1734 2745 1975 
Q 2488 2216 2034 2216 
z
M 1403 2484 
Q 997 2584 770 2862 
Q 544 3141 544 3541 
Q 544 4100 942 4425 
Q 1341 4750 2034 4750 
Q 2731 4750 3128 4425 
Q 3525 4100 3525 3541 
Q 3525 3141 3298 2862 
Q 3072 2584 2669 2484 
Q 3125 2378 3379 2068 
Q 3634 1759 3634 1313 
Q 3634 634 3220 271 
Q 2806 -91 2034 -91 
Q 1263 -91 848 271 
Q 434 634 434 1313 
Q 434 1759 690 2068 
Q 947 2378 1403 2484 
z
M 1172 3481 
Q 1172 3119 1398 2916 
Q 1625 2713 2034 2713 
Q 2441 2713 2670 2916 
Q 2900 3119 2900 3481 
Q 2900 3844 2670 4047 
Q 2441 4250 2034 4250 
Q 1625 4250 1398 4047 
Q 1172 3844 1172 3481 
z
" transform="scale(0.015625)"/>
       </defs>
       <use xlink:href="#DejaVuSans-38"/>
       <use xlink:href="#DejaVuSans-30" transform="translate(63.623047 0)"/>
       <use xlink:href="#DejaVuSans-30" transform="translate(127.246094 0)"/>
      </g>
     </g>
    </g>
    <g id="xtick_12">
     <g id="line2d_23">
      <path d="M 596.856174 344.221812 
L 596.856174 23.837812 
" clip-path="url(#pdded38d33c)" style="fill: none; stroke-dasharray: 2.96,1.28; stroke-dashoffset: 0; stroke: #b0b0b0; stroke-opacity: 0.7; stroke-width: 0.8"/>
     </g>
     <g id="line2d_24">
      <g>
       <use xlink:href="#m566b277617" x="596.856174" y="344.221812" style="stroke: #000000; stroke-width: 0.8"/>
      </g>
     </g>
     <g id="text_12">
      <!-- 900 -->
      <g transform="translate(587.312424 358.82025) scale(0.1 -0.1)">
       <defs>
        <path id="DejaVuSans-39" d="M 703 97 
L 703 672 
Q 941 559 1184 500 
Q 1428 441 1663 441 
Q 2288 441 2617 861 
Q 2947 1281 2994 2138 
Q 2813 1869 2534 1725 
Q 2256 1581 1919 1581 
Q 1219 1581 811 2004 
Q 403 2428 403 3163 
Q 403 3881 828 4315 
Q 1253 4750 1959 4750 
Q 2769 4750 3195 4129 
Q 3622 3509 3622 2328 
Q 3622 1225 3098 567 
Q 2575 -91 1691 -91 
Q 1453 -91 1209 -44 
Q 966 3 703 97 
z
M 1959 2075 
Q 2384 2075 2632 2365 
Q 2881 2656 2881 3163 
Q 2881 3666 2632 3958 
Q 2384 4250 1959 4250 
Q 1534 4250 1286 3958 
Q 1038 3666 1038 3163 
Q 1038 2656 1286 2365 
Q 1534 2075 1959 2075 
z
" transform="scale(0.015625)"/>
       </defs>
       <use xlink:href="#DejaVuSans-39"/>
       <use xlink:href="#DejaVuSans-30" transform="translate(63.623047 0)"/>
       <use xlink:href="#DejaVuSans-30" transform="translate(127.246094 0)"/>
      </g>
     </g>
    </g>
    <g id="xtick_13">
     <g id="line2d_25">
      <path d="M 644.642159 344.221812 
L 644.642159 23.837812 
" clip-path="url(#pdded38d33c)" style="fill: none; stroke-dasharray: 2.96,1.28; stroke-dashoffset: 0; stroke: #b0b0b0; stroke-opacity: 0.7; stroke-width: 0.8"/>
     </g>
     <g id="line2d_26">
      <g>
       <use xlink:href="#m566b277617" x="644.642159" y="344.221812" style="stroke: #000000; stroke-width: 0.8"/>
      </g>
     </g>
     <g id="text_13">
      <!-- 1000 -->
      <g transform="translate(631.917159 358.82025) scale(0.1 -0.1)">
       <use xlink:href="#DejaVuSans-31"/>
       <use xlink:href="#DejaVuSans-30" transform="translate(63.623047 0)"/>
       <use xlink:href="#DejaVuSans-30" transform="translate(127.246094 0)"/>
       <use xlink:href="#DejaVuSans-30" transform="translate(190.869141 0)"/>
      </g>
     </g>
    </g>
    <g id="text_14">
     <!-- Throughput -->
     <g transform="translate(323.078438 374.018062) scale(0.12 -0.12)">
      <defs>
       <path id="DejaVuSans-54" d="M -19 4666 
L 3928 4666 
L 3928 4134 
L 2272 4134 
L 2272 0 
L 1638 0 
L 1638 4134 
L -19 4134 
L -19 4666 
z
" transform="scale(0.015625)"/>
       <path id="DejaVuSans-68" d="M 3513 2113 
L 3513 0 
L 2938 0 
L 2938 2094 
Q 2938 2591 2744 2837 
Q 2550 3084 2163 3084 
Q 1697 3084 1428 2787 
Q 1159 2491 1159 1978 
L 1159 0 
L 581 0 
L 581 4863 
L 1159 4863 
L 1159 2956 
Q 1366 3272 1645 3428 
Q 1925 3584 2291 3584 
Q 2894 3584 3203 3211 
Q 3513 2838 3513 2113 
z
" transform="scale(0.015625)"/>
       <path id="DejaVuSans-72" d="M 2631 2963 
Q 2534 3019 2420 3045 
Q 2306 3072 2169 3072 
Q 1681 3072 1420 2755 
Q 1159 2438 1159 1844 
L 1159 0 
L 581 0 
L 581 3500 
L 1159 3500 
L 1159 2956 
Q 1341 3275 1631 3429 
Q 1922 3584 2338 3584 
Q 2397 3584 2469 3576 
Q 2541 3569 2628 3553 
L 2631 2963 
z
" transform="scale(0.015625)"/>
       <path id="DejaVuSans-6f" d="M 1959 3097 
Q 1497 3097 1228 2736 
Q 959 2375 959 1747 
Q 959 1119 1226 758 
Q 1494 397 1959 397 
Q 2419 397 2687 759 
Q 2956 1122 2956 1747 
Q 2956 2369 2687 2733 
Q 2419 3097 1959 3097 
z
M 1959 3584 
Q 2709 3584 3137 3096 
Q 3566 2609 3566 1747 
Q 3566 888 3137 398 
Q 2709 -91 1959 -91 
Q 1206 -91 779 398 
Q 353 888 353 1747 
Q 353 2609 779 3096 
Q 1206 3584 1959 3584 
z
" transform="scale(0.015625)"/>
       <path id="DejaVuSans-75" d="M 544 1381 
L 544 3500 
L 1119 3500 
L 1119 1403 
Q 1119 906 1312 657 
Q 1506 409 1894 409 
Q 2359 409 2629 706 
Q 2900 1003 2900 1516 
L 2900 3500 
L 3475 3500 
L 3475 0 
L 2900 0 
L 2900 538 
Q 2691 219 2414 64 
Q 2138 -91 1772 -91 
Q 1169 -91 856 284 
Q 544 659 544 1381 
z
M 1991 3584 
L 1991 3584 
z
" transform="scale(0.015625)"/>
       <path id="DejaVuSans-67" d="M 2906 1791 
Q 2906 2416 2648 2759 
Q 2391 3103 1925 3103 
Q 1463 3103 1205 2759 
Q 947 2416 947 1791 
Q 947 1169 1205 825 
Q 1463 481 1925 481 
Q 2391 481 2648 825 
Q 2906 1169 2906 1791 
z
M 3481 434 
Q 3481 -459 3084 -895 
Q 2688 -1331 1869 -1331 
Q 1566 -1331 1297 -1286 
Q 1028 -1241 775 -1147 
L 775 -588 
Q 1028 -725 1275 -790 
Q 1522 -856 1778 -856 
Q 2344 -856 2625 -561 
Q 2906 -266 2906 331 
L 2906 616 
Q 2728 306 2450 153 
Q 2172 0 1784 0 
Q 1141 0 747 490 
Q 353 981 353 1791 
Q 353 2603 747 3093 
Q 1141 3584 1784 3584 
Q 2172 3584 2450 3431 
Q 2728 3278 2906 2969 
L 2906 3500 
L 3481 3500 
L 3481 434 
z
" transform="scale(0.015625)"/>
       <path id="DejaVuSans-70" d="M 1159 525 
L 1159 -1331 
L 581 -1331 
L 581 3500 
L 1159 3500 
L 1159 2969 
Q 1341 3281 1617 3432 
Q 1894 3584 2278 3584 
Q 2916 3584 3314 3078 
Q 3713 2572 3713 1747 
Q 3713 922 3314 415 
Q 2916 -91 2278 -91 
Q 1894 -91 1617 61 
Q 1341 213 1159 525 
z
M 3116 1747 
Q 3116 2381 2855 2742 
Q 2594 3103 2138 3103 
Q 1681 3103 1420 2742 
Q 1159 2381 1159 1747 
Q 1159 1113 1420 752 
Q 1681 391 2138 391 
Q 2594 391 2855 752 
Q 3116 1113 3116 1747 
z
" transform="scale(0.015625)"/>
       <path id="DejaVuSans-74" d="M 1172 4494 
L 1172 3500 
L 2356 3500 
L 2356 3053 
L 1172 3053 
L 1172 1153 
Q 1172 725 1289 603 
Q 1406 481 1766 481 
L 2356 481 
L 2356 0 
L 1766 0 
Q 1100 0 847 248 
Q 594 497 594 1153 
L 594 3053 
L 172 3053 
L 172 3500 
L 594 3500 
L 594 4494 
L 1172 4494 
z
" transform="scale(0.015625)"/>
      </defs>
      <use xlink:href="#DejaVuSans-54"/>
      <use xlink:href="#DejaVuSans-68" transform="translate(61.083984 0)"/>
      <use xlink:href="#DejaVuSans-72" transform="translate(124.462891 0)"/>
      <use xlink:href="#DejaVuSans-6f" transform="translate(163.326172 0)"/>
      <use xlink:href="#DejaVuSans-75" transform="translate(224.507812 0)"/>
      <use xlink:href="#DejaVuSans-67" transform="translate(287.886719 0)"/>
      <use xlink:href="#DejaVuSans-68" transform="translate(351.363281 0)"/>
      <use xlink:href="#DejaVuSans-70" transform="translate(414.742188 0)"/>
      <use xlink:href="#DejaVuSans-75" transform="translate(478.21875 0)"/>
      <use xlink:href="#DejaVuSans-74" transform="translate(541.597656 0)"/>
     </g>
    </g>
   </g>
   <g id="matplotlib.axis_2">
    <g id="ytick_1">
     <g id="line2d_27">
      <path d="M 42.53875 344.221812 
L 673.31375 344.221812 
" clip-path="url(#pdded38d33c)" style="fill: none; stroke-dasharray: 2.96,1.28; stroke-dashoffset: 0; stroke: #b0b0b0; stroke-opacity: 0.7; stroke-width: 0.8"/>
     </g>
     <g id="line2d_28">
      <defs>
       <path id="m493dcc45d1" d="M 0 0 
L -3.5 0 
" style="stroke: #000000; stroke-width: 0.8"/>
      </defs>
      <g>
       <use xlink:href="#m493dcc45d1" x="42.53875" y="344.221812" style="stroke: #000000; stroke-width: 0.8"/>
      </g>
     </g>
     <g id="text_15">
      <!-- 0 -->
      <g transform="translate(29.17625 348.021031) scale(0.1 -0.1)">
       <use xlink:href="#DejaVuSans-30"/>
      </g>
     </g>
    </g>
    <g id="ytick_2">
     <g id="line2d_29">
      <path d="M 42.53875 274.713008 
L 673.31375 274.713008 
" clip-path="url(#pdded38d33c)" style="fill: none; stroke-dasharray: 2.96,1.28; stroke-dashoffset: 0; stroke: #b0b0b0; stroke-opacity: 0.7; stroke-width: 0.8"/>
     </g>
     <g id="line2d_30">
      <g>
       <use xlink:href="#m493dcc45d1" x="42.53875" y="274.713008" style="stroke: #000000; stroke-width: 0.8"/>
      </g>
     </g>
     <g id="text_16">
      <!-- 5 -->
      <g transform="translate(29.17625 278.512226) scale(0.1 -0.1)">
       <use xlink:href="#DejaVuSans-35"/>
      </g>
     </g>
    </g>
    <g id="ytick_3">
     <g id="line2d_31">
      <path d="M 42.53875 205.204203 
L 673.31375 205.204203 
" clip-path="url(#pdded38d33c)" style="fill: none; stroke-dasharray: 2.96,1.28; stroke-dashoffset: 0; stroke: #b0b0b0; stroke-opacity: 0.7; stroke-width: 0.8"/>
     </g>
     <g id="line2d_32">
      <g>
       <use xlink:href="#m493dcc45d1" x="42.53875" y="205.204203" style="stroke: #000000; stroke-width: 0.8"/>
      </g>
     </g>
     <g id="text_17">
      <!-- 10 -->
      <g transform="translate(22.81375 209.003421) scale(0.1 -0.1)">
       <use xlink:href="#DejaVuSans-31"/>
       <use xlink:href="#DejaVuSans-30" transform="translate(63.623047 0)"/>
      </g>
     </g>
    </g>
    <g id="ytick_4">
     <g id="line2d_33">
      <path d="M 42.53875 135.695398 
L 673.31375 135.695398 
" clip-path="url(#pdded38d33c)" style="fill: none; stroke-dasharray: 2.96,1.28; stroke-dashoffset: 0; stroke: #b0b0b0; stroke-opacity: 0.7; stroke-width: 0.8"/>
     </g>
     <g id="line2d_34">
      <g>
       <use xlink:href="#m493dcc45d1" x="42.53875" y="135.695398" style="stroke: #000000; stroke-width: 0.8"/>
      </g>
     </g>
     <g id="text_18">
      <!-- 15 -->
      <g transform="translate(22.81375 139.494616) scale(0.1 -0.1)">
       <use xlink:href="#DejaVuSans-31"/>
       <use xlink:href="#DejaVuSans-35" transform="translate(63.623047 0)"/>
      </g>
     </g>
    </g>
    <g id="ytick_5">
     <g id="line2d_35">
      <path d="M 42.53875 66.186593 
L 673.31375 66.186593 
" clip-path="url(#pdded38d33c)" style="fill: none; stroke-dasharray: 2.96,1.28; stroke-dashoffset: 0; stroke: #b0b0b0; stroke-opacity: 0.7; stroke-width: 0.8"/>
     </g>
     <g id="line2d_36">
      <g>
       <use xlink:href="#m493dcc45d1" x="42.53875" y="66.186593" style="stroke: #000000; stroke-width: 0.8"/>
      </g>
     </g>
     <g id="text_19">
      <!-- 20 -->
      <g transform="translate(22.81375 69.985811) scale(0.1 -0.1)">
       <use xlink:href="#DejaVuSans-32"/>
       <use xlink:href="#DejaVuSans-30" transform="translate(63.623047 0)"/>
      </g>
     </g>
    </g>
    <g id="text_20">
     <!-- CPU Utilisation (cycles) -->
     <g transform="translate(16.318125 253.397312) rotate(-90) scale(0.12 -0.12)">
      <defs>
       <path id="DejaVuSans-43" d="M 4122 4306 
L 4122 3641 
Q 3803 3938 3442 4084 
Q 3081 4231 2675 4231 
Q 1875 4231 1450 3742 
Q 1025 3253 1025 2328 
Q 1025 1406 1450 917 
Q 1875 428 2675 428 
Q 3081 428 3442 575 
Q 3803 722 4122 1019 
L 4122 359 
Q 3791 134 3420 21 
Q 3050 -91 2638 -91 
Q 1578 -91 968 557 
Q 359 1206 359 2328 
Q 359 3453 968 4101 
Q 1578 4750 2638 4750 
Q 3056 4750 3426 4639 
Q 3797 4528 4122 4306 
z
" transform="scale(0.015625)"/>
       <path id="DejaVuSans-50" d="M 1259 4147 
L 1259 2394 
L 2053 2394 
Q 2494 2394 2734 2622 
Q 2975 2850 2975 3272 
Q 2975 3691 2734 3919 
Q 2494 4147 2053 4147 
L 1259 4147 
z
M 628 4666 
L 2053 4666 
Q 2838 4666 3239 4311 
Q 3641 3956 3641 3272 
Q 3641 2581 3239 2228 
Q 2838 1875 2053 1875 
L 1259 1875 
L 1259 0 
L 628 0 
L 628 4666 
z
" transform="scale(0.015625)"/>
       <path id="DejaVuSans-55" d="M 556 4666 
L 1191 4666 
L 1191 1831 
Q 1191 1081 1462 751 
Q 1734 422 2344 422 
Q 2950 422 3222 751 
Q 3494 1081 3494 1831 
L 3494 4666 
L 4128 4666 
L 4128 1753 
Q 4128 841 3676 375 
Q 3225 -91 2344 -91 
Q 1459 -91 1007 375 
Q 556 841 556 1753 
L 556 4666 
z
" transform="scale(0.015625)"/>
       <path id="DejaVuSans-20" transform="scale(0.015625)"/>
       <path id="DejaVuSans-69" d="M 603 3500 
L 1178 3500 
L 1178 0 
L 603 0 
L 603 3500 
z
M 603 4863 
L 1178 4863 
L 1178 4134 
L 603 4134 
L 603 4863 
z
" transform="scale(0.015625)"/>
       <path id="DejaVuSans-6c" d="M 603 4863 
L 1178 4863 
L 1178 0 
L 603 0 
L 603 4863 
z
" transform="scale(0.015625)"/>
       <path id="DejaVuSans-73" d="M 2834 3397 
L 2834 2853 
Q 2591 2978 2328 3040 
Q 2066 3103 1784 3103 
Q 1356 3103 1142 2972 
Q 928 2841 928 2578 
Q 928 2378 1081 2264 
Q 1234 2150 1697 2047 
L 1894 2003 
Q 2506 1872 2764 1633 
Q 3022 1394 3022 966 
Q 3022 478 2636 193 
Q 2250 -91 1575 -91 
Q 1294 -91 989 -36 
Q 684 19 347 128 
L 347 722 
Q 666 556 975 473 
Q 1284 391 1588 391 
Q 1994 391 2212 530 
Q 2431 669 2431 922 
Q 2431 1156 2273 1281 
Q 2116 1406 1581 1522 
L 1381 1569 
Q 847 1681 609 1914 
Q 372 2147 372 2553 
Q 372 3047 722 3315 
Q 1072 3584 1716 3584 
Q 2034 3584 2315 3537 
Q 2597 3491 2834 3397 
z
" transform="scale(0.015625)"/>
       <path id="DejaVuSans-61" d="M 2194 1759 
Q 1497 1759 1228 1600 
Q 959 1441 959 1056 
Q 959 750 1161 570 
Q 1363 391 1709 391 
Q 2188 391 2477 730 
Q 2766 1069 2766 1631 
L 2766 1759 
L 2194 1759 
z
M 3341 1997 
L 3341 0 
L 2766 0 
L 2766 531 
Q 2569 213 2275 61 
Q 1981 -91 1556 -91 
Q 1019 -91 701 211 
Q 384 513 384 1019 
Q 384 1609 779 1909 
Q 1175 2209 1959 2209 
L 2766 2209 
L 2766 2266 
Q 2766 2663 2505 2880 
Q 2244 3097 1772 3097 
Q 1472 3097 1187 3025 
Q 903 2953 641 2809 
L 641 3341 
Q 956 3463 1253 3523 
Q 1550 3584 1831 3584 
Q 2591 3584 2966 3190 
Q 3341 2797 3341 1997 
z
" transform="scale(0.015625)"/>
       <path id="DejaVuSans-6e" d="M 3513 2113 
L 3513 0 
L 2938 0 
L 2938 2094 
Q 2938 2591 2744 2837 
Q 2550 3084 2163 3084 
Q 1697 3084 1428 2787 
Q 1159 2491 1159 1978 
L 1159 0 
L 581 0 
L 581 3500 
L 1159 3500 
L 1159 2956 
Q 1366 3272 1645 3428 
Q 1925 3584 2291 3584 
Q 2894 3584 3203 3211 
Q 3513 2838 3513 2113 
z
" transform="scale(0.015625)"/>
       <path id="DejaVuSans-28" d="M 1984 4856 
Q 1566 4138 1362 3434 
Q 1159 2731 1159 2009 
Q 1159 1288 1364 580 
Q 1569 -128 1984 -844 
L 1484 -844 
Q 1016 -109 783 600 
Q 550 1309 550 2009 
Q 550 2706 781 3412 
Q 1013 4119 1484 4856 
L 1984 4856 
z
" transform="scale(0.015625)"/>
       <path id="DejaVuSans-63" d="M 3122 3366 
L 3122 2828 
Q 2878 2963 2633 3030 
Q 2388 3097 2138 3097 
Q 1578 3097 1268 2742 
Q 959 2388 959 1747 
Q 959 1106 1268 751 
Q 1578 397 2138 397 
Q 2388 397 2633 464 
Q 2878 531 3122 666 
L 3122 134 
Q 2881 22 2623 -34 
Q 2366 -91 2075 -91 
Q 1284 -91 818 406 
Q 353 903 353 1747 
Q 353 2603 823 3093 
Q 1294 3584 2113 3584 
Q 2378 3584 2631 3529 
Q 2884 3475 3122 3366 
z
" transform="scale(0.015625)"/>
       <path id="DejaVuSans-79" d="M 2059 -325 
Q 1816 -950 1584 -1140 
Q 1353 -1331 966 -1331 
L 506 -1331 
L 506 -850 
L 844 -850 
Q 1081 -850 1212 -737 
Q 1344 -625 1503 -206 
L 1606 56 
L 191 3500 
L 800 3500 
L 1894 763 
L 2988 3500 
L 3597 3500 
L 2059 -325 
z
" transform="scale(0.015625)"/>
       <path id="DejaVuSans-65" d="M 3597 1894 
L 3597 1613 
L 953 1613 
Q 991 1019 1311 708 
Q 1631 397 2203 397 
Q 2534 397 2845 478 
Q 3156 559 3463 722 
L 3463 178 
Q 3153 47 2828 -22 
Q 2503 -91 2169 -91 
Q 1331 -91 842 396 
Q 353 884 353 1716 
Q 353 2575 817 3079 
Q 1281 3584 2069 3584 
Q 2775 3584 3186 3129 
Q 3597 2675 3597 1894 
z
M 3022 2063 
Q 3016 2534 2758 2815 
Q 2500 3097 2075 3097 
Q 1594 3097 1305 2825 
Q 1016 2553 972 2059 
L 3022 2063 
z
" transform="scale(0.015625)"/>
       <path id="DejaVuSans-29" d="M 513 4856 
L 1013 4856 
Q 1481 4119 1714 3412 
Q 1947 2706 1947 2009 
Q 1947 1309 1714 600 
Q 1481 -109 1013 -844 
L 513 -844 
Q 928 -128 1133 580 
Q 1338 1288 1338 2009 
Q 1338 2731 1133 3434 
Q 928 4138 513 4856 
z
" transform="scale(0.015625)"/>
      </defs>
      <use xlink:href="#DejaVuSans-43"/>
      <use xlink:href="#DejaVuSans-50" transform="translate(69.824219 0)"/>
      <use xlink:href="#DejaVuSans-55" transform="translate(130.126953 0)"/>
      <use xlink:href="#DejaVuSans-20" transform="translate(203.320312 0)"/>
      <use xlink:href="#DejaVuSans-55" transform="translate(235.107422 0)"/>
      <use xlink:href="#DejaVuSans-74" transform="translate(308.300781 0)"/>
      <use xlink:href="#DejaVuSans-69" transform="translate(347.509766 0)"/>
      <use xlink:href="#DejaVuSans-6c" transform="translate(375.292969 0)"/>
      <use xlink:href="#DejaVuSans-69" transform="translate(403.076172 0)"/>
      <use xlink:href="#DejaVuSans-73" transform="translate(430.859375 0)"/>
      <use xlink:href="#DejaVuSans-61" transform="translate(482.958984 0)"/>
      <use xlink:href="#DejaVuSans-74" transform="translate(544.238281 0)"/>
      <use xlink:href="#DejaVuSans-69" transform="translate(583.447266 0)"/>
      <use xlink:href="#DejaVuSans-6f" transform="translate(611.230469 0)"/>
      <use xlink:href="#DejaVuSans-6e" transform="translate(672.412109 0)"/>
      <use xlink:href="#DejaVuSans-20" transform="translate(735.791016 0)"/>
      <use xlink:href="#DejaVuSans-28" transform="translate(767.578125 0)"/>
      <use xlink:href="#DejaVuSans-63" transform="translate(806.591797 0)"/>
      <use xlink:href="#DejaVuSans-79" transform="translate(861.572266 0)"/>
      <use xlink:href="#DejaVuSans-63" transform="translate(920.751953 0)"/>
      <use xlink:href="#DejaVuSans-6c" transform="translate(975.732422 0)"/>
      <use xlink:href="#DejaVuSans-65" transform="translate(1003.515625 0)"/>
      <use xlink:href="#DejaVuSans-73" transform="translate(1065.039062 0)"/>
      <use xlink:href="#DejaVuSans-29" transform="translate(1117.138672 0)"/>
     </g>
    </g>
   </g>
   <g id="line2d_37">
    <path d="M 71.210341 339.819002 
L 118.996326 335.449859 
L 166.782311 323.263765 
L 214.568295 303.763523 
L 262.35428 242.32723 
L 310.140265 173.965977 
L 357.92625 178.518195 
L 405.712235 182.222083 
L 453.49822 187.901083 
L 501.284205 192.967038 
L 549.070189 198.49585 
L 596.856174 202.747896 
L 644.642159 203.293339 
" clip-path="url(#pdded38d33c)" style="fill: none; stroke-dasharray: 7.4,3.2; stroke-dashoffset: 0; stroke: #1f77b4; stroke-width: 2"/>
    <defs>
     <path id="m318705bfe9" d="M 0 3 
C 0.795609 3 1.55874 2.683901 2.12132 2.12132 
C 2.683901 1.55874 3 0.795609 3 0 
C 3 -0.795609 2.683901 -1.55874 2.12132 -2.12132 
C 1.55874 -2.683901 0.795609 -3 0 -3 
C -0.795609 -3 -1.55874 -2.683901 -2.12132 -2.12132 
C -2.683901 -1.55874 -3 -0.795609 -3 0 
C -3 0.795609 -2.683901 1.55874 -2.12132 2.12132 
C -1.55874 2.683901 -0.795609 3 0 3 
z
" style="stroke: #1f77b4"/>
    </defs>
    <g clip-path="url(#pdded38d33c)">
     <use xlink:href="#m318705bfe9" x="71.210341" y="339.819002" style="fill: #1f77b4; stroke: #1f77b4"/>
     <use xlink:href="#m318705bfe9" x="118.996326" y="335.449859" style="fill: #1f77b4; stroke: #1f77b4"/>
     <use xlink:href="#m318705bfe9" x="166.782311" y="323.263765" style="fill: #1f77b4; stroke: #1f77b4"/>
     <use xlink:href="#m318705bfe9" x="214.568295" y="303.763523" style="fill: #1f77b4; stroke: #1f77b4"/>
     <use xlink:href="#m318705bfe9" x="262.35428" y="242.32723" style="fill: #1f77b4; stroke: #1f77b4"/>
     <use xlink:href="#m318705bfe9" x="310.140265" y="173.965977" style="fill: #1f77b4; stroke: #1f77b4"/>
     <use xlink:href="#m318705bfe9" x="357.92625" y="178.518195" style="fill: #1f77b4; stroke: #1f77b4"/>
     <use xlink:href="#m318705bfe9" x="405.712235" y="182.222083" style="fill: #1f77b4; stroke: #1f77b4"/>
     <use xlink:href="#m318705bfe9" x="453.49822" y="187.901083" style="fill: #1f77b4; stroke: #1f77b4"/>
     <use xlink:href="#m318705bfe9" x="501.284205" y="192.967038" style="fill: #1f77b4; stroke: #1f77b4"/>
     <use xlink:href="#m318705bfe9" x="549.070189" y="198.49585" style="fill: #1f77b4; stroke: #1f77b4"/>
     <use xlink:href="#m318705bfe9" x="596.856174" y="202.747896" style="fill: #1f77b4; stroke: #1f77b4"/>
     <use xlink:href="#m318705bfe9" x="644.642159" y="203.293339" style="fill: #1f77b4; stroke: #1f77b4"/>
    </g>
   </g>
   <g id="line2d_38">
    <path d="M 71.210341 339.802462 
L 118.996326 335.38999 
L 166.782311 323.089235 
L 214.568295 304.413823 
L 262.35428 241.133821 
L 310.140265 169.244631 
L 357.92625 173.582675 
L 405.712235 176.540825 
L 453.49822 180.900085 
L 501.284205 186.945368 
L 549.070189 190.34333 
L 596.856174 194.818729 
L 644.642159 197.753036 
" clip-path="url(#pdded38d33c)" style="fill: none; stroke: #1f77b4; stroke-width: 2; stroke-linecap: square"/>
    <defs>
     <path id="md147f178f3" d="M -3 3 
L 3 3 
L 3 -3 
L -3 -3 
z
" style="stroke: #1f77b4; stroke-linejoin: miter"/>
    </defs>
    <g clip-path="url(#pdded38d33c)">
     <use xlink:href="#md147f178f3" x="71.210341" y="339.802462" style="fill: #1f77b4; stroke: #1f77b4; stroke-linejoin: miter"/>
     <use xlink:href="#md147f178f3" x="118.996326" y="335.38999" style="fill: #1f77b4; stroke: #1f77b4; stroke-linejoin: miter"/>
     <use xlink:href="#md147f178f3" x="166.782311" y="323.089235" style="fill: #1f77b4; stroke: #1f77b4; stroke-linejoin: miter"/>
     <use xlink:href="#md147f178f3" x="214.568295" y="304.413823" style="fill: #1f77b4; stroke: #1f77b4; stroke-linejoin: miter"/>
     <use xlink:href="#md147f178f3" x="262.35428" y="241.133821" style="fill: #1f77b4; stroke: #1f77b4; stroke-linejoin: miter"/>
     <use xlink:href="#md147f178f3" x="310.140265" y="169.244631" style="fill: #1f77b4; stroke: #1f77b4; stroke-linejoin: miter"/>
     <use xlink:href="#md147f178f3" x="357.92625" y="173.582675" style="fill: #1f77b4; stroke: #1f77b4; stroke-linejoin: miter"/>
     <use xlink:href="#md147f178f3" x="405.712235" y="176.540825" style="fill: #1f77b4; stroke: #1f77b4; stroke-linejoin: miter"/>
     <use xlink:href="#md147f178f3" x="453.49822" y="180.900085" style="fill: #1f77b4; stroke: #1f77b4; stroke-linejoin: miter"/>
     <use xlink:href="#md147f178f3" x="501.284205" y="186.945368" style="fill: #1f77b4; stroke: #1f77b4; stroke-linejoin: miter"/>
     <use xlink:href="#md147f178f3" x="549.070189" y="190.34333" style="fill: #1f77b4; stroke: #1f77b4; stroke-linejoin: miter"/>
     <use xlink:href="#md147f178f3" x="596.856174" y="194.818729" style="fill: #1f77b4; stroke: #1f77b4; stroke-linejoin: miter"/>
     <use xlink:href="#md147f178f3" x="644.642159" y="197.753036" style="fill: #1f77b4; stroke: #1f77b4; stroke-linejoin: miter"/>
    </g>
   </g>
   <g id="line2d_39">
    <path d="M 71.210341 338.83543 
L 118.996326 333.471208 
L 166.782311 317.442013 
L 214.568295 297.946237 
L 262.35428 283.869228 
L 310.140265 313.326158 
L 357.92625 308.174966 
L 405.712235 302.845028 
L 453.49822 297.466271 
L 501.284205 292.299981 
L 549.070189 285.524437 
L 596.856174 283.396642 
L 644.642159 285.257176 
" clip-path="url(#pdded38d33c)" style="fill: none; stroke-dasharray: 7.4,3.2; stroke-dashoffset: 0; stroke: #ff7f0e; stroke-width: 2"/>
    <defs>
     <path id="ma78ac82f3b" d="M 0 3 
C 0.795609 3 1.55874 2.683901 2.12132 2.12132 
C 2.683901 1.55874 3 0.795609 3 0 
C 3 -0.795609 2.683901 -1.55874 2.12132 -2.12132 
C 1.55874 -2.683901 0.795609 -3 0 -3 
C -0.795609 -3 -1.55874 -2.683901 -2.12132 -2.12132 
C -2.683901 -1.55874 -3 -0.795609 -3 0 
C -3 0.795609 -2.683901 1.55874 -2.12132 2.12132 
C -1.55874 2.683901 -0.795609 3 0 3 
z
" style="stroke: #ff7f0e"/>
    </defs>
    <g clip-path="url(#pdded38d33c)">
     <use xlink:href="#ma78ac82f3b" x="71.210341" y="338.83543" style="fill: #ff7f0e; stroke: #ff7f0e"/>
     <use xlink:href="#ma78ac82f3b" x="118.996326" y="333.471208" style="fill: #ff7f0e; stroke: #ff7f0e"/>
     <use xlink:href="#ma78ac82f3b" x="166.782311" y="317.442013" style="fill: #ff7f0e; stroke: #ff7f0e"/>
     <use xlink:href="#ma78ac82f3b" x="214.568295" y="297.946237" style="fill: #ff7f0e; stroke: #ff7f0e"/>
     <use xlink:href="#ma78ac82f3b" x="262.35428" y="283.869228" style="fill: #ff7f0e; stroke: #ff7f0e"/>
     <use xlink:href="#ma78ac82f3b" x="310.140265" y="313.326158" style="fill: #ff7f0e; stroke: #ff7f0e"/>
     <use xlink:href="#ma78ac82f3b" x="357.92625" y="308.174966" style="fill: #ff7f0e; stroke: #ff7f0e"/>
     <use xlink:href="#ma78ac82f3b" x="405.712235" y="302.845028" style="fill: #ff7f0e; stroke: #ff7f0e"/>
     <use xlink:href="#ma78ac82f3b" x="453.49822" y="297.466271" style="fill: #ff7f0e; stroke: #ff7f0e"/>
     <use xlink:href="#ma78ac82f3b" x="501.284205" y="292.299981" style="fill: #ff7f0e; stroke: #ff7f0e"/>
     <use xlink:href="#ma78ac82f3b" x="549.070189" y="285.524437" style="fill: #ff7f0e; stroke: #ff7f0e"/>
     <use xlink:href="#ma78ac82f3b" x="596.856174" y="283.396642" style="fill: #ff7f0e; stroke: #ff7f0e"/>
     <use xlink:href="#ma78ac82f3b" x="644.642159" y="285.257176" style="fill: #ff7f0e; stroke: #ff7f0e"/>
    </g>
   </g>
   <g id="line2d_40">
    <path d="M 71.210341 338.409649 
L 118.996326 332.637728 
L 166.782311 315.367233 
L 214.568295 292.566347 
L 262.35428 280.651478 
L 310.140265 313.738041 
L 357.92625 308.545237 
L 405.712235 303.373467 
L 453.49822 298.017123 
L 501.284205 292.61486 
L 549.070189 286.167258 
L 596.856174 284.14627 
L 644.642159 286.201132 
" clip-path="url(#pdded38d33c)" style="fill: none; stroke: #ff7f0e; stroke-width: 2; stroke-linecap: square"/>
    <defs>
     <path id="mfac23b8fcc" d="M -3 3 
L 3 3 
L 3 -3 
L -3 -3 
z
" style="stroke: #ff7f0e; stroke-linejoin: miter"/>
    </defs>
    <g clip-path="url(#pdded38d33c)">
     <use xlink:href="#mfac23b8fcc" x="71.210341" y="338.409649" style="fill: #ff7f0e; stroke: #ff7f0e; stroke-linejoin: miter"/>
     <use xlink:href="#mfac23b8fcc" x="118.996326" y="332.637728" style="fill: #ff7f0e; stroke: #ff7f0e; stroke-linejoin: miter"/>
     <use xlink:href="#mfac23b8fcc" x="166.782311" y="315.367233" style="fill: #ff7f0e; stroke: #ff7f0e; stroke-linejoin: miter"/>
     <use xlink:href="#mfac23b8fcc" x="214.568295" y="292.566347" style="fill: #ff7f0e; stroke: #ff7f0e; stroke-linejoin: miter"/>
     <use xlink:href="#mfac23b8fcc" x="262.35428" y="280.651478" style="fill: #ff7f0e; stroke: #ff7f0e; stroke-linejoin: miter"/>
     <use xlink:href="#mfac23b8fcc" x="310.140265" y="313.738041" style="fill: #ff7f0e; stroke: #ff7f0e; stroke-linejoin: miter"/>
     <use xlink:href="#mfac23b8fcc" x="357.92625" y="308.545237" style="fill: #ff7f0e; stroke: #ff7f0e; stroke-linejoin: miter"/>
     <use xlink:href="#mfac23b8fcc" x="405.712235" y="303.373467" style="fill: #ff7f0e; stroke: #ff7f0e; stroke-linejoin: miter"/>
     <use xlink:href="#mfac23b8fcc" x="453.49822" y="298.017123" style="fill: #ff7f0e; stroke: #ff7f0e; stroke-linejoin: miter"/>
     <use xlink:href="#mfac23b8fcc" x="501.284205" y="292.61486" style="fill: #ff7f0e; stroke: #ff7f0e; stroke-linejoin: miter"/>
     <use xlink:href="#mfac23b8fcc" x="549.070189" y="286.167258" style="fill: #ff7f0e; stroke: #ff7f0e; stroke-linejoin: miter"/>
     <use xlink:href="#mfac23b8fcc" x="596.856174" y="284.14627" style="fill: #ff7f0e; stroke: #ff7f0e; stroke-linejoin: miter"/>
     <use xlink:href="#mfac23b8fcc" x="644.642159" y="286.201132" style="fill: #ff7f0e; stroke: #ff7f0e; stroke-linejoin: miter"/>
    </g>
   </g>
   <g id="line2d_41">
    <path d="M 71.210341 332.805795 
L 118.996326 321.324974 
L 166.782311 288.607299 
L 214.568295 242.515675 
L 262.35428 140.029384 
L 310.140265 81.269281 
L 357.92625 78.648966 
L 405.712235 76.883447 
L 453.49822 74.91688 
L 501.284205 71.378496 
L 549.070189 70.918574 
L 596.856174 69.437788 
L 644.642159 69.23547 
" clip-path="url(#pdded38d33c)" style="fill: none; stroke-dasharray: 7.4,3.2; stroke-dashoffset: 0; stroke: #2ca02c; stroke-width: 2"/>
    <defs>
     <path id="m17d2cffea0" d="M 0 3 
C 0.795609 3 1.55874 2.683901 2.12132 2.12132 
C 2.683901 1.55874 3 0.795609 3 0 
C 3 -0.795609 2.683901 -1.55874 2.12132 -2.12132 
C 1.55874 -2.683901 0.795609 -3 0 -3 
C -0.795609 -3 -1.55874 -2.683901 -2.12132 -2.12132 
C -2.683901 -1.55874 -3 -0.795609 -3 0 
C -3 0.795609 -2.683901 1.55874 -2.12132 2.12132 
C -1.55874 2.683901 -0.795609 3 0 3 
z
" style="stroke: #2ca02c"/>
    </defs>
    <g clip-path="url(#pdded38d33c)">
     <use xlink:href="#m17d2cffea0" x="71.210341" y="332.805795" style="fill: #2ca02c; stroke: #2ca02c"/>
     <use xlink:href="#m17d2cffea0" x="118.996326" y="321.324974" style="fill: #2ca02c; stroke: #2ca02c"/>
     <use xlink:href="#m17d2cffea0" x="166.782311" y="288.607299" style="fill: #2ca02c; stroke: #2ca02c"/>
     <use xlink:href="#m17d2cffea0" x="214.568295" y="242.515675" style="fill: #2ca02c; stroke: #2ca02c"/>
     <use xlink:href="#m17d2cffea0" x="262.35428" y="140.029384" style="fill: #2ca02c; stroke: #2ca02c"/>
     <use xlink:href="#m17d2cffea0" x="310.140265" y="81.269281" style="fill: #2ca02c; stroke: #2ca02c"/>
     <use xlink:href="#m17d2cffea0" x="357.92625" y="78.648966" style="fill: #2ca02c; stroke: #2ca02c"/>
     <use xlink:href="#m17d2cffea0" x="405.712235" y="76.883447" style="fill: #2ca02c; stroke: #2ca02c"/>
     <use xlink:href="#m17d2cffea0" x="453.49822" y="74.91688" style="fill: #2ca02c; stroke: #2ca02c"/>
     <use xlink:href="#m17d2cffea0" x="501.284205" y="71.378496" style="fill: #2ca02c; stroke: #2ca02c"/>
     <use xlink:href="#m17d2cffea0" x="549.070189" y="70.918574" style="fill: #2ca02c; stroke: #2ca02c"/>
     <use xlink:href="#m17d2cffea0" x="596.856174" y="69.437788" style="fill: #2ca02c; stroke: #2ca02c"/>
     <use xlink:href="#m17d2cffea0" x="644.642159" y="69.23547" style="fill: #2ca02c; stroke: #2ca02c"/>
    </g>
   </g>
   <g id="line2d_42">
    <path d="M 71.210341 333.34311 
L 118.996326 322.484948 
L 166.782311 291.189943 
L 214.568295 247.415309 
L 262.35428 141.735417 
L 310.140265 82.212201 
L 357.92625 80.417119 
L 405.712235 77.069844 
L 453.49822 76.5108 
L 501.284205 74.435086 
L 549.070189 71.30006 
L 596.856174 71.209106 
L 644.642159 70.944753 
" clip-path="url(#pdded38d33c)" style="fill: none; stroke: #2ca02c; stroke-width: 2; stroke-linecap: square"/>
    <defs>
     <path id="m87a16caf30" d="M -3 3 
L 3 3 
L 3 -3 
L -3 -3 
z
" style="stroke: #2ca02c; stroke-linejoin: miter"/>
    </defs>
    <g clip-path="url(#pdded38d33c)">
     <use xlink:href="#m87a16caf30" x="71.210341" y="333.34311" style="fill: #2ca02c; stroke: #2ca02c; stroke-linejoin: miter"/>
     <use xlink:href="#m87a16caf30" x="118.996326" y="322.484948" style="fill: #2ca02c; stroke: #2ca02c; stroke-linejoin: miter"/>
     <use xlink:href="#m87a16caf30" x="166.782311" y="291.189943" style="fill: #2ca02c; stroke: #2ca02c; stroke-linejoin: miter"/>
     <use xlink:href="#m87a16caf30" x="214.568295" y="247.415309" style="fill: #2ca02c; stroke: #2ca02c; stroke-linejoin: miter"/>
     <use xlink:href="#m87a16caf30" x="262.35428" y="141.735417" style="fill: #2ca02c; stroke: #2ca02c; stroke-linejoin: miter"/>
     <use xlink:href="#m87a16caf30" x="310.140265" y="82.212201" style="fill: #2ca02c; stroke: #2ca02c; stroke-linejoin: miter"/>
     <use xlink:href="#m87a16caf30" x="357.92625" y="80.417119" style="fill: #2ca02c; stroke: #2ca02c; stroke-linejoin: miter"/>
     <use xlink:href="#m87a16caf30" x="405.712235" y="77.069844" style="fill: #2ca02c; stroke: #2ca02c; stroke-linejoin: miter"/>
     <use xlink:href="#m87a16caf30" x="453.49822" y="76.5108" style="fill: #2ca02c; stroke: #2ca02c; stroke-linejoin: miter"/>
     <use xlink:href="#m87a16caf30" x="501.284205" y="74.435086" style="fill: #2ca02c; stroke: #2ca02c; stroke-linejoin: miter"/>
     <use xlink:href="#m87a16caf30" x="549.070189" y="71.30006" style="fill: #2ca02c; stroke: #2ca02c; stroke-linejoin: miter"/>
     <use xlink:href="#m87a16caf30" x="596.856174" y="71.209106" style="fill: #2ca02c; stroke: #2ca02c; stroke-linejoin: miter"/>
     <use xlink:href="#m87a16caf30" x="644.642159" y="70.944753" style="fill: #2ca02c; stroke: #2ca02c; stroke-linejoin: miter"/>
    </g>
   </g>
   <g id="line2d_43">
    <path d="M 71.210341 339.125383 
L 118.996326 334.057808 
L 166.782311 319.573174 
L 214.568295 299.203581 
L 262.35428 288.767471 
L 310.140265 292.177751 
L 357.92625 277.149874 
L 405.712235 261.985995 
L 453.49822 246.141539 
L 501.284205 229.896937 
L 549.070189 166.614648 
L 596.856174 144.550784 
L 644.642159 152.856509 
" clip-path="url(#pdded38d33c)" style="fill: none; stroke-dasharray: 7.4,3.2; stroke-dashoffset: 0; stroke: #d62728; stroke-width: 2"/>
    <defs>
     <path id="m49523e8cba" d="M 0 3 
C 0.795609 3 1.55874 2.683901 2.12132 2.12132 
C 2.683901 1.55874 3 0.795609 3 0 
C 3 -0.795609 2.683901 -1.55874 2.12132 -2.12132 
C 1.55874 -2.683901 0.795609 -3 0 -3 
C -0.795609 -3 -1.55874 -2.683901 -2.12132 -2.12132 
C -2.683901 -1.55874 -3 -0.795609 -3 0 
C -3 0.795609 -2.683901 1.55874 -2.12132 2.12132 
C -1.55874 2.683901 -0.795609 3 0 3 
z
" style="stroke: #d62728"/>
    </defs>
    <g clip-path="url(#pdded38d33c)">
     <use xlink:href="#m49523e8cba" x="71.210341" y="339.125383" style="fill: #d62728; stroke: #d62728"/>
     <use xlink:href="#m49523e8cba" x="118.996326" y="334.057808" style="fill: #d62728; stroke: #d62728"/>
     <use xlink:href="#m49523e8cba" x="166.782311" y="319.573174" style="fill: #d62728; stroke: #d62728"/>
     <use xlink:href="#m49523e8cba" x="214.568295" y="299.203581" style="fill: #d62728; stroke: #d62728"/>
     <use xlink:href="#m49523e8cba" x="262.35428" y="288.767471" style="fill: #d62728; stroke: #d62728"/>
     <use xlink:href="#m49523e8cba" x="310.140265" y="292.177751" style="fill: #d62728; stroke: #d62728"/>
     <use xlink:href="#m49523e8cba" x="357.92625" y="277.149874" style="fill: #d62728; stroke: #d62728"/>
     <use xlink:href="#m49523e8cba" x="405.712235" y="261.985995" style="fill: #d62728; stroke: #d62728"/>
     <use xlink:href="#m49523e8cba" x="453.49822" y="246.141539" style="fill: #d62728; stroke: #d62728"/>
     <use xlink:href="#m49523e8cba" x="501.284205" y="229.896937" style="fill: #d62728; stroke: #d62728"/>
     <use xlink:href="#m49523e8cba" x="549.070189" y="166.614648" style="fill: #d62728; stroke: #d62728"/>
     <use xlink:href="#m49523e8cba" x="596.856174" y="144.550784" style="fill: #d62728; stroke: #d62728"/>
     <use xlink:href="#m49523e8cba" x="644.642159" y="152.856509" style="fill: #d62728; stroke: #d62728"/>
    </g>
   </g>
   <g id="line2d_44">
    <path d="M 71.210341 339.012932 
L 118.996326 333.814167 
L 166.782311 318.75811 
L 214.568295 298.015312 
L 262.35428 288.261406 
L 310.140265 292.014903 
L 357.92625 277.223553 
L 405.712235 262.450801 
L 453.49822 246.595639 
L 501.284205 231.277758 
L 549.070189 187.148226 
L 596.856174 159.565136 
L 644.642159 167.918388 
" clip-path="url(#pdded38d33c)" style="fill: none; stroke: #d62728; stroke-width: 2; stroke-linecap: square"/>
    <defs>
     <path id="mef7b8dba04" d="M -3 3 
L 3 3 
L 3 -3 
L -3 -3 
z
" style="stroke: #d62728; stroke-linejoin: miter"/>
    </defs>
    <g clip-path="url(#pdded38d33c)">
     <use xlink:href="#mef7b8dba04" x="71.210341" y="339.012932" style="fill: #d62728; stroke: #d62728; stroke-linejoin: miter"/>
     <use xlink:href="#mef7b8dba04" x="118.996326" y="333.814167" style="fill: #d62728; stroke: #d62728; stroke-linejoin: miter"/>
     <use xlink:href="#mef7b8dba04" x="166.782311" y="318.75811" style="fill: #d62728; stroke: #d62728; stroke-linejoin: miter"/>
     <use xlink:href="#mef7b8dba04" x="214.568295" y="298.015312" style="fill: #d62728; stroke: #d62728; stroke-linejoin: miter"/>
     <use xlink:href="#mef7b8dba04" x="262.35428" y="288.261406" style="fill: #d62728; stroke: #d62728; stroke-linejoin: miter"/>
     <use xlink:href="#mef7b8dba04" x="310.140265" y="292.014903" style="fill: #d62728; stroke: #d62728; stroke-linejoin: miter"/>
     <use xlink:href="#mef7b8dba04" x="357.92625" y="277.223553" style="fill: #d62728; stroke: #d62728; stroke-linejoin: miter"/>
     <use xlink:href="#mef7b8dba04" x="405.712235" y="262.450801" style="fill: #d62728; stroke: #d62728; stroke-linejoin: miter"/>
     <use xlink:href="#mef7b8dba04" x="453.49822" y="246.595639" style="fill: #d62728; stroke: #d62728; stroke-linejoin: miter"/>
     <use xlink:href="#mef7b8dba04" x="501.284205" y="231.277758" style="fill: #d62728; stroke: #d62728; stroke-linejoin: miter"/>
     <use xlink:href="#mef7b8dba04" x="549.070189" y="187.148226" style="fill: #d62728; stroke: #d62728; stroke-linejoin: miter"/>
     <use xlink:href="#mef7b8dba04" x="596.856174" y="159.565136" style="fill: #d62728; stroke: #d62728; stroke-linejoin: miter"/>
     <use xlink:href="#mef7b8dba04" x="644.642159" y="167.918388" style="fill: #d62728; stroke: #d62728; stroke-linejoin: miter"/>
    </g>
   </g>
   <g id="line2d_45">
    <path d="M 71.210341 338.239563 
L 118.996326 332.348492 
L 166.782311 315.938296 
L 214.568295 288.927025 
L 262.35428 257.286898 
L 310.140265 231.157217 
L 357.92625 196.174524 
L 405.712235 160.638155 
L 453.49822 125.066947 
L 501.284205 89.908071 
L 549.070189 55.176646 
L 596.856174 42.081153 
L 644.642159 54.223466 
" clip-path="url(#pdded38d33c)" style="fill: none; stroke-dasharray: 7.4,3.2; stroke-dashoffset: 0; stroke: #9467bd; stroke-width: 2"/>
    <defs>
     <path id="m9fafe41298" d="M 0 3 
C 0.795609 3 1.55874 2.683901 2.12132 2.12132 
C 2.683901 1.55874 3 0.795609 3 0 
C 3 -0.795609 2.683901 -1.55874 2.12132 -2.12132 
C 1.55874 -2.683901 0.795609 -3 0 -3 
C -0.795609 -3 -1.55874 -2.683901 -2.12132 -2.12132 
C -2.683901 -1.55874 -3 -0.795609 -3 0 
C -3 0.795609 -2.683901 1.55874 -2.12132 2.12132 
C -1.55874 2.683901 -0.795609 3 0 3 
z
" style="stroke: #9467bd"/>
    </defs>
    <g clip-path="url(#pdded38d33c)">
     <use xlink:href="#m9fafe41298" x="71.210341" y="338.239563" style="fill: #9467bd; stroke: #9467bd"/>
     <use xlink:href="#m9fafe41298" x="118.996326" y="332.348492" style="fill: #9467bd; stroke: #9467bd"/>
     <use xlink:href="#m9fafe41298" x="166.782311" y="315.938296" style="fill: #9467bd; stroke: #9467bd"/>
     <use xlink:href="#m9fafe41298" x="214.568295" y="288.927025" style="fill: #9467bd; stroke: #9467bd"/>
     <use xlink:href="#m9fafe41298" x="262.35428" y="257.286898" style="fill: #9467bd; stroke: #9467bd"/>
     <use xlink:href="#m9fafe41298" x="310.140265" y="231.157217" style="fill: #9467bd; stroke: #9467bd"/>
     <use xlink:href="#m9fafe41298" x="357.92625" y="196.174524" style="fill: #9467bd; stroke: #9467bd"/>
     <use xlink:href="#m9fafe41298" x="405.712235" y="160.638155" style="fill: #9467bd; stroke: #9467bd"/>
     <use xlink:href="#m9fafe41298" x="453.49822" y="125.066947" style="fill: #9467bd; stroke: #9467bd"/>
     <use xlink:href="#m9fafe41298" x="501.284205" y="89.908071" style="fill: #9467bd; stroke: #9467bd"/>
     <use xlink:href="#m9fafe41298" x="549.070189" y="55.176646" style="fill: #9467bd; stroke: #9467bd"/>
     <use xlink:href="#m9fafe41298" x="596.856174" y="42.081153" style="fill: #9467bd; stroke: #9467bd"/>
     <use xlink:href="#m9fafe41298" x="644.642159" y="54.223466" style="fill: #9467bd; stroke: #9467bd"/>
    </g>
   </g>
   <g id="line2d_46">
    <path d="M 71.210341 338.26317 
L 118.996326 332.357939 
L 166.782311 315.680399 
L 214.568295 289.353663 
L 262.35428 256.282366 
L 310.140265 230.221857 
L 357.92625 194.821827 
L 405.712235 158.987381 
L 453.49822 121.631751 
L 501.284205 87.967617 
L 549.070189 52.145422 
L 596.856174 38.884536 
L 644.642159 53.688479 
" clip-path="url(#pdded38d33c)" style="fill: none; stroke: #9467bd; stroke-width: 2; stroke-linecap: square"/>
    <defs>
     <path id="m2a00388089" d="M -3 3 
L 3 3 
L 3 -3 
L -3 -3 
z
" style="stroke: #9467bd; stroke-linejoin: miter"/>
    </defs>
    <g clip-path="url(#pdded38d33c)">
     <use xlink:href="#m2a00388089" x="71.210341" y="338.26317" style="fill: #9467bd; stroke: #9467bd; stroke-linejoin: miter"/>
     <use xlink:href="#m2a00388089" x="118.996326" y="332.357939" style="fill: #9467bd; stroke: #9467bd; stroke-linejoin: miter"/>
     <use xlink:href="#m2a00388089" x="166.782311" y="315.680399" style="fill: #9467bd; stroke: #9467bd; stroke-linejoin: miter"/>
     <use xlink:href="#m2a00388089" x="214.568295" y="289.353663" style="fill: #9467bd; stroke: #9467bd; stroke-linejoin: miter"/>
     <use xlink:href="#m2a00388089" x="262.35428" y="256.282366" style="fill: #9467bd; stroke: #9467bd; stroke-linejoin: miter"/>
     <use xlink:href="#m2a00388089" x="310.140265" y="230.221857" style="fill: #9467bd; stroke: #9467bd; stroke-linejoin: miter"/>
     <use xlink:href="#m2a00388089" x="357.92625" y="194.821827" style="fill: #9467bd; stroke: #9467bd; stroke-linejoin: miter"/>
     <use xlink:href="#m2a00388089" x="405.712235" y="158.987381" style="fill: #9467bd; stroke: #9467bd; stroke-linejoin: miter"/>
     <use xlink:href="#m2a00388089" x="453.49822" y="121.631751" style="fill: #9467bd; stroke: #9467bd; stroke-linejoin: miter"/>
     <use xlink:href="#m2a00388089" x="501.284205" y="87.967617" style="fill: #9467bd; stroke: #9467bd; stroke-linejoin: miter"/>
     <use xlink:href="#m2a00388089" x="549.070189" y="52.145422" style="fill: #9467bd; stroke: #9467bd; stroke-linejoin: miter"/>
     <use xlink:href="#m2a00388089" x="596.856174" y="38.884536" style="fill: #9467bd; stroke: #9467bd; stroke-linejoin: miter"/>
     <use xlink:href="#m2a00388089" x="644.642159" y="53.688479" style="fill: #9467bd; stroke: #9467bd; stroke-linejoin: miter"/>
    </g>
   </g>
   <g id="patch_3">
    <path d="M 42.53875 344.221812 
L 42.53875 23.837812 
" style="fill: none; stroke: #000000; stroke-width: 0.8; stroke-linejoin: miter; stroke-linecap: square"/>
   </g>
   <g id="patch_4">
    <path d="M 673.31375 344.221812 
L 673.31375 23.837812 
" style="fill: none; stroke: #000000; stroke-width: 0.8; stroke-linejoin: miter; stroke-linecap: square"/>
   </g>
   <g id="patch_5">
    <path d="M 42.53875 344.221812 
L 673.31375 344.221812 
" style="fill: none; stroke: #000000; stroke-width: 0.8; stroke-linejoin: miter; stroke-linecap: square"/>
   </g>
   <g id="patch_6">
    <path d="M 42.53875 23.837812 
L 673.31375 23.837812 
" style="fill: none; stroke: #000000; stroke-width: 0.8; stroke-linejoin: miter; stroke-linecap: square"/>
   </g>
   <g id="text_21">
    <!-- PD Utilisation: CompCert vs C -->
    <g transform="translate(240.980312 17.837812) scale(0.14 -0.14)">
     <defs>
      <path id="DejaVuSans-Bold-50" d="M 588 4666 
L 2584 4666 
Q 3475 4666 3951 4270 
Q 4428 3875 4428 3144 
Q 4428 2409 3951 2014 
Q 3475 1619 2584 1619 
L 1791 1619 
L 1791 0 
L 588 0 
L 588 4666 
z
M 1791 3794 
L 1791 2491 
L 2456 2491 
Q 2806 2491 2997 2661 
Q 3188 2831 3188 3144 
Q 3188 3456 2997 3625 
Q 2806 3794 2456 3794 
L 1791 3794 
z
" transform="scale(0.015625)"/>
      <path id="DejaVuSans-Bold-44" d="M 1791 3756 
L 1791 909 
L 2222 909 
Q 2959 909 3348 1275 
Q 3738 1641 3738 2338 
Q 3738 3031 3350 3393 
Q 2963 3756 2222 3756 
L 1791 3756 
z
M 588 4666 
L 1856 4666 
Q 2919 4666 3439 4514 
Q 3959 4363 4331 4000 
Q 4659 3684 4818 3271 
Q 4978 2859 4978 2338 
Q 4978 1809 4818 1395 
Q 4659 981 4331 666 
Q 3956 303 3431 151 
Q 2906 0 1856 0 
L 588 0 
L 588 4666 
z
" transform="scale(0.015625)"/>
      <path id="DejaVuSans-Bold-20" transform="scale(0.015625)"/>
      <path id="DejaVuSans-Bold-55" d="M 588 4666 
L 1791 4666 
L 1791 1869 
Q 1791 1291 1980 1042 
Q 2169 794 2597 794 
Q 3028 794 3217 1042 
Q 3406 1291 3406 1869 
L 3406 4666 
L 4609 4666 
L 4609 1869 
Q 4609 878 4112 393 
Q 3616 -91 2597 -91 
Q 1581 -91 1084 393 
Q 588 878 588 1869 
L 588 4666 
z
" transform="scale(0.015625)"/>
      <path id="DejaVuSans-Bold-74" d="M 1759 4494 
L 1759 3500 
L 2913 3500 
L 2913 2700 
L 1759 2700 
L 1759 1216 
Q 1759 972 1856 886 
Q 1953 800 2241 800 
L 2816 800 
L 2816 0 
L 1856 0 
Q 1194 0 917 276 
Q 641 553 641 1216 
L 641 2700 
L 84 2700 
L 84 3500 
L 641 3500 
L 641 4494 
L 1759 4494 
z
" transform="scale(0.015625)"/>
      <path id="DejaVuSans-Bold-69" d="M 538 3500 
L 1656 3500 
L 1656 0 
L 538 0 
L 538 3500 
z
M 538 4863 
L 1656 4863 
L 1656 3950 
L 538 3950 
L 538 4863 
z
" transform="scale(0.015625)"/>
      <path id="DejaVuSans-Bold-6c" d="M 538 4863 
L 1656 4863 
L 1656 0 
L 538 0 
L 538 4863 
z
" transform="scale(0.015625)"/>
      <path id="DejaVuSans-Bold-73" d="M 3272 3391 
L 3272 2541 
Q 2913 2691 2578 2766 
Q 2244 2841 1947 2841 
Q 1628 2841 1473 2761 
Q 1319 2681 1319 2516 
Q 1319 2381 1436 2309 
Q 1553 2238 1856 2203 
L 2053 2175 
Q 2913 2066 3209 1816 
Q 3506 1566 3506 1031 
Q 3506 472 3093 190 
Q 2681 -91 1863 -91 
Q 1516 -91 1145 -36 
Q 775 19 384 128 
L 384 978 
Q 719 816 1070 734 
Q 1422 653 1784 653 
Q 2113 653 2278 743 
Q 2444 834 2444 1013 
Q 2444 1163 2330 1236 
Q 2216 1309 1875 1350 
L 1678 1375 
Q 931 1469 631 1722 
Q 331 1975 331 2491 
Q 331 3047 712 3315 
Q 1094 3584 1881 3584 
Q 2191 3584 2531 3537 
Q 2872 3491 3272 3391 
z
" transform="scale(0.015625)"/>
      <path id="DejaVuSans-Bold-61" d="M 2106 1575 
Q 1756 1575 1579 1456 
Q 1403 1338 1403 1106 
Q 1403 894 1545 773 
Q 1688 653 1941 653 
Q 2256 653 2472 879 
Q 2688 1106 2688 1447 
L 2688 1575 
L 2106 1575 
z
M 3816 1997 
L 3816 0 
L 2688 0 
L 2688 519 
Q 2463 200 2181 54 
Q 1900 -91 1497 -91 
Q 953 -91 614 226 
Q 275 544 275 1050 
Q 275 1666 698 1953 
Q 1122 2241 2028 2241 
L 2688 2241 
L 2688 2328 
Q 2688 2594 2478 2717 
Q 2269 2841 1825 2841 
Q 1466 2841 1156 2769 
Q 847 2697 581 2553 
L 581 3406 
Q 941 3494 1303 3539 
Q 1666 3584 2028 3584 
Q 2975 3584 3395 3211 
Q 3816 2838 3816 1997 
z
" transform="scale(0.015625)"/>
      <path id="DejaVuSans-Bold-6f" d="M 2203 2784 
Q 1831 2784 1636 2517 
Q 1441 2250 1441 1747 
Q 1441 1244 1636 976 
Q 1831 709 2203 709 
Q 2569 709 2762 976 
Q 2956 1244 2956 1747 
Q 2956 2250 2762 2517 
Q 2569 2784 2203 2784 
z
M 2203 3584 
Q 3106 3584 3614 3096 
Q 4122 2609 4122 1747 
Q 4122 884 3614 396 
Q 3106 -91 2203 -91 
Q 1297 -91 786 396 
Q 275 884 275 1747 
Q 275 2609 786 3096 
Q 1297 3584 2203 3584 
z
" transform="scale(0.015625)"/>
      <path id="DejaVuSans-Bold-6e" d="M 4056 2131 
L 4056 0 
L 2931 0 
L 2931 347 
L 2931 1631 
Q 2931 2084 2911 2256 
Q 2891 2428 2841 2509 
Q 2775 2619 2662 2680 
Q 2550 2741 2406 2741 
Q 2056 2741 1856 2470 
Q 1656 2200 1656 1722 
L 1656 0 
L 538 0 
L 538 3500 
L 1656 3500 
L 1656 2988 
Q 1909 3294 2193 3439 
Q 2478 3584 2822 3584 
Q 3428 3584 3742 3212 
Q 4056 2841 4056 2131 
z
" transform="scale(0.015625)"/>
      <path id="DejaVuSans-Bold-3a" d="M 716 3500 
L 1844 3500 
L 1844 2291 
L 716 2291 
L 716 3500 
z
M 716 1209 
L 1844 1209 
L 1844 0 
L 716 0 
L 716 1209 
z
" transform="scale(0.015625)"/>
      <path id="DejaVuSans-Bold-43" d="M 4288 256 
Q 3956 84 3597 -3 
Q 3238 -91 2847 -91 
Q 1681 -91 1000 561 
Q 319 1213 319 2328 
Q 319 3447 1000 4098 
Q 1681 4750 2847 4750 
Q 3238 4750 3597 4662 
Q 3956 4575 4288 4403 
L 4288 3438 
Q 3953 3666 3628 3772 
Q 3303 3878 2944 3878 
Q 2300 3878 1931 3465 
Q 1563 3053 1563 2328 
Q 1563 1606 1931 1193 
Q 2300 781 2944 781 
Q 3303 781 3628 887 
Q 3953 994 4288 1222 
L 4288 256 
z
" transform="scale(0.015625)"/>
      <path id="DejaVuSans-Bold-6d" d="M 3781 2919 
Q 3994 3244 4286 3414 
Q 4578 3584 4928 3584 
Q 5531 3584 5847 3212 
Q 6163 2841 6163 2131 
L 6163 0 
L 5038 0 
L 5038 1825 
Q 5041 1866 5042 1909 
Q 5044 1953 5044 2034 
Q 5044 2406 4934 2573 
Q 4825 2741 4581 2741 
Q 4263 2741 4089 2478 
Q 3916 2216 3909 1719 
L 3909 0 
L 2784 0 
L 2784 1825 
Q 2784 2406 2684 2573 
Q 2584 2741 2328 2741 
Q 2006 2741 1831 2477 
Q 1656 2213 1656 1722 
L 1656 0 
L 531 0 
L 531 3500 
L 1656 3500 
L 1656 2988 
Q 1863 3284 2130 3434 
Q 2397 3584 2719 3584 
Q 3081 3584 3359 3409 
Q 3638 3234 3781 2919 
z
" transform="scale(0.015625)"/>
      <path id="DejaVuSans-Bold-70" d="M 1656 506 
L 1656 -1331 
L 538 -1331 
L 538 3500 
L 1656 3500 
L 1656 2988 
Q 1888 3294 2169 3439 
Q 2450 3584 2816 3584 
Q 3463 3584 3878 3070 
Q 4294 2556 4294 1747 
Q 4294 938 3878 423 
Q 3463 -91 2816 -91 
Q 2450 -91 2169 54 
Q 1888 200 1656 506 
z
M 2400 2772 
Q 2041 2772 1848 2508 
Q 1656 2244 1656 1747 
Q 1656 1250 1848 986 
Q 2041 722 2400 722 
Q 2759 722 2948 984 
Q 3138 1247 3138 1747 
Q 3138 2247 2948 2509 
Q 2759 2772 2400 2772 
z
" transform="scale(0.015625)"/>
      <path id="DejaVuSans-Bold-65" d="M 4031 1759 
L 4031 1441 
L 1416 1441 
Q 1456 1047 1700 850 
Q 1944 653 2381 653 
Q 2734 653 3104 758 
Q 3475 863 3866 1075 
L 3866 213 
Q 3469 63 3072 -14 
Q 2675 -91 2278 -91 
Q 1328 -91 801 392 
Q 275 875 275 1747 
Q 275 2603 792 3093 
Q 1309 3584 2216 3584 
Q 3041 3584 3536 3087 
Q 4031 2591 4031 1759 
z
M 2881 2131 
Q 2881 2450 2695 2645 
Q 2509 2841 2209 2841 
Q 1884 2841 1681 2658 
Q 1478 2475 1428 2131 
L 2881 2131 
z
" transform="scale(0.015625)"/>
      <path id="DejaVuSans-Bold-72" d="M 3138 2547 
Q 2991 2616 2845 2648 
Q 2700 2681 2553 2681 
Q 2122 2681 1889 2404 
Q 1656 2128 1656 1613 
L 1656 0 
L 538 0 
L 538 3500 
L 1656 3500 
L 1656 2925 
Q 1872 3269 2151 3426 
Q 2431 3584 2822 3584 
Q 2878 3584 2943 3579 
Q 3009 3575 3134 3559 
L 3138 2547 
z
" transform="scale(0.015625)"/>
      <path id="DejaVuSans-Bold-76" d="M 97 3500 
L 1216 3500 
L 2088 1081 
L 2956 3500 
L 4078 3500 
L 2700 0 
L 1472 0 
L 97 3500 
z
" transform="scale(0.015625)"/>
     </defs>
     <use xlink:href="#DejaVuSans-Bold-50"/>
     <use xlink:href="#DejaVuSans-Bold-44" transform="translate(73.291016 0)"/>
     <use xlink:href="#DejaVuSans-Bold-20" transform="translate(156.298828 0)"/>
     <use xlink:href="#DejaVuSans-Bold-55" transform="translate(191.113281 0)"/>
     <use xlink:href="#DejaVuSans-Bold-74" transform="translate(272.314453 0)"/>
     <use xlink:href="#DejaVuSans-Bold-69" transform="translate(320.117188 0)"/>
     <use xlink:href="#DejaVuSans-Bold-6c" transform="translate(354.394531 0)"/>
     <use xlink:href="#DejaVuSans-Bold-69" transform="translate(388.671875 0)"/>
     <use xlink:href="#DejaVuSans-Bold-73" transform="translate(422.949219 0)"/>
     <use xlink:href="#DejaVuSans-Bold-61" transform="translate(482.470703 0)"/>
     <use xlink:href="#DejaVuSans-Bold-74" transform="translate(549.951172 0)"/>
     <use xlink:href="#DejaVuSans-Bold-69" transform="translate(597.753906 0)"/>
     <use xlink:href="#DejaVuSans-Bold-6f" transform="translate(632.03125 0)"/>
     <use xlink:href="#DejaVuSans-Bold-6e" transform="translate(700.732422 0)"/>
     <use xlink:href="#DejaVuSans-Bold-3a" transform="translate(771.923828 0)"/>
     <use xlink:href="#DejaVuSans-Bold-20" transform="translate(811.914062 0)"/>
     <use xlink:href="#DejaVuSans-Bold-43" transform="translate(846.728516 0)"/>
     <use xlink:href="#DejaVuSans-Bold-6f" transform="translate(920.117188 0)"/>
     <use xlink:href="#DejaVuSans-Bold-6d" transform="translate(988.818359 0)"/>
     <use xlink:href="#DejaVuSans-Bold-70" transform="translate(1093.017578 0)"/>
     <use xlink:href="#DejaVuSans-Bold-43" transform="translate(1164.599609 0)"/>
     <use xlink:href="#DejaVuSans-Bold-65" transform="translate(1237.988281 0)"/>
     <use xlink:href="#DejaVuSans-Bold-72" transform="translate(1305.810547 0)"/>
     <use xlink:href="#DejaVuSans-Bold-74" transform="translate(1355.126953 0)"/>
     <use xlink:href="#DejaVuSans-Bold-20" transform="translate(1402.929688 0)"/>
     <use xlink:href="#DejaVuSans-Bold-76" transform="translate(1437.744141 0)"/>
     <use xlink:href="#DejaVuSans-Bold-73" transform="translate(1502.929688 0)"/>
     <use xlink:href="#DejaVuSans-Bold-20" transform="translate(1562.451172 0)"/>
     <use xlink:href="#DejaVuSans-Bold-43" transform="translate(1597.265625 0)"/>
    </g>
   </g>
   <g id="legend_1">
    <g id="patch_7">
     <path d="M 49.53875 61.194062 
L 131.896563 61.194062 
Q 133.896563 61.194062 133.896563 59.194062 
L 133.896563 30.837812 
Q 133.896563 28.837812 131.896563 28.837812 
L 49.53875 28.837812 
Q 47.53875 28.837812 47.53875 30.837812 
L 47.53875 59.194062 
Q 47.53875 61.194062 49.53875 61.194062 
z
" style="fill: #ffffff; opacity: 0.8; stroke: #cccccc; stroke-linejoin: miter"/>
    </g>
    <g id="line2d_47">
     <path d="M 51.53875 36.93625 
L 61.53875 36.93625 
L 71.53875 36.93625 
" style="fill: none; stroke-dasharray: 5.55,2.4; stroke-dashoffset: 0; stroke: #000000; stroke-width: 1.5"/>
     <defs>
      <path id="me6ca6f94c8" d="M 0 3 
C 0.795609 3 1.55874 2.683901 2.12132 2.12132 
C 2.683901 1.55874 3 0.795609 3 0 
C 3 -0.795609 2.683901 -1.55874 2.12132 -2.12132 
C 1.55874 -2.683901 0.795609 -3 0 -3 
C -0.795609 -3 -1.55874 -2.683901 -2.12132 -2.12132 
C -2.683901 -1.55874 -3 -0.795609 -3 0 
C -3 0.795609 -2.683901 1.55874 -2.12132 2.12132 
C -1.55874 2.683901 -0.795609 3 0 3 
z
" style="stroke: #000000"/>
     </defs>
     <g>
      <use xlink:href="#me6ca6f94c8" x="61.53875" y="36.93625" style="stroke: #000000"/>
     </g>
    </g>
    <g id="text_22">
     <!-- CompCert -->
     <g transform="translate(79.53875 40.43625) scale(0.1 -0.1)">
      <defs>
       <path id="DejaVuSans-6d" d="M 3328 2828 
Q 3544 3216 3844 3400 
Q 4144 3584 4550 3584 
Q 5097 3584 5394 3201 
Q 5691 2819 5691 2113 
L 5691 0 
L 5113 0 
L 5113 2094 
Q 5113 2597 4934 2840 
Q 4756 3084 4391 3084 
Q 3944 3084 3684 2787 
Q 3425 2491 3425 1978 
L 3425 0 
L 2847 0 
L 2847 2094 
Q 2847 2600 2669 2842 
Q 2491 3084 2119 3084 
Q 1678 3084 1418 2786 
Q 1159 2488 1159 1978 
L 1159 0 
L 581 0 
L 581 3500 
L 1159 3500 
L 1159 2956 
Q 1356 3278 1631 3431 
Q 1906 3584 2284 3584 
Q 2666 3584 2933 3390 
Q 3200 3197 3328 2828 
z
" transform="scale(0.015625)"/>
      </defs>
      <use xlink:href="#DejaVuSans-43"/>
      <use xlink:href="#DejaVuSans-6f" transform="translate(69.824219 0)"/>
      <use xlink:href="#DejaVuSans-6d" transform="translate(131.005859 0)"/>
      <use xlink:href="#DejaVuSans-70" transform="translate(228.417969 0)"/>
      <use xlink:href="#DejaVuSans-43" transform="translate(291.894531 0)"/>
      <use xlink:href="#DejaVuSans-65" transform="translate(361.71875 0)"/>
      <use xlink:href="#DejaVuSans-72" transform="translate(423.242188 0)"/>
      <use xlink:href="#DejaVuSans-74" transform="translate(464.355469 0)"/>
     </g>
    </g>
    <g id="line2d_48">
     <path d="M 51.53875 51.614375 
L 61.53875 51.614375 
L 71.53875 51.614375 
" style="fill: none; stroke: #000000; stroke-width: 1.5; stroke-linecap: square"/>
     <defs>
      <path id="mc6f01a2048" d="M -3 3 
L 3 3 
L 3 -3 
L -3 -3 
z
" style="stroke: #000000; stroke-linejoin: miter"/>
     </defs>
     <g>
      <use xlink:href="#mc6f01a2048" x="61.53875" y="51.614375" style="stroke: #000000; stroke-linejoin: miter"/>
     </g>
    </g>
    <g id="text_23">
     <!-- C -->
     <g transform="translate(79.53875 55.114375) scale(0.1 -0.1)">
      <use xlink:href="#DejaVuSans-43"/>
     </g>
    </g>
   </g>
   <g id="legend_2">
    <g id="patch_8">
     <path d="M 48.421562 415.235662 
L 667.430938 415.235662 
Q 669.430938 415.235662 669.430938 413.235662 
L 669.430938 399.279412 
Q 669.430938 397.279412 667.430938 397.279412 
L 48.421562 397.279412 
Q 46.421562 397.279412 46.421562 399.279412 
L 46.421562 413.235662 
Q 46.421562 415.235662 48.421562 415.235662 
z
" style="fill: #ffffff; opacity: 0.8; stroke: #cccccc; stroke-linejoin: miter"/>
    </g>
    <g id="line2d_49">
     <path d="M 50.421562 405.37785 
L 60.421562 405.37785 
L 70.421562 405.37785 
" style="fill: none; stroke: #1f77b4; stroke-width: 2.5; stroke-linecap: square"/>
    </g>
    <g id="text_24">
     <!-- net_virt_tx (3) -->
     <g transform="translate(78.421562 408.87785) scale(0.1 -0.1)">
      <defs>
       <path id="DejaVuSans-5f" d="M 3263 -1063 
L 3263 -1509 
L -63 -1509 
L -63 -1063 
L 3263 -1063 
z
" transform="scale(0.015625)"/>
       <path id="DejaVuSans-76" d="M 191 3500 
L 800 3500 
L 1894 563 
L 2988 3500 
L 3597 3500 
L 2284 0 
L 1503 0 
L 191 3500 
z
" transform="scale(0.015625)"/>
       <path id="DejaVuSans-78" d="M 3513 3500 
L 2247 1797 
L 3578 0 
L 2900 0 
L 1881 1375 
L 863 0 
L 184 0 
L 1544 1831 
L 300 3500 
L 978 3500 
L 1906 2253 
L 2834 3500 
L 3513 3500 
z
" transform="scale(0.015625)"/>
      </defs>
      <use xlink:href="#DejaVuSans-6e"/>
      <use xlink:href="#DejaVuSans-65" transform="translate(63.378906 0)"/>
      <use xlink:href="#DejaVuSans-74" transform="translate(124.902344 0)"/>
      <use xlink:href="#DejaVuSans-5f" transform="translate(164.111328 0)"/>
      <use xlink:href="#DejaVuSans-76" transform="translate(214.111328 0)"/>
      <use xlink:href="#DejaVuSans-69" transform="translate(273.291016 0)"/>
      <use xlink:href="#DejaVuSans-72" transform="translate(301.074219 0)"/>
      <use xlink:href="#DejaVuSans-74" transform="translate(342.1875 0)"/>
      <use xlink:href="#DejaVuSans-5f" transform="translate(381.396484 0)"/>
      <use xlink:href="#DejaVuSans-74" transform="translate(431.396484 0)"/>
      <use xlink:href="#DejaVuSans-78" transform="translate(470.605469 0)"/>
      <use xlink:href="#DejaVuSans-20" transform="translate(529.785156 0)"/>
      <use xlink:href="#DejaVuSans-28" transform="translate(561.572266 0)"/>
      <use xlink:href="#DejaVuSans-33" transform="translate(600.585938 0)"/>
      <use xlink:href="#DejaVuSans-29" transform="translate(664.208984 0)"/>
     </g>
    </g>
    <g id="line2d_50">
     <path d="M 168.743437 405.37785 
L 178.743437 405.37785 
L 188.743437 405.37785 
" style="fill: none; stroke: #ff7f0e; stroke-width: 2.5; stroke-linecap: square"/>
    </g>
    <g id="text_25">
     <!-- net_virt_rx (4) -->
     <g transform="translate(196.743437 408.87785) scale(0.1 -0.1)">
      <use xlink:href="#DejaVuSans-6e"/>
      <use xlink:href="#DejaVuSans-65" transform="translate(63.378906 0)"/>
      <use xlink:href="#DejaVuSans-74" transform="translate(124.902344 0)"/>
      <use xlink:href="#DejaVuSans-5f" transform="translate(164.111328 0)"/>
      <use xlink:href="#DejaVuSans-76" transform="translate(214.111328 0)"/>
      <use xlink:href="#DejaVuSans-69" transform="translate(273.291016 0)"/>
      <use xlink:href="#DejaVuSans-72" transform="translate(301.074219 0)"/>
      <use xlink:href="#DejaVuSans-74" transform="translate(342.1875 0)"/>
      <use xlink:href="#DejaVuSans-5f" transform="translate(381.396484 0)"/>
      <use xlink:href="#DejaVuSans-72" transform="translate(431.396484 0)"/>
      <use xlink:href="#DejaVuSans-78" transform="translate(469.884766 0)"/>
      <use xlink:href="#DejaVuSans-20" transform="translate(529.064453 0)"/>
      <use xlink:href="#DejaVuSans-28" transform="translate(560.851562 0)"/>
      <use xlink:href="#DejaVuSans-34" transform="translate(599.865234 0)"/>
      <use xlink:href="#DejaVuSans-29" transform="translate(663.488281 0)"/>
     </g>
    </g>
    <g id="line2d_51">
     <path d="M 286.993437 405.37785 
L 296.993437 405.37785 
L 306.993437 405.37785 
" style="fill: none; stroke: #2ca02c; stroke-width: 2.5; stroke-linecap: square"/>
    </g>
    <g id="text_26">
     <!-- ethernet_driver (2) -->
     <g transform="translate(314.993437 408.87785) scale(0.1 -0.1)">
      <defs>
       <path id="DejaVuSans-64" d="M 2906 2969 
L 2906 4863 
L 3481 4863 
L 3481 0 
L 2906 0 
L 2906 525 
Q 2725 213 2448 61 
Q 2172 -91 1784 -91 
Q 1150 -91 751 415 
Q 353 922 353 1747 
Q 353 2572 751 3078 
Q 1150 3584 1784 3584 
Q 2172 3584 2448 3432 
Q 2725 3281 2906 2969 
z
M 947 1747 
Q 947 1113 1208 752 
Q 1469 391 1925 391 
Q 2381 391 2643 752 
Q 2906 1113 2906 1747 
Q 2906 2381 2643 2742 
Q 2381 3103 1925 3103 
Q 1469 3103 1208 2742 
Q 947 2381 947 1747 
z
" transform="scale(0.015625)"/>
      </defs>
      <use xlink:href="#DejaVuSans-65"/>
      <use xlink:href="#DejaVuSans-74" transform="translate(61.523438 0)"/>
      <use xlink:href="#DejaVuSans-68" transform="translate(100.732422 0)"/>
      <use xlink:href="#DejaVuSans-65" transform="translate(164.111328 0)"/>
      <use xlink:href="#DejaVuSans-72" transform="translate(225.634766 0)"/>
      <use xlink:href="#DejaVuSans-6e" transform="translate(264.998047 0)"/>
      <use xlink:href="#DejaVuSans-65" transform="translate(328.376953 0)"/>
      <use xlink:href="#DejaVuSans-74" transform="translate(389.900391 0)"/>
      <use xlink:href="#DejaVuSans-5f" transform="translate(429.109375 0)"/>
      <use xlink:href="#DejaVuSans-64" transform="translate(479.109375 0)"/>
      <use xlink:href="#DejaVuSans-72" transform="translate(542.585938 0)"/>
      <use xlink:href="#DejaVuSans-69" transform="translate(583.699219 0)"/>
      <use xlink:href="#DejaVuSans-76" transform="translate(611.482422 0)"/>
      <use xlink:href="#DejaVuSans-65" transform="translate(670.662109 0)"/>
      <use xlink:href="#DejaVuSans-72" transform="translate(732.185547 0)"/>
      <use xlink:href="#DejaVuSans-20" transform="translate(773.298828 0)"/>
      <use xlink:href="#DejaVuSans-28" transform="translate(805.085938 0)"/>
      <use xlink:href="#DejaVuSans-32" transform="translate(844.099609 0)"/>
      <use xlink:href="#DejaVuSans-29" transform="translate(907.722656 0)"/>
     </g>
    </g>
    <g id="line2d_52">
     <path d="M 429.668437 405.37785 
L 439.668437 405.37785 
L 449.668437 405.37785 
" style="fill: none; stroke: #d62728; stroke-width: 2.5; stroke-linecap: square"/>
    </g>
    <g id="text_27">
     <!-- client0_net_copier (6) -->
     <g transform="translate(457.668437 408.87785) scale(0.1 -0.1)">
      <use xlink:href="#DejaVuSans-63"/>
      <use xlink:href="#DejaVuSans-6c" transform="translate(54.980469 0)"/>
      <use xlink:href="#DejaVuSans-69" transform="translate(82.763672 0)"/>
      <use xlink:href="#DejaVuSans-65" transform="translate(110.546875 0)"/>
      <use xlink:href="#DejaVuSans-6e" transform="translate(172.070312 0)"/>
      <use xlink:href="#DejaVuSans-74" transform="translate(235.449219 0)"/>
      <use xlink:href="#DejaVuSans-30" transform="translate(274.658203 0)"/>
      <use xlink:href="#DejaVuSans-5f" transform="translate(338.28125 0)"/>
      <use xlink:href="#DejaVuSans-6e" transform="translate(388.28125 0)"/>
      <use xlink:href="#DejaVuSans-65" transform="translate(451.660156 0)"/>
      <use xlink:href="#DejaVuSans-74" transform="translate(513.183594 0)"/>
      <use xlink:href="#DejaVuSans-5f" transform="translate(552.392578 0)"/>
      <use xlink:href="#DejaVuSans-63" transform="translate(602.392578 0)"/>
      <use xlink:href="#DejaVuSans-6f" transform="translate(657.373047 0)"/>
      <use xlink:href="#DejaVuSans-70" transform="translate(718.554688 0)"/>
      <use xlink:href="#DejaVuSans-69" transform="translate(782.03125 0)"/>
      <use xlink:href="#DejaVuSans-65" transform="translate(809.814453 0)"/>
      <use xlink:href="#DejaVuSans-72" transform="translate(871.337891 0)"/>
      <use xlink:href="#DejaVuSans-20" transform="translate(912.451172 0)"/>
      <use xlink:href="#DejaVuSans-28" transform="translate(944.238281 0)"/>
      <use xlink:href="#DejaVuSans-36" transform="translate(983.251953 0)"/>
      <use xlink:href="#DejaVuSans-29" transform="translate(1046.875 0)"/>
     </g>
    </g>
    <g id="line2d_53">
     <path d="M 586.259063 405.37785 
L 596.259063 405.37785 
L 606.259063 405.37785 
" style="fill: none; stroke: #9467bd; stroke-width: 2.5; stroke-linecap: square"/>
    </g>
    <g id="text_28">
     <!-- client0 (5) -->
     <g transform="translate(614.259063 408.87785) scale(0.1 -0.1)">
      <use xlink:href="#DejaVuSans-63"/>
      <use xlink:href="#DejaVuSans-6c" transform="translate(54.980469 0)"/>
      <use xlink:href="#DejaVuSans-69" transform="translate(82.763672 0)"/>
      <use xlink:href="#DejaVuSans-65" transform="translate(110.546875 0)"/>
      <use xlink:href="#DejaVuSans-6e" transform="translate(172.070312 0)"/>
      <use xlink:href="#DejaVuSans-74" transform="translate(235.449219 0)"/>
      <use xlink:href="#DejaVuSans-30" transform="translate(274.658203 0)"/>
      <use xlink:href="#DejaVuSans-20" transform="translate(338.28125 0)"/>
      <use xlink:href="#DejaVuSans-28" transform="translate(370.068359 0)"/>
      <use xlink:href="#DejaVuSans-35" transform="translate(409.082031 0)"/>
      <use xlink:href="#DejaVuSans-29" transform="translate(472.705078 0)"/>
     </g>
    </g>
   </g>
  </g>
 </g>
 <defs>
  <clipPath id="pdded38d33c">
   <rect x="42.53875" y="23.837812" width="630.775" height="320.384"/>
  </clipPath>
 </defs>
</svg>
