<?xml version="1.0" encoding="utf-8" standalone="no"?>
<!DOCTYPE svg PUBLIC "-//W3C//DTD SVG 1.1//EN"
  "http://www.w3.org/Graphics/SVG/1.1/DTD/svg11.dtd">
<svg xmlns:xlink="http://www.w3.org/1999/xlink" width="712.476875pt" height="424.554062pt" viewBox="0 0 712.476875 424.554062" xmlns="http://www.w3.org/2000/svg" version="1.1">
 <metadata>
  <rdf:RDF xmlns:dc="http://purl.org/dc/elements/1.1/" xmlns:cc="http://creativecommons.org/ns#" xmlns:rdf="http://www.w3.org/1999/02/22-rdf-syntax-ns#">
   <cc:Work>
    <dc:type rdf:resource="http://purl.org/dc/dcmitype/StillImage"/>
    <dc:date>2025-04-04T12:13:48.472122</dc:date>
    <dc:format>image/svg+xml</dc:format>
    <dc:creator>
     <cc:Agent>
      <dc:title>Matplotlib v3.10.1, https://matplotlib.org/</dc:title>
     </cc:Agent>
    </dc:creator>
   </cc:Work>
  </rdf:RDF>
 </metadata>
 <defs>
  <style type="text/css">*{stroke-linejoin: round; stroke-linecap: butt}</style>
 </defs>
 <g id="figure_1">
  <g id="patch_1">
   <path d="M 0 424.554062 
L 712.476875 424.554062 
L 712.476875 0 
L 0 0 
z
" style="fill: #ffffff"/>
  </g>
  <g id="axes_1">
   <g id="patch_2">
    <path d="M 47.933438 386.997812 
L 664.543438 386.997812 
L 664.543438 32.837812 
L 47.933438 32.837812 
z
" style="fill: #ffffff"/>
   </g>
   <g id="matplotlib.axis_1">
    <g id="xtick_1">
     <g id="line2d_1">
      <path d="M 75.961165 386.997812 
L 75.961165 32.837812 
" clip-path="url(#p7f23580d60)" style="fill: none; stroke-dasharray: 2.96,1.28; stroke-dashoffset: 0; stroke: #b0b0b0; stroke-opacity: 0.3; stroke-width: 0.8"/>
     </g>
     <g id="line2d_2">
      <defs>
       <path id="mbc0beaf0c7" d="M 0 0 
L 0 3.5 
" style="stroke: #000000; stroke-width: 0.8"/>
      </defs>
      <g>
       <use xlink:href="#mbc0beaf0c7" x="75.961165" y="386.997812" style="stroke: #000000; stroke-width: 0.8"/>
      </g>
     </g>
     <g id="text_1">
      <!-- 10 -->
      <g transform="translate(70.234915 400.836406) scale(0.09 -0.09)">
       <defs>
        <path id="DejaVuSans-31" d="M 794 531 
L 1825 531 
L 1825 4091 
L 703 3866 
L 703 4441 
L 1819 4666 
L 2450 4666 
L 2450 531 
L 3481 531 
L 3481 0 
L 794 0 
L 794 531 
z
" transform="scale(0.015625)"/>
        <path id="DejaVuSans-30" d="M 2034 4250 
Q 1547 4250 1301 3770 
Q 1056 3291 1056 2328 
Q 1056 1369 1301 889 
Q 1547 409 2034 409 
Q 2525 409 2770 889 
Q 3016 1369 3016 2328 
Q 3016 3291 2770 3770 
Q 2525 4250 2034 4250 
z
M 2034 4750 
Q 2819 4750 3233 4129 
Q 3647 3509 3647 2328 
Q 3647 1150 3233 529 
Q 2819 -91 2034 -91 
Q 1250 -91 836 529 
Q 422 1150 422 2328 
Q 422 3509 836 4129 
Q 1250 4750 2034 4750 
z
" transform="scale(0.015625)"/>
       </defs>
       <use xlink:href="#DejaVuSans-31"/>
       <use xlink:href="#DejaVuSans-30" transform="translate(63.623047 0)"/>
      </g>
     </g>
    </g>
    <g id="xtick_2">
     <g id="line2d_3">
      <path d="M 122.674044 386.997812 
L 122.674044 32.837812 
" clip-path="url(#p7f23580d60)" style="fill: none; stroke-dasharray: 2.96,1.28; stroke-dashoffset: 0; stroke: #b0b0b0; stroke-opacity: 0.3; stroke-width: 0.8"/>
     </g>
     <g id="line2d_4">
      <g>
       <use xlink:href="#mbc0beaf0c7" x="122.674044" y="386.997812" style="stroke: #000000; stroke-width: 0.8"/>
      </g>
     </g>
     <g id="text_2">
      <!-- 20 -->
      <g transform="translate(116.947794 400.836406) scale(0.09 -0.09)">
       <defs>
        <path id="DejaVuSans-32" d="M 1228 531 
L 3431 531 
L 3431 0 
L 469 0 
L 469 531 
Q 828 903 1448 1529 
Q 2069 2156 2228 2338 
Q 2531 2678 2651 2914 
Q 2772 3150 2772 3378 
Q 2772 3750 2511 3984 
Q 2250 4219 1831 4219 
Q 1534 4219 1204 4116 
Q 875 4013 500 3803 
L 500 4441 
Q 881 4594 1212 4672 
Q 1544 4750 1819 4750 
Q 2544 4750 2975 4387 
Q 3406 4025 3406 3419 
Q 3406 3131 3298 2873 
Q 3191 2616 2906 2266 
Q 2828 2175 2409 1742 
Q 1991 1309 1228 531 
z
" transform="scale(0.015625)"/>
       </defs>
       <use xlink:href="#DejaVuSans-32"/>
       <use xlink:href="#DejaVuSans-30" transform="translate(63.623047 0)"/>
      </g>
     </g>
    </g>
    <g id="xtick_3">
     <g id="line2d_5">
      <path d="M 169.386922 386.997812 
L 169.386922 32.837812 
" clip-path="url(#p7f23580d60)" style="fill: none; stroke-dasharray: 2.96,1.28; stroke-dashoffset: 0; stroke: #b0b0b0; stroke-opacity: 0.3; stroke-width: 0.8"/>
     </g>
     <g id="line2d_6">
      <g>
       <use xlink:href="#mbc0beaf0c7" x="169.386922" y="386.997812" style="stroke: #000000; stroke-width: 0.8"/>
      </g>
     </g>
     <g id="text_3">
      <!-- 50 -->
      <g transform="translate(163.660672 400.836406) scale(0.09 -0.09)">
       <defs>
        <path id="DejaVuSans-35" d="M 691 4666 
L 3169 4666 
L 3169 4134 
L 1269 4134 
L 1269 2991 
Q 1406 3038 1543 3061 
Q 1681 3084 1819 3084 
Q 2600 3084 3056 2656 
Q 3513 2228 3513 1497 
Q 3513 744 3044 326 
Q 2575 -91 1722 -91 
Q 1428 -91 1123 -41 
Q 819 9 494 109 
L 494 744 
Q 775 591 1075 516 
Q 1375 441 1709 441 
Q 2250 441 2565 725 
Q 2881 1009 2881 1497 
Q 2881 1984 2565 2268 
Q 2250 2553 1709 2553 
Q 1456 2553 1204 2497 
Q 953 2441 691 2322 
L 691 4666 
z
" transform="scale(0.015625)"/>
       </defs>
       <use xlink:href="#DejaVuSans-35"/>
       <use xlink:href="#DejaVuSans-30" transform="translate(63.623047 0)"/>
      </g>
     </g>
    </g>
    <g id="xtick_4">
     <g id="line2d_7">
      <path d="M 216.099801 386.997812 
L 216.099801 32.837812 
" clip-path="url(#p7f23580d60)" style="fill: none; stroke-dasharray: 2.96,1.28; stroke-dashoffset: 0; stroke: #b0b0b0; stroke-opacity: 0.3; stroke-width: 0.8"/>
     </g>
     <g id="line2d_8">
      <g>
       <use xlink:href="#mbc0beaf0c7" x="216.099801" y="386.997812" style="stroke: #000000; stroke-width: 0.8"/>
      </g>
     </g>
     <g id="text_4">
      <!-- 100 -->
      <g transform="translate(207.510426 400.836406) scale(0.09 -0.09)">
       <use xlink:href="#DejaVuSans-31"/>
       <use xlink:href="#DejaVuSans-30" transform="translate(63.623047 0)"/>
       <use xlink:href="#DejaVuSans-30" transform="translate(127.246094 0)"/>
      </g>
     </g>
    </g>
    <g id="xtick_5">
     <g id="line2d_9">
      <path d="M 262.81268 386.997812 
L 262.81268 32.837812 
" clip-path="url(#p7f23580d60)" style="fill: none; stroke-dasharray: 2.96,1.28; stroke-dashoffset: 0; stroke: #b0b0b0; stroke-opacity: 0.3; stroke-width: 0.8"/>
     </g>
     <g id="line2d_10">
      <g>
       <use xlink:href="#mbc0beaf0c7" x="262.81268" y="386.997812" style="stroke: #000000; stroke-width: 0.8"/>
      </g>
     </g>
     <g id="text_5">
      <!-- 200 -->
      <g transform="translate(254.223305 400.836406) scale(0.09 -0.09)">
       <use xlink:href="#DejaVuSans-32"/>
       <use xlink:href="#DejaVuSans-30" transform="translate(63.623047 0)"/>
       <use xlink:href="#DejaVuSans-30" transform="translate(127.246094 0)"/>
      </g>
     </g>
    </g>
    <g id="xtick_6">
     <g id="line2d_11">
      <path d="M 309.525559 386.997812 
L 309.525559 32.837812 
" clip-path="url(#p7f23580d60)" style="fill: none; stroke-dasharray: 2.96,1.28; stroke-dashoffset: 0; stroke: #b0b0b0; stroke-opacity: 0.3; stroke-width: 0.8"/>
     </g>
     <g id="line2d_12">
      <g>
       <use xlink:href="#mbc0beaf0c7" x="309.525559" y="386.997812" style="stroke: #000000; stroke-width: 0.8"/>
      </g>
     </g>
     <g id="text_6">
      <!-- 300 -->
      <g transform="translate(300.936184 400.836406) scale(0.09 -0.09)">
       <defs>
        <path id="DejaVuSans-33" d="M 2597 2516 
Q 3050 2419 3304 2112 
Q 3559 1806 3559 1356 
Q 3559 666 3084 287 
Q 2609 -91 1734 -91 
Q 1441 -91 1130 -33 
Q 819 25 488 141 
L 488 750 
Q 750 597 1062 519 
Q 1375 441 1716 441 
Q 2309 441 2620 675 
Q 2931 909 2931 1356 
Q 2931 1769 2642 2001 
Q 2353 2234 1838 2234 
L 1294 2234 
L 1294 2753 
L 1863 2753 
Q 2328 2753 2575 2939 
Q 2822 3125 2822 3475 
Q 2822 3834 2567 4026 
Q 2313 4219 1838 4219 
Q 1578 4219 1281 4162 
Q 984 4106 628 3988 
L 628 4550 
Q 988 4650 1302 4700 
Q 1616 4750 1894 4750 
Q 2613 4750 3031 4423 
Q 3450 4097 3450 3541 
Q 3450 3153 3228 2886 
Q 3006 2619 2597 2516 
z
" transform="scale(0.015625)"/>
       </defs>
       <use xlink:href="#DejaVuSans-33"/>
       <use xlink:href="#DejaVuSans-30" transform="translate(63.623047 0)"/>
       <use xlink:href="#DejaVuSans-30" transform="translate(127.246094 0)"/>
      </g>
     </g>
    </g>
    <g id="xtick_7">
     <g id="line2d_13">
      <path d="M 356.238438 386.997812 
L 356.238438 32.837812 
" clip-path="url(#p7f23580d60)" style="fill: none; stroke-dasharray: 2.96,1.28; stroke-dashoffset: 0; stroke: #b0b0b0; stroke-opacity: 0.3; stroke-width: 0.8"/>
     </g>
     <g id="line2d_14">
      <g>
       <use xlink:href="#mbc0beaf0c7" x="356.238438" y="386.997812" style="stroke: #000000; stroke-width: 0.8"/>
      </g>
     </g>
     <g id="text_7">
      <!-- 400 -->
      <g transform="translate(347.649063 400.836406) scale(0.09 -0.09)">
       <defs>
        <path id="DejaVuSans-34" d="M 2419 4116 
L 825 1625 
L 2419 1625 
L 2419 4116 
z
M 2253 4666 
L 3047 4666 
L 3047 1625 
L 3713 1625 
L 3713 1100 
L 3047 1100 
L 3047 0 
L 2419 0 
L 2419 1100 
L 313 1100 
L 313 1709 
L 2253 4666 
z
" transform="scale(0.015625)"/>
       </defs>
       <use xlink:href="#DejaVuSans-34"/>
       <use xlink:href="#DejaVuSans-30" transform="translate(63.623047 0)"/>
       <use xlink:href="#DejaVuSans-30" transform="translate(127.246094 0)"/>
      </g>
     </g>
    </g>
    <g id="xtick_8">
     <g id="line2d_15">
      <path d="M 402.951316 386.997812 
L 402.951316 32.837812 
" clip-path="url(#p7f23580d60)" style="fill: none; stroke-dasharray: 2.96,1.28; stroke-dashoffset: 0; stroke: #b0b0b0; stroke-opacity: 0.3; stroke-width: 0.8"/>
     </g>
     <g id="line2d_16">
      <g>
       <use xlink:href="#mbc0beaf0c7" x="402.951316" y="386.997812" style="stroke: #000000; stroke-width: 0.8"/>
      </g>
     </g>
     <g id="text_8">
      <!-- 500 -->
      <g transform="translate(394.361941 400.836406) scale(0.09 -0.09)">
       <use xlink:href="#DejaVuSans-35"/>
       <use xlink:href="#DejaVuSans-30" transform="translate(63.623047 0)"/>
       <use xlink:href="#DejaVuSans-30" transform="translate(127.246094 0)"/>
      </g>
     </g>
    </g>
    <g id="xtick_9">
     <g id="line2d_17">
      <path d="M 449.664195 386.997812 
L 449.664195 32.837812 
" clip-path="url(#p7f23580d60)" style="fill: none; stroke-dasharray: 2.96,1.28; stroke-dashoffset: 0; stroke: #b0b0b0; stroke-opacity: 0.3; stroke-width: 0.8"/>
     </g>
     <g id="line2d_18">
      <g>
       <use xlink:href="#mbc0beaf0c7" x="449.664195" y="386.997812" style="stroke: #000000; stroke-width: 0.8"/>
      </g>
     </g>
     <g id="text_9">
      <!-- 600 -->
      <g transform="translate(441.07482 400.836406) scale(0.09 -0.09)">
       <defs>
        <path id="DejaVuSans-36" d="M 2113 2584 
Q 1688 2584 1439 2293 
Q 1191 2003 1191 1497 
Q 1191 994 1439 701 
Q 1688 409 2113 409 
Q 2538 409 2786 701 
Q 3034 994 3034 1497 
Q 3034 2003 2786 2293 
Q 2538 2584 2113 2584 
z
M 3366 4563 
L 3366 3988 
Q 3128 4100 2886 4159 
Q 2644 4219 2406 4219 
Q 1781 4219 1451 3797 
Q 1122 3375 1075 2522 
Q 1259 2794 1537 2939 
Q 1816 3084 2150 3084 
Q 2853 3084 3261 2657 
Q 3669 2231 3669 1497 
Q 3669 778 3244 343 
Q 2819 -91 2113 -91 
Q 1303 -91 875 529 
Q 447 1150 447 2328 
Q 447 3434 972 4092 
Q 1497 4750 2381 4750 
Q 2619 4750 2861 4703 
Q 3103 4656 3366 4563 
z
" transform="scale(0.015625)"/>
       </defs>
       <use xlink:href="#DejaVuSans-36"/>
       <use xlink:href="#DejaVuSans-30" transform="translate(63.623047 0)"/>
       <use xlink:href="#DejaVuSans-30" transform="translate(127.246094 0)"/>
      </g>
     </g>
    </g>
    <g id="xtick_10">
     <g id="line2d_19">
      <path d="M 496.377074 386.997812 
L 496.377074 32.837812 
" clip-path="url(#p7f23580d60)" style="fill: none; stroke-dasharray: 2.96,1.28; stroke-dashoffset: 0; stroke: #b0b0b0; stroke-opacity: 0.3; stroke-width: 0.8"/>
     </g>
     <g id="line2d_20">
      <g>
       <use xlink:href="#mbc0beaf0c7" x="496.377074" y="386.997812" style="stroke: #000000; stroke-width: 0.8"/>
      </g>
     </g>
     <g id="text_10">
      <!-- 700 -->
      <g transform="translate(487.787699 400.836406) scale(0.09 -0.09)">
       <defs>
        <path id="DejaVuSans-37" d="M 525 4666 
L 3525 4666 
L 3525 4397 
L 1831 0 
L 1172 0 
L 2766 4134 
L 525 4134 
L 525 4666 
z
" transform="scale(0.015625)"/>
       </defs>
       <use xlink:href="#DejaVuSans-37"/>
       <use xlink:href="#DejaVuSans-30" transform="translate(63.623047 0)"/>
       <use xlink:href="#DejaVuSans-30" transform="translate(127.246094 0)"/>
      </g>
     </g>
    </g>
    <g id="xtick_11">
     <g id="line2d_21">
      <path d="M 543.089953 386.997812 
L 543.089953 32.837812 
" clip-path="url(#p7f23580d60)" style="fill: none; stroke-dasharray: 2.96,1.28; stroke-dashoffset: 0; stroke: #b0b0b0; stroke-opacity: 0.3; stroke-width: 0.8"/>
     </g>
     <g id="line2d_22">
      <g>
       <use xlink:href="#mbc0beaf0c7" x="543.089953" y="386.997812" style="stroke: #000000; stroke-width: 0.8"/>
      </g>
     </g>
     <g id="text_11">
      <!-- 800 -->
      <g transform="translate(534.500578 400.836406) scale(0.09 -0.09)">
       <defs>
        <path id="DejaVuSans-38" d="M 2034 2216 
Q 1584 2216 1326 1975 
Q 1069 1734 1069 1313 
Q 1069 891 1326 650 
Q 1584 409 2034 409 
Q 2484 409 2743 651 
Q 3003 894 3003 1313 
Q 3003 1734 2745 1975 
Q 2488 2216 2034 2216 
z
M 1403 2484 
Q 997 2584 770 2862 
Q 544 3141 544 3541 
Q 544 4100 942 4425 
Q 1341 4750 2034 4750 
Q 2731 4750 3128 4425 
Q 3525 4100 3525 3541 
Q 3525 3141 3298 2862 
Q 3072 2584 2669 2484 
Q 3125 2378 3379 2068 
Q 3634 1759 3634 1313 
Q 3634 634 3220 271 
Q 2806 -91 2034 -91 
Q 1263 -91 848 271 
Q 434 634 434 1313 
Q 434 1759 690 2068 
Q 947 2378 1403 2484 
z
M 1172 3481 
Q 1172 3119 1398 2916 
Q 1625 2713 2034 2713 
Q 2441 2713 2670 2916 
Q 2900 3119 2900 3481 
Q 2900 3844 2670 4047 
Q 2441 4250 2034 4250 
Q 1625 4250 1398 4047 
Q 1172 3844 1172 3481 
z
" transform="scale(0.015625)"/>
       </defs>
       <use xlink:href="#DejaVuSans-38"/>
       <use xlink:href="#DejaVuSans-30" transform="translate(63.623047 0)"/>
       <use xlink:href="#DejaVuSans-30" transform="translate(127.246094 0)"/>
      </g>
     </g>
    </g>
    <g id="xtick_12">
     <g id="line2d_23">
      <path d="M 589.802831 386.997812 
L 589.802831 32.837812 
" clip-path="url(#p7f23580d60)" style="fill: none; stroke-dasharray: 2.96,1.28; stroke-dashoffset: 0; stroke: #b0b0b0; stroke-opacity: 0.3; stroke-width: 0.8"/>
     </g>
     <g id="line2d_24">
      <g>
       <use xlink:href="#mbc0beaf0c7" x="589.802831" y="386.997812" style="stroke: #000000; stroke-width: 0.8"/>
      </g>
     </g>
     <g id="text_12">
      <!-- 900 -->
      <g transform="translate(581.213456 400.836406) scale(0.09 -0.09)">
       <defs>
        <path id="DejaVuSans-39" d="M 703 97 
L 703 672 
Q 941 559 1184 500 
Q 1428 441 1663 441 
Q 2288 441 2617 861 
Q 2947 1281 2994 2138 
Q 2813 1869 2534 1725 
Q 2256 1581 1919 1581 
Q 1219 1581 811 2004 
Q 403 2428 403 3163 
Q 403 3881 828 4315 
Q 1253 4750 1959 4750 
Q 2769 4750 3195 4129 
Q 3622 3509 3622 2328 
Q 3622 1225 3098 567 
Q 2575 -91 1691 -91 
Q 1453 -91 1209 -44 
Q 966 3 703 97 
z
M 1959 2075 
Q 2384 2075 2632 2365 
Q 2881 2656 2881 3163 
Q 2881 3666 2632 3958 
Q 2384 4250 1959 4250 
Q 1534 4250 1286 3958 
Q 1038 3666 1038 3163 
Q 1038 2656 1286 2365 
Q 1534 2075 1959 2075 
z
" transform="scale(0.015625)"/>
       </defs>
       <use xlink:href="#DejaVuSans-39"/>
       <use xlink:href="#DejaVuSans-30" transform="translate(63.623047 0)"/>
       <use xlink:href="#DejaVuSans-30" transform="translate(127.246094 0)"/>
      </g>
     </g>
    </g>
    <g id="xtick_13">
     <g id="line2d_25">
      <path d="M 636.51571 386.997812 
L 636.51571 32.837812 
" clip-path="url(#p7f23580d60)" style="fill: none; stroke-dasharray: 2.96,1.28; stroke-dashoffset: 0; stroke: #b0b0b0; stroke-opacity: 0.3; stroke-width: 0.8"/>
     </g>
     <g id="line2d_26">
      <g>
       <use xlink:href="#mbc0beaf0c7" x="636.51571" y="386.997812" style="stroke: #000000; stroke-width: 0.8"/>
      </g>
     </g>
     <g id="text_13">
      <!-- 1000 -->
      <g transform="translate(625.06321 400.836406) scale(0.09 -0.09)">
       <use xlink:href="#DejaVuSans-31"/>
       <use xlink:href="#DejaVuSans-30" transform="translate(63.623047 0)"/>
       <use xlink:href="#DejaVuSans-30" transform="translate(127.246094 0)"/>
       <use xlink:href="#DejaVuSans-30" transform="translate(190.869141 0)"/>
      </g>
     </g>
    </g>
    <g id="text_14">
     <!-- Requested Throughput (Mbps) -->
     <g transform="translate(272.696016 415.066406) scale(0.11 -0.11)">
      <defs>
       <path id="DejaVuSans-52" d="M 2841 2188 
Q 3044 2119 3236 1894 
Q 3428 1669 3622 1275 
L 4263 0 
L 3584 0 
L 2988 1197 
Q 2756 1666 2539 1819 
Q 2322 1972 1947 1972 
L 1259 1972 
L 1259 0 
L 628 0 
L 628 4666 
L 2053 4666 
Q 2853 4666 3247 4331 
Q 3641 3997 3641 3322 
Q 3641 2881 3436 2590 
Q 3231 2300 2841 2188 
z
M 1259 4147 
L 1259 2491 
L 2053 2491 
Q 2509 2491 2742 2702 
Q 2975 2913 2975 3322 
Q 2975 3731 2742 3939 
Q 2509 4147 2053 4147 
L 1259 4147 
z
" transform="scale(0.015625)"/>
       <path id="DejaVuSans-65" d="M 3597 1894 
L 3597 1613 
L 953 1613 
Q 991 1019 1311 708 
Q 1631 397 2203 397 
Q 2534 397 2845 478 
Q 3156 559 3463 722 
L 3463 178 
Q 3153 47 2828 -22 
Q 2503 -91 2169 -91 
Q 1331 -91 842 396 
Q 353 884 353 1716 
Q 353 2575 817 3079 
Q 1281 3584 2069 3584 
Q 2775 3584 3186 3129 
Q 3597 2675 3597 1894 
z
M 3022 2063 
Q 3016 2534 2758 2815 
Q 2500 3097 2075 3097 
Q 1594 3097 1305 2825 
Q 1016 2553 972 2059 
L 3022 2063 
z
" transform="scale(0.015625)"/>
       <path id="DejaVuSans-71" d="M 947 1747 
Q 947 1113 1208 752 
Q 1469 391 1925 391 
Q 2381 391 2643 752 
Q 2906 1113 2906 1747 
Q 2906 2381 2643 2742 
Q 2381 3103 1925 3103 
Q 1469 3103 1208 2742 
Q 947 2381 947 1747 
z
M 2906 525 
Q 2725 213 2448 61 
Q 2172 -91 1784 -91 
Q 1150 -91 751 415 
Q 353 922 353 1747 
Q 353 2572 751 3078 
Q 1150 3584 1784 3584 
Q 2172 3584 2448 3432 
Q 2725 3281 2906 2969 
L 2906 3500 
L 3481 3500 
L 3481 -1331 
L 2906 -1331 
L 2906 525 
z
" transform="scale(0.015625)"/>
       <path id="DejaVuSans-75" d="M 544 1381 
L 544 3500 
L 1119 3500 
L 1119 1403 
Q 1119 906 1312 657 
Q 1506 409 1894 409 
Q 2359 409 2629 706 
Q 2900 1003 2900 1516 
L 2900 3500 
L 3475 3500 
L 3475 0 
L 2900 0 
L 2900 538 
Q 2691 219 2414 64 
Q 2138 -91 1772 -91 
Q 1169 -91 856 284 
Q 544 659 544 1381 
z
M 1991 3584 
L 1991 3584 
z
" transform="scale(0.015625)"/>
       <path id="DejaVuSans-73" d="M 2834 3397 
L 2834 2853 
Q 2591 2978 2328 3040 
Q 2066 3103 1784 3103 
Q 1356 3103 1142 2972 
Q 928 2841 928 2578 
Q 928 2378 1081 2264 
Q 1234 2150 1697 2047 
L 1894 2003 
Q 2506 1872 2764 1633 
Q 3022 1394 3022 966 
Q 3022 478 2636 193 
Q 2250 -91 1575 -91 
Q 1294 -91 989 -36 
Q 684 19 347 128 
L 347 722 
Q 666 556 975 473 
Q 1284 391 1588 391 
Q 1994 391 2212 530 
Q 2431 669 2431 922 
Q 2431 1156 2273 1281 
Q 2116 1406 1581 1522 
L 1381 1569 
Q 847 1681 609 1914 
Q 372 2147 372 2553 
Q 372 3047 722 3315 
Q 1072 3584 1716 3584 
Q 2034 3584 2315 3537 
Q 2597 3491 2834 3397 
z
" transform="scale(0.015625)"/>
       <path id="DejaVuSans-74" d="M 1172 4494 
L 1172 3500 
L 2356 3500 
L 2356 3053 
L 1172 3053 
L 1172 1153 
Q 1172 725 1289 603 
Q 1406 481 1766 481 
L 2356 481 
L 2356 0 
L 1766 0 
Q 1100 0 847 248 
Q 594 497 594 1153 
L 594 3053 
L 172 3053 
L 172 3500 
L 594 3500 
L 594 4494 
L 1172 4494 
z
" transform="scale(0.015625)"/>
       <path id="DejaVuSans-64" d="M 2906 2969 
L 2906 4863 
L 3481 4863 
L 3481 0 
L 2906 0 
L 2906 525 
Q 2725 213 2448 61 
Q 2172 -91 1784 -91 
Q 1150 -91 751 415 
Q 353 922 353 1747 
Q 353 2572 751 3078 
Q 1150 3584 1784 3584 
Q 2172 3584 2448 3432 
Q 2725 3281 2906 2969 
z
M 947 1747 
Q 947 1113 1208 752 
Q 1469 391 1925 391 
Q 2381 391 2643 752 
Q 2906 1113 2906 1747 
Q 2906 2381 2643 2742 
Q 2381 3103 1925 3103 
Q 1469 3103 1208 2742 
Q 947 2381 947 1747 
z
" transform="scale(0.015625)"/>
       <path id="DejaVuSans-20" transform="scale(0.015625)"/>
       <path id="DejaVuSans-54" d="M -19 4666 
L 3928 4666 
L 3928 4134 
L 2272 4134 
L 2272 0 
L 1638 0 
L 1638 4134 
L -19 4134 
L -19 4666 
z
" transform="scale(0.015625)"/>
       <path id="DejaVuSans-68" d="M 3513 2113 
L 3513 0 
L 2938 0 
L 2938 2094 
Q 2938 2591 2744 2837 
Q 2550 3084 2163 3084 
Q 1697 3084 1428 2787 
Q 1159 2491 1159 1978 
L 1159 0 
L 581 0 
L 581 4863 
L 1159 4863 
L 1159 2956 
Q 1366 3272 1645 3428 
Q 1925 3584 2291 3584 
Q 2894 3584 3203 3211 
Q 3513 2838 3513 2113 
z
" transform="scale(0.015625)"/>
       <path id="DejaVuSans-72" d="M 2631 2963 
Q 2534 3019 2420 3045 
Q 2306 3072 2169 3072 
Q 1681 3072 1420 2755 
Q 1159 2438 1159 1844 
L 1159 0 
L 581 0 
L 581 3500 
L 1159 3500 
L 1159 2956 
Q 1341 3275 1631 3429 
Q 1922 3584 2338 3584 
Q 2397 3584 2469 3576 
Q 2541 3569 2628 3553 
L 2631 2963 
z
" transform="scale(0.015625)"/>
       <path id="DejaVuSans-6f" d="M 1959 3097 
Q 1497 3097 1228 2736 
Q 959 2375 959 1747 
Q 959 1119 1226 758 
Q 1494 397 1959 397 
Q 2419 397 2687 759 
Q 2956 1122 2956 1747 
Q 2956 2369 2687 2733 
Q 2419 3097 1959 3097 
z
M 1959 3584 
Q 2709 3584 3137 3096 
Q 3566 2609 3566 1747 
Q 3566 888 3137 398 
Q 2709 -91 1959 -91 
Q 1206 -91 779 398 
Q 353 888 353 1747 
Q 353 2609 779 3096 
Q 1206 3584 1959 3584 
z
" transform="scale(0.015625)"/>
       <path id="DejaVuSans-67" d="M 2906 1791 
Q 2906 2416 2648 2759 
Q 2391 3103 1925 3103 
Q 1463 3103 1205 2759 
Q 947 2416 947 1791 
Q 947 1169 1205 825 
Q 1463 481 1925 481 
Q 2391 481 2648 825 
Q 2906 1169 2906 1791 
z
M 3481 434 
Q 3481 -459 3084 -895 
Q 2688 -1331 1869 -1331 
Q 1566 -1331 1297 -1286 
Q 1028 -1241 775 -1147 
L 775 -588 
Q 1028 -725 1275 -790 
Q 1522 -856 1778 -856 
Q 2344 -856 2625 -561 
Q 2906 -266 2906 331 
L 2906 616 
Q 2728 306 2450 153 
Q 2172 0 1784 0 
Q 1141 0 747 490 
Q 353 981 353 1791 
Q 353 2603 747 3093 
Q 1141 3584 1784 3584 
Q 2172 3584 2450 3431 
Q 2728 3278 2906 2969 
L 2906 3500 
L 3481 3500 
L 3481 434 
z
" transform="scale(0.015625)"/>
       <path id="DejaVuSans-70" d="M 1159 525 
L 1159 -1331 
L 581 -1331 
L 581 3500 
L 1159 3500 
L 1159 2969 
Q 1341 3281 1617 3432 
Q 1894 3584 2278 3584 
Q 2916 3584 3314 3078 
Q 3713 2572 3713 1747 
Q 3713 922 3314 415 
Q 2916 -91 2278 -91 
Q 1894 -91 1617 61 
Q 1341 213 1159 525 
z
M 3116 1747 
Q 3116 2381 2855 2742 
Q 2594 3103 2138 3103 
Q 1681 3103 1420 2742 
Q 1159 2381 1159 1747 
Q 1159 1113 1420 752 
Q 1681 391 2138 391 
Q 2594 391 2855 752 
Q 3116 1113 3116 1747 
z
" transform="scale(0.015625)"/>
       <path id="DejaVuSans-28" d="M 1984 4856 
Q 1566 4138 1362 3434 
Q 1159 2731 1159 2009 
Q 1159 1288 1364 580 
Q 1569 -128 1984 -844 
L 1484 -844 
Q 1016 -109 783 600 
Q 550 1309 550 2009 
Q 550 2706 781 3412 
Q 1013 4119 1484 4856 
L 1984 4856 
z
" transform="scale(0.015625)"/>
       <path id="DejaVuSans-4d" d="M 628 4666 
L 1569 4666 
L 2759 1491 
L 3956 4666 
L 4897 4666 
L 4897 0 
L 4281 0 
L 4281 4097 
L 3078 897 
L 2444 897 
L 1241 4097 
L 1241 0 
L 628 0 
L 628 4666 
z
" transform="scale(0.015625)"/>
       <path id="DejaVuSans-62" d="M 3116 1747 
Q 3116 2381 2855 2742 
Q 2594 3103 2138 3103 
Q 1681 3103 1420 2742 
Q 1159 2381 1159 1747 
Q 1159 1113 1420 752 
Q 1681 391 2138 391 
Q 2594 391 2855 752 
Q 3116 1113 3116 1747 
z
M 1159 2969 
Q 1341 3281 1617 3432 
Q 1894 3584 2278 3584 
Q 2916 3584 3314 3078 
Q 3713 2572 3713 1747 
Q 3713 922 3314 415 
Q 2916 -91 2278 -91 
Q 1894 -91 1617 61 
Q 1341 213 1159 525 
L 1159 0 
L 581 0 
L 581 4863 
L 1159 4863 
L 1159 2969 
z
" transform="scale(0.015625)"/>
       <path id="DejaVuSans-29" d="M 513 4856 
L 1013 4856 
Q 1481 4119 1714 3412 
Q 1947 2706 1947 2009 
Q 1947 1309 1714 600 
Q 1481 -109 1013 -844 
L 513 -844 
Q 928 -128 1133 580 
Q 1338 1288 1338 2009 
Q 1338 2731 1133 3434 
Q 928 4138 513 4856 
z
" transform="scale(0.015625)"/>
      </defs>
      <use xlink:href="#DejaVuSans-52"/>
      <use xlink:href="#DejaVuSans-65" transform="translate(64.982422 0)"/>
      <use xlink:href="#DejaVuSans-71" transform="translate(126.505859 0)"/>
      <use xlink:href="#DejaVuSans-75" transform="translate(189.982422 0)"/>
      <use xlink:href="#DejaVuSans-65" transform="translate(253.361328 0)"/>
      <use xlink:href="#DejaVuSans-73" transform="translate(314.884766 0)"/>
      <use xlink:href="#DejaVuSans-74" transform="translate(366.984375 0)"/>
      <use xlink:href="#DejaVuSans-65" transform="translate(406.193359 0)"/>
      <use xlink:href="#DejaVuSans-64" transform="translate(467.716797 0)"/>
      <use xlink:href="#DejaVuSans-20" transform="translate(531.193359 0)"/>
      <use xlink:href="#DejaVuSans-54" transform="translate(562.980469 0)"/>
      <use xlink:href="#DejaVuSans-68" transform="translate(624.064453 0)"/>
      <use xlink:href="#DejaVuSans-72" transform="translate(687.443359 0)"/>
      <use xlink:href="#DejaVuSans-6f" transform="translate(726.306641 0)"/>
      <use xlink:href="#DejaVuSans-75" transform="translate(787.488281 0)"/>
      <use xlink:href="#DejaVuSans-67" transform="translate(850.867188 0)"/>
      <use xlink:href="#DejaVuSans-68" transform="translate(914.34375 0)"/>
      <use xlink:href="#DejaVuSans-70" transform="translate(977.722656 0)"/>
      <use xlink:href="#DejaVuSans-75" transform="translate(1041.199219 0)"/>
      <use xlink:href="#DejaVuSans-74" transform="translate(1104.578125 0)"/>
      <use xlink:href="#DejaVuSans-20" transform="translate(1143.787109 0)"/>
      <use xlink:href="#DejaVuSans-28" transform="translate(1175.574219 0)"/>
      <use xlink:href="#DejaVuSans-4d" transform="translate(1214.587891 0)"/>
      <use xlink:href="#DejaVuSans-62" transform="translate(1300.867188 0)"/>
      <use xlink:href="#DejaVuSans-70" transform="translate(1364.34375 0)"/>
      <use xlink:href="#DejaVuSans-73" transform="translate(1427.820312 0)"/>
      <use xlink:href="#DejaVuSans-29" transform="translate(1479.919922 0)"/>
     </g>
    </g>
   </g>
   <g id="matplotlib.axis_2">
    <g id="ytick_1">
     <g id="line2d_27">
      <path d="M 47.933438 386.997812 
L 664.543438 386.997812 
" clip-path="url(#p7f23580d60)" style="fill: none; stroke-dasharray: 2.96,1.28; stroke-dashoffset: 0; stroke: #b0b0b0; stroke-opacity: 0.3; stroke-width: 0.8"/>
     </g>
     <g id="line2d_28">
      <defs>
       <path id="mba72e46aa4" d="M 0 0 
L -3.5 0 
" style="stroke: #000000; stroke-width: 0.8"/>
      </defs>
      <g>
       <use xlink:href="#mba72e46aa4" x="47.933438" y="386.997812" style="stroke: #000000; stroke-width: 0.8"/>
      </g>
     </g>
     <g id="text_15">
      <!-- 0 -->
      <g transform="translate(34.570938 390.797031) scale(0.1 -0.1)">
       <use xlink:href="#DejaVuSans-30"/>
      </g>
     </g>
    </g>
    <g id="ytick_2">
     <g id="line2d_29">
      <path d="M 47.933438 309.723494 
L 664.543438 309.723494 
" clip-path="url(#p7f23580d60)" style="fill: none; stroke-dasharray: 2.96,1.28; stroke-dashoffset: 0; stroke: #b0b0b0; stroke-opacity: 0.3; stroke-width: 0.8"/>
     </g>
     <g id="line2d_30">
      <g>
       <use xlink:href="#mba72e46aa4" x="47.933438" y="309.723494" style="stroke: #000000; stroke-width: 0.8"/>
      </g>
     </g>
     <g id="text_16">
      <!-- 200 -->
      <g transform="translate(21.845938 313.522712) scale(0.1 -0.1)">
       <use xlink:href="#DejaVuSans-32"/>
       <use xlink:href="#DejaVuSans-30" transform="translate(63.623047 0)"/>
       <use xlink:href="#DejaVuSans-30" transform="translate(127.246094 0)"/>
      </g>
     </g>
    </g>
    <g id="ytick_3">
     <g id="line2d_31">
      <path d="M 47.933438 232.449175 
L 664.543438 232.449175 
" clip-path="url(#p7f23580d60)" style="fill: none; stroke-dasharray: 2.96,1.28; stroke-dashoffset: 0; stroke: #b0b0b0; stroke-opacity: 0.3; stroke-width: 0.8"/>
     </g>
     <g id="line2d_32">
      <g>
       <use xlink:href="#mba72e46aa4" x="47.933438" y="232.449175" style="stroke: #000000; stroke-width: 0.8"/>
      </g>
     </g>
     <g id="text_17">
      <!-- 400 -->
      <g transform="translate(21.845938 236.248394) scale(0.1 -0.1)">
       <use xlink:href="#DejaVuSans-34"/>
       <use xlink:href="#DejaVuSans-30" transform="translate(63.623047 0)"/>
       <use xlink:href="#DejaVuSans-30" transform="translate(127.246094 0)"/>
      </g>
     </g>
    </g>
    <g id="ytick_4">
     <g id="line2d_33">
      <path d="M 47.933438 155.174856 
L 664.543438 155.174856 
" clip-path="url(#p7f23580d60)" style="fill: none; stroke-dasharray: 2.96,1.28; stroke-dashoffset: 0; stroke: #b0b0b0; stroke-opacity: 0.3; stroke-width: 0.8"/>
     </g>
     <g id="line2d_34">
      <g>
       <use xlink:href="#mba72e46aa4" x="47.933438" y="155.174856" style="stroke: #000000; stroke-width: 0.8"/>
      </g>
     </g>
     <g id="text_18">
      <!-- 600 -->
      <g transform="translate(21.845938 158.974075) scale(0.1 -0.1)">
       <use xlink:href="#DejaVuSans-36"/>
       <use xlink:href="#DejaVuSans-30" transform="translate(63.623047 0)"/>
       <use xlink:href="#DejaVuSans-30" transform="translate(127.246094 0)"/>
      </g>
     </g>
    </g>
    <g id="ytick_5">
     <g id="line2d_35">
      <path d="M 47.933438 77.900537 
L 664.543438 77.900537 
" clip-path="url(#p7f23580d60)" style="fill: none; stroke-dasharray: 2.96,1.28; stroke-dashoffset: 0; stroke: #b0b0b0; stroke-opacity: 0.3; stroke-width: 0.8"/>
     </g>
     <g id="line2d_36">
      <g>
       <use xlink:href="#mba72e46aa4" x="47.933438" y="77.900537" style="stroke: #000000; stroke-width: 0.8"/>
      </g>
     </g>
     <g id="text_19">
      <!-- 800 -->
      <g transform="translate(21.845938 81.699756) scale(0.1 -0.1)">
       <use xlink:href="#DejaVuSans-38"/>
       <use xlink:href="#DejaVuSans-30" transform="translate(63.623047 0)"/>
       <use xlink:href="#DejaVuSans-30" transform="translate(127.246094 0)"/>
      </g>
     </g>
    </g>
    <g id="text_20">
     <!-- Achieved Throughput (Mbps) -->
     <g transform="translate(15.558281 289.462422) rotate(-90) scale(0.11 -0.11)">
      <defs>
       <path id="DejaVuSans-41" d="M 2188 4044 
L 1331 1722 
L 3047 1722 
L 2188 4044 
z
M 1831 4666 
L 2547 4666 
L 4325 0 
L 3669 0 
L 3244 1197 
L 1141 1197 
L 716 0 
L 50 0 
L 1831 4666 
z
" transform="scale(0.015625)"/>
       <path id="DejaVuSans-63" d="M 3122 3366 
L 3122 2828 
Q 2878 2963 2633 3030 
Q 2388 3097 2138 3097 
Q 1578 3097 1268 2742 
Q 959 2388 959 1747 
Q 959 1106 1268 751 
Q 1578 397 2138 397 
Q 2388 397 2633 464 
Q 2878 531 3122 666 
L 3122 134 
Q 2881 22 2623 -34 
Q 2366 -91 2075 -91 
Q 1284 -91 818 406 
Q 353 903 353 1747 
Q 353 2603 823 3093 
Q 1294 3584 2113 3584 
Q 2378 3584 2631 3529 
Q 2884 3475 3122 3366 
z
" transform="scale(0.015625)"/>
       <path id="DejaVuSans-69" d="M 603 3500 
L 1178 3500 
L 1178 0 
L 603 0 
L 603 3500 
z
M 603 4863 
L 1178 4863 
L 1178 4134 
L 603 4134 
L 603 4863 
z
" transform="scale(0.015625)"/>
       <path id="DejaVuSans-76" d="M 191 3500 
L 800 3500 
L 1894 563 
L 2988 3500 
L 3597 3500 
L 2284 0 
L 1503 0 
L 191 3500 
z
" transform="scale(0.015625)"/>
      </defs>
      <use xlink:href="#DejaVuSans-41"/>
      <use xlink:href="#DejaVuSans-63" transform="translate(66.658203 0)"/>
      <use xlink:href="#DejaVuSans-68" transform="translate(121.638672 0)"/>
      <use xlink:href="#DejaVuSans-69" transform="translate(185.017578 0)"/>
      <use xlink:href="#DejaVuSans-65" transform="translate(212.800781 0)"/>
      <use xlink:href="#DejaVuSans-76" transform="translate(274.324219 0)"/>
      <use xlink:href="#DejaVuSans-65" transform="translate(333.503906 0)"/>
      <use xlink:href="#DejaVuSans-64" transform="translate(395.027344 0)"/>
      <use xlink:href="#DejaVuSans-20" transform="translate(458.503906 0)"/>
      <use xlink:href="#DejaVuSans-54" transform="translate(490.291016 0)"/>
      <use xlink:href="#DejaVuSans-68" transform="translate(551.375 0)"/>
      <use xlink:href="#DejaVuSans-72" transform="translate(614.753906 0)"/>
      <use xlink:href="#DejaVuSans-6f" transform="translate(653.617188 0)"/>
      <use xlink:href="#DejaVuSans-75" transform="translate(714.798828 0)"/>
      <use xlink:href="#DejaVuSans-67" transform="translate(778.177734 0)"/>
      <use xlink:href="#DejaVuSans-68" transform="translate(841.654297 0)"/>
      <use xlink:href="#DejaVuSans-70" transform="translate(905.033203 0)"/>
      <use xlink:href="#DejaVuSans-75" transform="translate(968.509766 0)"/>
      <use xlink:href="#DejaVuSans-74" transform="translate(1031.888672 0)"/>
      <use xlink:href="#DejaVuSans-20" transform="translate(1071.097656 0)"/>
      <use xlink:href="#DejaVuSans-28" transform="translate(1102.884766 0)"/>
      <use xlink:href="#DejaVuSans-4d" transform="translate(1141.898438 0)"/>
      <use xlink:href="#DejaVuSans-62" transform="translate(1228.177734 0)"/>
      <use xlink:href="#DejaVuSans-70" transform="translate(1291.654297 0)"/>
      <use xlink:href="#DejaVuSans-73" transform="translate(1355.130859 0)"/>
      <use xlink:href="#DejaVuSans-29" transform="translate(1407.230469 0)"/>
     </g>
    </g>
   </g>
   <g id="line2d_37">
    <path d="M 75.961165 383.134025 
L 81.623332 379.270248 
L 98.609833 367.67898 
L 126.920669 348.36023 
L 183.54234 309.724935 
L 240.164011 271.085454 
L 296.785683 232.445481 
L 353.407354 193.809586 
L 410.029025 155.172165 
L 466.650696 116.533865 
L 523.272368 77.999516 
L 579.894039 65.422697 
L 636.51571 77.686471 
" clip-path="url(#p7f23580d60)" style="fill: none; stroke: #1a5fb4; stroke-width: 2; stroke-linecap: square"/>
    <defs>
     <path id="mc248d11239" d="M 0 3.5 
C 0.928211 3.5 1.81853 3.131218 2.474874 2.474874 
C 3.131218 1.81853 3.5 0.928211 3.5 0 
C 3.5 -0.928211 3.131218 -1.81853 2.474874 -2.474874 
C 1.81853 -3.131218 0.928211 -3.5 0 -3.5 
C -0.928211 -3.5 -1.81853 -3.131218 -2.474874 -2.474874 
C -3.131218 -1.81853 -3.5 -0.928211 -3.5 0 
C -3.5 0.928211 -3.131218 1.81853 -2.474874 2.474874 
C -1.81853 3.131218 -0.928211 3.5 0 3.5 
z
" style="stroke: #1a5fb4"/>
    </defs>
    <g clip-path="url(#p7f23580d60)">
     <use xlink:href="#mc248d11239" x="75.961165" y="383.134025" style="fill: #1a5fb4; stroke: #1a5fb4"/>
     <use xlink:href="#mc248d11239" x="81.623332" y="379.270248" style="fill: #1a5fb4; stroke: #1a5fb4"/>
     <use xlink:href="#mc248d11239" x="98.609833" y="367.67898" style="fill: #1a5fb4; stroke: #1a5fb4"/>
     <use xlink:href="#mc248d11239" x="126.920669" y="348.36023" style="fill: #1a5fb4; stroke: #1a5fb4"/>
     <use xlink:href="#mc248d11239" x="183.54234" y="309.724935" style="fill: #1a5fb4; stroke: #1a5fb4"/>
     <use xlink:href="#mc248d11239" x="240.164011" y="271.085454" style="fill: #1a5fb4; stroke: #1a5fb4"/>
     <use xlink:href="#mc248d11239" x="296.785683" y="232.445481" style="fill: #1a5fb4; stroke: #1a5fb4"/>
     <use xlink:href="#mc248d11239" x="353.407354" y="193.809586" style="fill: #1a5fb4; stroke: #1a5fb4"/>
     <use xlink:href="#mc248d11239" x="410.029025" y="155.172165" style="fill: #1a5fb4; stroke: #1a5fb4"/>
     <use xlink:href="#mc248d11239" x="466.650696" y="116.533865" style="fill: #1a5fb4; stroke: #1a5fb4"/>
     <use xlink:href="#mc248d11239" x="523.272368" y="77.999516" style="fill: #1a5fb4; stroke: #1a5fb4"/>
     <use xlink:href="#mc248d11239" x="579.894039" y="65.422697" style="fill: #1a5fb4; stroke: #1a5fb4"/>
     <use xlink:href="#mc248d11239" x="636.51571" y="77.686471" style="fill: #1a5fb4; stroke: #1a5fb4"/>
    </g>
   </g>
   <g id="line2d_38">
    <path d="M 75.961165 383.134025 
L 81.623332 379.270249 
L 98.609833 367.678982 
L 126.920669 348.360368 
L 183.54234 309.724505 
L 240.164011 271.086768 
L 296.785683 232.447404 
L 353.407354 193.808961 
L 410.029025 155.170925 
L 466.650696 116.535714 
L 523.272368 77.955847 
L 579.894039 65.034176 
L 636.51571 79.93309 
" clip-path="url(#p7f23580d60)" style="fill: none; stroke: #c01c28; stroke-width: 2; stroke-linecap: square"/>
    <defs>
     <path id="mf17174febc" d="M 0 3.5 
C 0.928211 3.5 1.81853 3.131218 2.474874 2.474874 
C 3.131218 1.81853 3.5 0.928211 3.5 0 
C 3.5 -0.928211 3.131218 -1.81853 2.474874 -2.474874 
C 1.81853 -3.131218 0.928211 -3.5 0 -3.5 
C -0.928211 -3.5 -1.81853 -3.131218 -2.474874 -2.474874 
C -3.131218 -1.81853 -3.5 -0.928211 -3.5 0 
C -3.5 0.928211 -3.131218 1.81853 -2.474874 2.474874 
C -1.81853 3.131218 -0.928211 3.5 0 3.5 
z
" style="stroke: #c01c28"/>
    </defs>
    <g clip-path="url(#p7f23580d60)">
     <use xlink:href="#mf17174febc" x="75.961165" y="383.134025" style="fill: #c01c28; stroke: #c01c28"/>
     <use xlink:href="#mf17174febc" x="81.623332" y="379.270249" style="fill: #c01c28; stroke: #c01c28"/>
     <use xlink:href="#mf17174febc" x="98.609833" y="367.678982" style="fill: #c01c28; stroke: #c01c28"/>
     <use xlink:href="#mf17174febc" x="126.920669" y="348.360368" style="fill: #c01c28; stroke: #c01c28"/>
     <use xlink:href="#mf17174febc" x="183.54234" y="309.724505" style="fill: #c01c28; stroke: #c01c28"/>
     <use xlink:href="#mf17174febc" x="240.164011" y="271.086768" style="fill: #c01c28; stroke: #c01c28"/>
     <use xlink:href="#mf17174febc" x="296.785683" y="232.447404" style="fill: #c01c28; stroke: #c01c28"/>
     <use xlink:href="#mf17174febc" x="353.407354" y="193.808961" style="fill: #c01c28; stroke: #c01c28"/>
     <use xlink:href="#mf17174febc" x="410.029025" y="155.170925" style="fill: #c01c28; stroke: #c01c28"/>
     <use xlink:href="#mf17174febc" x="466.650696" y="116.535714" style="fill: #c01c28; stroke: #c01c28"/>
     <use xlink:href="#mf17174febc" x="523.272368" y="77.955847" style="fill: #c01c28; stroke: #c01c28"/>
     <use xlink:href="#mf17174febc" x="579.894039" y="65.034176" style="fill: #c01c28; stroke: #c01c28"/>
     <use xlink:href="#mf17174febc" x="636.51571" y="79.93309" style="fill: #c01c28; stroke: #c01c28"/>
    </g>
   </g>
   <g id="patch_3">
    <path d="M 47.933438 386.997812 
L 47.933438 32.837812 
" style="fill: none; stroke: #000000; stroke-width: 0.8; stroke-linejoin: miter; stroke-linecap: square"/>
   </g>
   <g id="patch_4">
    <path d="M 664.543438 386.997812 
L 664.543438 32.837812 
" style="fill: none; stroke: #000000; stroke-width: 0.8; stroke-linejoin: miter; stroke-linecap: square"/>
   </g>
   <g id="patch_5">
    <path d="M 47.933438 386.997812 
L 664.543438 386.997812 
" style="fill: none; stroke: #000000; stroke-width: 0.8; stroke-linejoin: miter; stroke-linecap: square"/>
   </g>
   <g id="patch_6">
    <path d="M 47.933438 32.837812 
L 664.543438 32.837812 
" style="fill: none; stroke: #000000; stroke-width: 0.8; stroke-linejoin: miter; stroke-linecap: square"/>
   </g>
   <g id="text_21">
    <!-- Networking Performance (Meson): CompCert vs C -->
    <g transform="translate(160.119219 17.837812) scale(0.14 -0.14)">
     <defs>
      <path id="DejaVuSans-Bold-4e" d="M 588 4666 
L 1931 4666 
L 3628 1466 
L 3628 4666 
L 4769 4666 
L 4769 0 
L 3425 0 
L 1728 3200 
L 1728 0 
L 588 0 
L 588 4666 
z
" transform="scale(0.015625)"/>
      <path id="DejaVuSans-Bold-65" d="M 4031 1759 
L 4031 1441 
L 1416 1441 
Q 1456 1047 1700 850 
Q 1944 653 2381 653 
Q 2734 653 3104 758 
Q 3475 863 3866 1075 
L 3866 213 
Q 3469 63 3072 -14 
Q 2675 -91 2278 -91 
Q 1328 -91 801 392 
Q 275 875 275 1747 
Q 275 2603 792 3093 
Q 1309 3584 2216 3584 
Q 3041 3584 3536 3087 
Q 4031 2591 4031 1759 
z
M 2881 2131 
Q 2881 2450 2695 2645 
Q 2509 2841 2209 2841 
Q 1884 2841 1681 2658 
Q 1478 2475 1428 2131 
L 2881 2131 
z
" transform="scale(0.015625)"/>
      <path id="DejaVuSans-Bold-74" d="M 1759 4494 
L 1759 3500 
L 2913 3500 
L 2913 2700 
L 1759 2700 
L 1759 1216 
Q 1759 972 1856 886 
Q 1953 800 2241 800 
L 2816 800 
L 2816 0 
L 1856 0 
Q 1194 0 917 276 
Q 641 553 641 1216 
L 641 2700 
L 84 2700 
L 84 3500 
L 641 3500 
L 641 4494 
L 1759 4494 
z
" transform="scale(0.015625)"/>
      <path id="DejaVuSans-Bold-77" d="M 225 3500 
L 1313 3500 
L 1900 1088 
L 2491 3500 
L 3425 3500 
L 4013 1113 
L 4603 3500 
L 5691 3500 
L 4769 0 
L 3547 0 
L 2956 2406 
L 2369 0 
L 1147 0 
L 225 3500 
z
" transform="scale(0.015625)"/>
      <path id="DejaVuSans-Bold-6f" d="M 2203 2784 
Q 1831 2784 1636 2517 
Q 1441 2250 1441 1747 
Q 1441 1244 1636 976 
Q 1831 709 2203 709 
Q 2569 709 2762 976 
Q 2956 1244 2956 1747 
Q 2956 2250 2762 2517 
Q 2569 2784 2203 2784 
z
M 2203 3584 
Q 3106 3584 3614 3096 
Q 4122 2609 4122 1747 
Q 4122 884 3614 396 
Q 3106 -91 2203 -91 
Q 1297 -91 786 396 
Q 275 884 275 1747 
Q 275 2609 786 3096 
Q 1297 3584 2203 3584 
z
" transform="scale(0.015625)"/>
      <path id="DejaVuSans-Bold-72" d="M 3138 2547 
Q 2991 2616 2845 2648 
Q 2700 2681 2553 2681 
Q 2122 2681 1889 2404 
Q 1656 2128 1656 1613 
L 1656 0 
L 538 0 
L 538 3500 
L 1656 3500 
L 1656 2925 
Q 1872 3269 2151 3426 
Q 2431 3584 2822 3584 
Q 2878 3584 2943 3579 
Q 3009 3575 3134 3559 
L 3138 2547 
z
" transform="scale(0.015625)"/>
      <path id="DejaVuSans-Bold-6b" d="M 538 4863 
L 1656 4863 
L 1656 2216 
L 2944 3500 
L 4244 3500 
L 2534 1894 
L 4378 0 
L 3022 0 
L 1656 1459 
L 1656 0 
L 538 0 
L 538 4863 
z
" transform="scale(0.015625)"/>
      <path id="DejaVuSans-Bold-69" d="M 538 3500 
L 1656 3500 
L 1656 0 
L 538 0 
L 538 3500 
z
M 538 4863 
L 1656 4863 
L 1656 3950 
L 538 3950 
L 538 4863 
z
" transform="scale(0.015625)"/>
      <path id="DejaVuSans-Bold-6e" d="M 4056 2131 
L 4056 0 
L 2931 0 
L 2931 347 
L 2931 1631 
Q 2931 2084 2911 2256 
Q 2891 2428 2841 2509 
Q 2775 2619 2662 2680 
Q 2550 2741 2406 2741 
Q 2056 2741 1856 2470 
Q 1656 2200 1656 1722 
L 1656 0 
L 538 0 
L 538 3500 
L 1656 3500 
L 1656 2988 
Q 1909 3294 2193 3439 
Q 2478 3584 2822 3584 
Q 3428 3584 3742 3212 
Q 4056 2841 4056 2131 
z
" transform="scale(0.015625)"/>
      <path id="DejaVuSans-Bold-67" d="M 2919 594 
Q 2688 288 2409 144 
Q 2131 0 1766 0 
Q 1125 0 706 504 
Q 288 1009 288 1791 
Q 288 2575 706 3076 
Q 1125 3578 1766 3578 
Q 2131 3578 2409 3434 
Q 2688 3291 2919 2981 
L 2919 3500 
L 4044 3500 
L 4044 353 
Q 4044 -491 3511 -936 
Q 2978 -1381 1966 -1381 
Q 1638 -1381 1331 -1331 
Q 1025 -1281 716 -1178 
L 716 -306 
Q 1009 -475 1290 -558 
Q 1572 -641 1856 -641 
Q 2406 -641 2662 -400 
Q 2919 -159 2919 353 
L 2919 594 
z
M 2181 2772 
Q 1834 2772 1640 2515 
Q 1447 2259 1447 1791 
Q 1447 1309 1634 1061 
Q 1822 813 2181 813 
Q 2531 813 2725 1069 
Q 2919 1325 2919 1791 
Q 2919 2259 2725 2515 
Q 2531 2772 2181 2772 
z
" transform="scale(0.015625)"/>
      <path id="DejaVuSans-Bold-20" transform="scale(0.015625)"/>
      <path id="DejaVuSans-Bold-50" d="M 588 4666 
L 2584 4666 
Q 3475 4666 3951 4270 
Q 4428 3875 4428 3144 
Q 4428 2409 3951 2014 
Q 3475 1619 2584 1619 
L 1791 1619 
L 1791 0 
L 588 0 
L 588 4666 
z
M 1791 3794 
L 1791 2491 
L 2456 2491 
Q 2806 2491 2997 2661 
Q 3188 2831 3188 3144 
Q 3188 3456 2997 3625 
Q 2806 3794 2456 3794 
L 1791 3794 
z
" transform="scale(0.015625)"/>
      <path id="DejaVuSans-Bold-66" d="M 2841 4863 
L 2841 4128 
L 2222 4128 
Q 1984 4128 1890 4042 
Q 1797 3956 1797 3744 
L 1797 3500 
L 2753 3500 
L 2753 2700 
L 1797 2700 
L 1797 0 
L 678 0 
L 678 2700 
L 122 2700 
L 122 3500 
L 678 3500 
L 678 3744 
Q 678 4316 997 4589 
Q 1316 4863 1984 4863 
L 2841 4863 
z
" transform="scale(0.015625)"/>
      <path id="DejaVuSans-Bold-6d" d="M 3781 2919 
Q 3994 3244 4286 3414 
Q 4578 3584 4928 3584 
Q 5531 3584 5847 3212 
Q 6163 2841 6163 2131 
L 6163 0 
L 5038 0 
L 5038 1825 
Q 5041 1866 5042 1909 
Q 5044 1953 5044 2034 
Q 5044 2406 4934 2573 
Q 4825 2741 4581 2741 
Q 4263 2741 4089 2478 
Q 3916 2216 3909 1719 
L 3909 0 
L 2784 0 
L 2784 1825 
Q 2784 2406 2684 2573 
Q 2584 2741 2328 2741 
Q 2006 2741 1831 2477 
Q 1656 2213 1656 1722 
L 1656 0 
L 531 0 
L 531 3500 
L 1656 3500 
L 1656 2988 
Q 1863 3284 2130 3434 
Q 2397 3584 2719 3584 
Q 3081 3584 3359 3409 
Q 3638 3234 3781 2919 
z
" transform="scale(0.015625)"/>
      <path id="DejaVuSans-Bold-61" d="M 2106 1575 
Q 1756 1575 1579 1456 
Q 1403 1338 1403 1106 
Q 1403 894 1545 773 
Q 1688 653 1941 653 
Q 2256 653 2472 879 
Q 2688 1106 2688 1447 
L 2688 1575 
L 2106 1575 
z
M 3816 1997 
L 3816 0 
L 2688 0 
L 2688 519 
Q 2463 200 2181 54 
Q 1900 -91 1497 -91 
Q 953 -91 614 226 
Q 275 544 275 1050 
Q 275 1666 698 1953 
Q 1122 2241 2028 2241 
L 2688 2241 
L 2688 2328 
Q 2688 2594 2478 2717 
Q 2269 2841 1825 2841 
Q 1466 2841 1156 2769 
Q 847 2697 581 2553 
L 581 3406 
Q 941 3494 1303 3539 
Q 1666 3584 2028 3584 
Q 2975 3584 3395 3211 
Q 3816 2838 3816 1997 
z
" transform="scale(0.015625)"/>
      <path id="DejaVuSans-Bold-63" d="M 3366 3391 
L 3366 2478 
Q 3138 2634 2908 2709 
Q 2678 2784 2431 2784 
Q 1963 2784 1702 2511 
Q 1441 2238 1441 1747 
Q 1441 1256 1702 982 
Q 1963 709 2431 709 
Q 2694 709 2930 787 
Q 3166 866 3366 1019 
L 3366 103 
Q 3103 6 2833 -42 
Q 2563 -91 2291 -91 
Q 1344 -91 809 395 
Q 275 881 275 1747 
Q 275 2613 809 3098 
Q 1344 3584 2291 3584 
Q 2566 3584 2833 3536 
Q 3100 3488 3366 3391 
z
" transform="scale(0.015625)"/>
      <path id="DejaVuSans-Bold-28" d="M 2413 -844 
L 1484 -844 
Q 1006 -72 778 623 
Q 550 1319 550 2003 
Q 550 2688 779 3389 
Q 1009 4091 1484 4856 
L 2413 4856 
Q 2013 4116 1813 3408 
Q 1613 2700 1613 2009 
Q 1613 1319 1811 609 
Q 2009 -100 2413 -844 
z
" transform="scale(0.015625)"/>
      <path id="DejaVuSans-Bold-4d" d="M 588 4666 
L 2119 4666 
L 3181 2169 
L 4250 4666 
L 5778 4666 
L 5778 0 
L 4641 0 
L 4641 3413 
L 3566 897 
L 2803 897 
L 1728 3413 
L 1728 0 
L 588 0 
L 588 4666 
z
" transform="scale(0.015625)"/>
      <path id="DejaVuSans-Bold-73" d="M 3272 3391 
L 3272 2541 
Q 2913 2691 2578 2766 
Q 2244 2841 1947 2841 
Q 1628 2841 1473 2761 
Q 1319 2681 1319 2516 
Q 1319 2381 1436 2309 
Q 1553 2238 1856 2203 
L 2053 2175 
Q 2913 2066 3209 1816 
Q 3506 1566 3506 1031 
Q 3506 472 3093 190 
Q 2681 -91 1863 -91 
Q 1516 -91 1145 -36 
Q 775 19 384 128 
L 384 978 
Q 719 816 1070 734 
Q 1422 653 1784 653 
Q 2113 653 2278 743 
Q 2444 834 2444 1013 
Q 2444 1163 2330 1236 
Q 2216 1309 1875 1350 
L 1678 1375 
Q 931 1469 631 1722 
Q 331 1975 331 2491 
Q 331 3047 712 3315 
Q 1094 3584 1881 3584 
Q 2191 3584 2531 3537 
Q 2872 3491 3272 3391 
z
" transform="scale(0.015625)"/>
      <path id="DejaVuSans-Bold-29" d="M 513 -844 
Q 913 -100 1113 609 
Q 1313 1319 1313 2009 
Q 1313 2700 1113 3408 
Q 913 4116 513 4856 
L 1441 4856 
Q 1916 4091 2145 3389 
Q 2375 2688 2375 2003 
Q 2375 1319 2147 623 
Q 1919 -72 1441 -844 
L 513 -844 
z
" transform="scale(0.015625)"/>
      <path id="DejaVuSans-Bold-3a" d="M 716 3500 
L 1844 3500 
L 1844 2291 
L 716 2291 
L 716 3500 
z
M 716 1209 
L 1844 1209 
L 1844 0 
L 716 0 
L 716 1209 
z
" transform="scale(0.015625)"/>
      <path id="DejaVuSans-Bold-43" d="M 4288 256 
Q 3956 84 3597 -3 
Q 3238 -91 2847 -91 
Q 1681 -91 1000 561 
Q 319 1213 319 2328 
Q 319 3447 1000 4098 
Q 1681 4750 2847 4750 
Q 3238 4750 3597 4662 
Q 3956 4575 4288 4403 
L 4288 3438 
Q 3953 3666 3628 3772 
Q 3303 3878 2944 3878 
Q 2300 3878 1931 3465 
Q 1563 3053 1563 2328 
Q 1563 1606 1931 1193 
Q 2300 781 2944 781 
Q 3303 781 3628 887 
Q 3953 994 4288 1222 
L 4288 256 
z
" transform="scale(0.015625)"/>
      <path id="DejaVuSans-Bold-70" d="M 1656 506 
L 1656 -1331 
L 538 -1331 
L 538 3500 
L 1656 3500 
L 1656 2988 
Q 1888 3294 2169 3439 
Q 2450 3584 2816 3584 
Q 3463 3584 3878 3070 
Q 4294 2556 4294 1747 
Q 4294 938 3878 423 
Q 3463 -91 2816 -91 
Q 2450 -91 2169 54 
Q 1888 200 1656 506 
z
M 2400 2772 
Q 2041 2772 1848 2508 
Q 1656 2244 1656 1747 
Q 1656 1250 1848 986 
Q 2041 722 2400 722 
Q 2759 722 2948 984 
Q 3138 1247 3138 1747 
Q 3138 2247 2948 2509 
Q 2759 2772 2400 2772 
z
" transform="scale(0.015625)"/>
      <path id="DejaVuSans-Bold-76" d="M 97 3500 
L 1216 3500 
L 2088 1081 
L 2956 3500 
L 4078 3500 
L 2700 0 
L 1472 0 
L 97 3500 
z
" transform="scale(0.015625)"/>
     </defs>
     <use xlink:href="#DejaVuSans-Bold-4e"/>
     <use xlink:href="#DejaVuSans-Bold-65" transform="translate(83.691406 0)"/>
     <use xlink:href="#DejaVuSans-Bold-74" transform="translate(151.513672 0)"/>
     <use xlink:href="#DejaVuSans-Bold-77" transform="translate(199.316406 0)"/>
     <use xlink:href="#DejaVuSans-Bold-6f" transform="translate(291.699219 0)"/>
     <use xlink:href="#DejaVuSans-Bold-72" transform="translate(360.400391 0)"/>
     <use xlink:href="#DejaVuSans-Bold-6b" transform="translate(409.716797 0)"/>
     <use xlink:href="#DejaVuSans-Bold-69" transform="translate(476.220703 0)"/>
     <use xlink:href="#DejaVuSans-Bold-6e" transform="translate(510.498047 0)"/>
     <use xlink:href="#DejaVuSans-Bold-67" transform="translate(581.689453 0)"/>
     <use xlink:href="#DejaVuSans-Bold-20" transform="translate(653.271484 0)"/>
     <use xlink:href="#DejaVuSans-Bold-50" transform="translate(688.085938 0)"/>
     <use xlink:href="#DejaVuSans-Bold-65" transform="translate(761.376953 0)"/>
     <use xlink:href="#DejaVuSans-Bold-72" transform="translate(829.199219 0)"/>
     <use xlink:href="#DejaVuSans-Bold-66" transform="translate(878.515625 0)"/>
     <use xlink:href="#DejaVuSans-Bold-6f" transform="translate(922.021484 0)"/>
     <use xlink:href="#DejaVuSans-Bold-72" transform="translate(990.722656 0)"/>
     <use xlink:href="#DejaVuSans-Bold-6d" transform="translate(1040.039062 0)"/>
     <use xlink:href="#DejaVuSans-Bold-61" transform="translate(1144.238281 0)"/>
     <use xlink:href="#DejaVuSans-Bold-6e" transform="translate(1211.71875 0)"/>
     <use xlink:href="#DejaVuSans-Bold-63" transform="translate(1282.910156 0)"/>
     <use xlink:href="#DejaVuSans-Bold-65" transform="translate(1342.1875 0)"/>
     <use xlink:href="#DejaVuSans-Bold-20" transform="translate(1410.009766 0)"/>
     <use xlink:href="#DejaVuSans-Bold-28" transform="translate(1444.824219 0)"/>
     <use xlink:href="#DejaVuSans-Bold-4d" transform="translate(1490.527344 0)"/>
     <use xlink:href="#DejaVuSans-Bold-65" transform="translate(1590.039062 0)"/>
     <use xlink:href="#DejaVuSans-Bold-73" transform="translate(1657.861328 0)"/>
     <use xlink:href="#DejaVuSans-Bold-6f" transform="translate(1717.382812 0)"/>
     <use xlink:href="#DejaVuSans-Bold-6e" transform="translate(1786.083984 0)"/>
     <use xlink:href="#DejaVuSans-Bold-29" transform="translate(1857.275391 0)"/>
     <use xlink:href="#DejaVuSans-Bold-3a" transform="translate(1902.978516 0)"/>
     <use xlink:href="#DejaVuSans-Bold-20" transform="translate(1942.96875 0)"/>
     <use xlink:href="#DejaVuSans-Bold-43" transform="translate(1977.783203 0)"/>
     <use xlink:href="#DejaVuSans-Bold-6f" transform="translate(2051.171875 0)"/>
     <use xlink:href="#DejaVuSans-Bold-6d" transform="translate(2119.873047 0)"/>
     <use xlink:href="#DejaVuSans-Bold-70" transform="translate(2224.072266 0)"/>
     <use xlink:href="#DejaVuSans-Bold-43" transform="translate(2295.654297 0)"/>
     <use xlink:href="#DejaVuSans-Bold-65" transform="translate(2369.042969 0)"/>
     <use xlink:href="#DejaVuSans-Bold-72" transform="translate(2436.865234 0)"/>
     <use xlink:href="#DejaVuSans-Bold-74" transform="translate(2486.181641 0)"/>
     <use xlink:href="#DejaVuSans-Bold-20" transform="translate(2533.984375 0)"/>
     <use xlink:href="#DejaVuSans-Bold-76" transform="translate(2568.798828 0)"/>
     <use xlink:href="#DejaVuSans-Bold-73" transform="translate(2633.984375 0)"/>
     <use xlink:href="#DejaVuSans-Bold-20" transform="translate(2693.505859 0)"/>
     <use xlink:href="#DejaVuSans-Bold-43" transform="translate(2728.320312 0)"/>
    </g>
   </g>
   <g id="legend_1">
    <g id="patch_7">
     <path d="M 61.933438 106.550312 
L 208.256875 106.550312 
Q 210.256875 106.550312 210.256875 104.550312 
L 210.256875 46.837812 
Q 210.256875 44.837812 208.256875 44.837812 
L 61.933438 44.837812 
Q 59.933438 44.837812 59.933438 46.837812 
L 59.933438 104.550312 
Q 59.933438 106.550312 61.933438 106.550312 
z
" style="fill: #ffffff; opacity: 0.9; stroke: #808080; stroke-linejoin: miter"/>
    </g>
    <g id="line2d_39">
     <path d="M 63.933438 52.93625 
L 73.933438 52.93625 
L 83.933438 52.93625 
" style="fill: none; stroke: #1a5fb4; stroke-width: 2; stroke-linecap: square"/>
     <g>
      <use xlink:href="#mc248d11239" x="73.933438" y="52.93625" style="fill: #1a5fb4; stroke: #1a5fb4"/>
     </g>
    </g>
    <g id="text_22">
     <!-- CompCert Throughput -->
     <g transform="translate(91.933438 56.43625) scale(0.1 -0.1)">
      <defs>
       <path id="DejaVuSans-43" d="M 4122 4306 
L 4122 3641 
Q 3803 3938 3442 4084 
Q 3081 4231 2675 4231 
Q 1875 4231 1450 3742 
Q 1025 3253 1025 2328 
Q 1025 1406 1450 917 
Q 1875 428 2675 428 
Q 3081 428 3442 575 
Q 3803 722 4122 1019 
L 4122 359 
Q 3791 134 3420 21 
Q 3050 -91 2638 -91 
Q 1578 -91 968 557 
Q 359 1206 359 2328 
Q 359 3453 968 4101 
Q 1578 4750 2638 4750 
Q 3056 4750 3426 4639 
Q 3797 4528 4122 4306 
z
" transform="scale(0.015625)"/>
       <path id="DejaVuSans-6d" d="M 3328 2828 
Q 3544 3216 3844 3400 
Q 4144 3584 4550 3584 
Q 5097 3584 5394 3201 
Q 5691 2819 5691 2113 
L 5691 0 
L 5113 0 
L 5113 2094 
Q 5113 2597 4934 2840 
Q 4756 3084 4391 3084 
Q 3944 3084 3684 2787 
Q 3425 2491 3425 1978 
L 3425 0 
L 2847 0 
L 2847 2094 
Q 2847 2600 2669 2842 
Q 2491 3084 2119 3084 
Q 1678 3084 1418 2786 
Q 1159 2488 1159 1978 
L 1159 0 
L 581 0 
L 581 3500 
L 1159 3500 
L 1159 2956 
Q 1356 3278 1631 3431 
Q 1906 3584 2284 3584 
Q 2666 3584 2933 3390 
Q 3200 3197 3328 2828 
z
" transform="scale(0.015625)"/>
      </defs>
      <use xlink:href="#DejaVuSans-43"/>
      <use xlink:href="#DejaVuSans-6f" transform="translate(69.824219 0)"/>
      <use xlink:href="#DejaVuSans-6d" transform="translate(131.005859 0)"/>
      <use xlink:href="#DejaVuSans-70" transform="translate(228.417969 0)"/>
      <use xlink:href="#DejaVuSans-43" transform="translate(291.894531 0)"/>
      <use xlink:href="#DejaVuSans-65" transform="translate(361.71875 0)"/>
      <use xlink:href="#DejaVuSans-72" transform="translate(423.242188 0)"/>
      <use xlink:href="#DejaVuSans-74" transform="translate(464.355469 0)"/>
      <use xlink:href="#DejaVuSans-20" transform="translate(503.564453 0)"/>
      <use xlink:href="#DejaVuSans-54" transform="translate(535.351562 0)"/>
      <use xlink:href="#DejaVuSans-68" transform="translate(596.435547 0)"/>
      <use xlink:href="#DejaVuSans-72" transform="translate(659.814453 0)"/>
      <use xlink:href="#DejaVuSans-6f" transform="translate(698.677734 0)"/>
      <use xlink:href="#DejaVuSans-75" transform="translate(759.859375 0)"/>
      <use xlink:href="#DejaVuSans-67" transform="translate(823.238281 0)"/>
      <use xlink:href="#DejaVuSans-68" transform="translate(886.714844 0)"/>
      <use xlink:href="#DejaVuSans-70" transform="translate(950.09375 0)"/>
      <use xlink:href="#DejaVuSans-75" transform="translate(1013.570312 0)"/>
      <use xlink:href="#DejaVuSans-74" transform="translate(1076.949219 0)"/>
     </g>
    </g>
    <g id="line2d_40">
     <path d="M 63.933438 67.614375 
L 73.933438 67.614375 
L 83.933438 67.614375 
" style="fill: none; stroke: #c01c28; stroke-width: 2; stroke-linecap: square"/>
     <g>
      <use xlink:href="#mf17174febc" x="73.933438" y="67.614375" style="fill: #c01c28; stroke: #c01c28"/>
     </g>
    </g>
    <g id="text_23">
     <!-- GCC Throughput -->
     <g transform="translate(91.933438 71.114375) scale(0.1 -0.1)">
      <defs>
       <path id="DejaVuSans-47" d="M 3809 666 
L 3809 1919 
L 2778 1919 
L 2778 2438 
L 4434 2438 
L 4434 434 
Q 4069 175 3628 42 
Q 3188 -91 2688 -91 
Q 1594 -91 976 548 
Q 359 1188 359 2328 
Q 359 3472 976 4111 
Q 1594 4750 2688 4750 
Q 3144 4750 3555 4637 
Q 3966 4525 4313 4306 
L 4313 3634 
Q 3963 3931 3569 4081 
Q 3175 4231 2741 4231 
Q 1884 4231 1454 3753 
Q 1025 3275 1025 2328 
Q 1025 1384 1454 906 
Q 1884 428 2741 428 
Q 3075 428 3337 486 
Q 3600 544 3809 666 
z
" transform="scale(0.015625)"/>
      </defs>
      <use xlink:href="#DejaVuSans-47"/>
      <use xlink:href="#DejaVuSans-43" transform="translate(77.490234 0)"/>
      <use xlink:href="#DejaVuSans-43" transform="translate(147.314453 0)"/>
      <use xlink:href="#DejaVuSans-20" transform="translate(217.138672 0)"/>
      <use xlink:href="#DejaVuSans-54" transform="translate(248.925781 0)"/>
      <use xlink:href="#DejaVuSans-68" transform="translate(310.009766 0)"/>
      <use xlink:href="#DejaVuSans-72" transform="translate(373.388672 0)"/>
      <use xlink:href="#DejaVuSans-6f" transform="translate(412.251953 0)"/>
      <use xlink:href="#DejaVuSans-75" transform="translate(473.433594 0)"/>
      <use xlink:href="#DejaVuSans-67" transform="translate(536.8125 0)"/>
      <use xlink:href="#DejaVuSans-68" transform="translate(600.289062 0)"/>
      <use xlink:href="#DejaVuSans-70" transform="translate(663.667969 0)"/>
      <use xlink:href="#DejaVuSans-75" transform="translate(727.144531 0)"/>
      <use xlink:href="#DejaVuSans-74" transform="translate(790.523438 0)"/>
     </g>
    </g>
    <g id="line2d_41">
     <path d="M 63.933438 82.2925 
L 73.933438 82.2925 
L 83.933438 82.2925 
" style="fill: none; stroke-dasharray: 7.4,3.2; stroke-dashoffset: 0; stroke: #1a5fb4; stroke-opacity: 0.8; stroke-width: 2"/>
     <defs>
      <path id="mc5bc84d8af" d="M -3 3 
L 3 3 
L 3 -3 
L -3 -3 
z
" style="stroke: #1a5fb4; stroke-opacity: 0.8; stroke-linejoin: miter"/>
     </defs>
     <g>
      <use xlink:href="#mc5bc84d8af" x="73.933438" y="82.2925" style="fill: #1a5fb4; fill-opacity: 0.8; stroke: #1a5fb4; stroke-opacity: 0.8; stroke-linejoin: miter"/>
     </g>
    </g>
    <g id="text_24">
     <!-- CompCert CPU Util (%) -->
     <g transform="translate(91.933438 85.7925) scale(0.1 -0.1)">
      <defs>
       <path id="DejaVuSans-50" d="M 1259 4147 
L 1259 2394 
L 2053 2394 
Q 2494 2394 2734 2622 
Q 2975 2850 2975 3272 
Q 2975 3691 2734 3919 
Q 2494 4147 2053 4147 
L 1259 4147 
z
M 628 4666 
L 2053 4666 
Q 2838 4666 3239 4311 
Q 3641 3956 3641 3272 
Q 3641 2581 3239 2228 
Q 2838 1875 2053 1875 
L 1259 1875 
L 1259 0 
L 628 0 
L 628 4666 
z
" transform="scale(0.015625)"/>
       <path id="DejaVuSans-55" d="M 556 4666 
L 1191 4666 
L 1191 1831 
Q 1191 1081 1462 751 
Q 1734 422 2344 422 
Q 2950 422 3222 751 
Q 3494 1081 3494 1831 
L 3494 4666 
L 4128 4666 
L 4128 1753 
Q 4128 841 3676 375 
Q 3225 -91 2344 -91 
Q 1459 -91 1007 375 
Q 556 841 556 1753 
L 556 4666 
z
" transform="scale(0.015625)"/>
       <path id="DejaVuSans-6c" d="M 603 4863 
L 1178 4863 
L 1178 0 
L 603 0 
L 603 4863 
z
" transform="scale(0.015625)"/>
       <path id="DejaVuSans-25" d="M 4653 2053 
Q 4381 2053 4226 1822 
Q 4072 1591 4072 1178 
Q 4072 772 4226 539 
Q 4381 306 4653 306 
Q 4919 306 5073 539 
Q 5228 772 5228 1178 
Q 5228 1588 5073 1820 
Q 4919 2053 4653 2053 
z
M 4653 2450 
Q 5147 2450 5437 2106 
Q 5728 1763 5728 1178 
Q 5728 594 5436 251 
Q 5144 -91 4653 -91 
Q 4153 -91 3862 251 
Q 3572 594 3572 1178 
Q 3572 1766 3864 2108 
Q 4156 2450 4653 2450 
z
M 1428 4353 
Q 1159 4353 1004 4120 
Q 850 3888 850 3481 
Q 850 3069 1003 2837 
Q 1156 2606 1428 2606 
Q 1700 2606 1854 2837 
Q 2009 3069 2009 3481 
Q 2009 3884 1853 4118 
Q 1697 4353 1428 4353 
z
M 4250 4750 
L 4750 4750 
L 1831 -91 
L 1331 -91 
L 4250 4750 
z
M 1428 4750 
Q 1922 4750 2215 4408 
Q 2509 4066 2509 3481 
Q 2509 2891 2217 2550 
Q 1925 2209 1428 2209 
Q 931 2209 642 2551 
Q 353 2894 353 3481 
Q 353 4063 643 4406 
Q 934 4750 1428 4750 
z
" transform="scale(0.015625)"/>
      </defs>
      <use xlink:href="#DejaVuSans-43"/>
      <use xlink:href="#DejaVuSans-6f" transform="translate(69.824219 0)"/>
      <use xlink:href="#DejaVuSans-6d" transform="translate(131.005859 0)"/>
      <use xlink:href="#DejaVuSans-70" transform="translate(228.417969 0)"/>
      <use xlink:href="#DejaVuSans-43" transform="translate(291.894531 0)"/>
      <use xlink:href="#DejaVuSans-65" transform="translate(361.71875 0)"/>
      <use xlink:href="#DejaVuSans-72" transform="translate(423.242188 0)"/>
      <use xlink:href="#DejaVuSans-74" transform="translate(464.355469 0)"/>
      <use xlink:href="#DejaVuSans-20" transform="translate(503.564453 0)"/>
      <use xlink:href="#DejaVuSans-43" transform="translate(535.351562 0)"/>
      <use xlink:href="#DejaVuSans-50" transform="translate(605.175781 0)"/>
      <use xlink:href="#DejaVuSans-55" transform="translate(665.478516 0)"/>
      <use xlink:href="#DejaVuSans-20" transform="translate(738.671875 0)"/>
      <use xlink:href="#DejaVuSans-55" transform="translate(770.458984 0)"/>
      <use xlink:href="#DejaVuSans-74" transform="translate(843.652344 0)"/>
      <use xlink:href="#DejaVuSans-69" transform="translate(882.861328 0)"/>
      <use xlink:href="#DejaVuSans-6c" transform="translate(910.644531 0)"/>
      <use xlink:href="#DejaVuSans-20" transform="translate(938.427734 0)"/>
      <use xlink:href="#DejaVuSans-28" transform="translate(970.214844 0)"/>
      <use xlink:href="#DejaVuSans-25" transform="translate(1009.228516 0)"/>
      <use xlink:href="#DejaVuSans-29" transform="translate(1104.248047 0)"/>
     </g>
    </g>
    <g id="line2d_42">
     <path d="M 63.933438 96.970625 
L 73.933438 96.970625 
L 83.933438 96.970625 
" style="fill: none; stroke-dasharray: 7.4,3.2; stroke-dashoffset: 0; stroke: #c01c28; stroke-opacity: 0.8; stroke-width: 2"/>
     <defs>
      <path id="mcf47e39bf3" d="M -3 3 
L 3 3 
L 3 -3 
L -3 -3 
z
" style="stroke: #c01c28; stroke-opacity: 0.8; stroke-linejoin: miter"/>
     </defs>
     <g>
      <use xlink:href="#mcf47e39bf3" x="73.933438" y="96.970625" style="fill: #c01c28; fill-opacity: 0.8; stroke: #c01c28; stroke-opacity: 0.8; stroke-linejoin: miter"/>
     </g>
    </g>
    <g id="text_25">
     <!-- GCC CPU Util (%) -->
     <g transform="translate(91.933438 100.470625) scale(0.1 -0.1)">
      <use xlink:href="#DejaVuSans-47"/>
      <use xlink:href="#DejaVuSans-43" transform="translate(77.490234 0)"/>
      <use xlink:href="#DejaVuSans-43" transform="translate(147.314453 0)"/>
      <use xlink:href="#DejaVuSans-20" transform="translate(217.138672 0)"/>
      <use xlink:href="#DejaVuSans-43" transform="translate(248.925781 0)"/>
      <use xlink:href="#DejaVuSans-50" transform="translate(318.75 0)"/>
      <use xlink:href="#DejaVuSans-55" transform="translate(379.052734 0)"/>
      <use xlink:href="#DejaVuSans-20" transform="translate(452.246094 0)"/>
      <use xlink:href="#DejaVuSans-55" transform="translate(484.033203 0)"/>
      <use xlink:href="#DejaVuSans-74" transform="translate(557.226562 0)"/>
      <use xlink:href="#DejaVuSans-69" transform="translate(596.435547 0)"/>
      <use xlink:href="#DejaVuSans-6c" transform="translate(624.21875 0)"/>
      <use xlink:href="#DejaVuSans-20" transform="translate(652.001953 0)"/>
      <use xlink:href="#DejaVuSans-28" transform="translate(683.789062 0)"/>
      <use xlink:href="#DejaVuSans-25" transform="translate(722.802734 0)"/>
      <use xlink:href="#DejaVuSans-29" transform="translate(817.822266 0)"/>
     </g>
    </g>
   </g>
  </g>
  <g id="axes_2">
   <g id="matplotlib.axis_3">
    <g id="ytick_6">
     <g id="line2d_43">
      <defs>
       <path id="m3d1729049c" d="M 0 0 
L 3.5 0 
" style="stroke: #000000; stroke-width: 0.8"/>
      </defs>
      <g>
       <use xlink:href="#m3d1729049c" x="664.543438" y="386.997812" style="stroke: #000000; stroke-width: 0.8"/>
      </g>
     </g>
     <g id="text_26">
      <!-- 0 -->
      <g transform="translate(671.543438 390.797031) scale(0.1 -0.1)">
       <use xlink:href="#DejaVuSans-30"/>
      </g>
     </g>
    </g>
    <g id="ytick_7">
     <g id="line2d_44">
      <g>
       <use xlink:href="#m3d1729049c" x="664.543438" y="322.605085" style="stroke: #000000; stroke-width: 0.8"/>
      </g>
     </g>
     <g id="text_27">
      <!-- 20 -->
      <g transform="translate(671.543438 326.404304) scale(0.1 -0.1)">
       <use xlink:href="#DejaVuSans-32"/>
       <use xlink:href="#DejaVuSans-30" transform="translate(63.623047 0)"/>
      </g>
     </g>
    </g>
    <g id="ytick_8">
     <g id="line2d_45">
      <g>
       <use xlink:href="#m3d1729049c" x="664.543438" y="258.212358" style="stroke: #000000; stroke-width: 0.8"/>
      </g>
     </g>
     <g id="text_28">
      <!-- 40 -->
      <g transform="translate(671.543438 262.011577) scale(0.1 -0.1)">
       <use xlink:href="#DejaVuSans-34"/>
       <use xlink:href="#DejaVuSans-30" transform="translate(63.623047 0)"/>
      </g>
     </g>
    </g>
    <g id="ytick_9">
     <g id="line2d_46">
      <g>
       <use xlink:href="#m3d1729049c" x="664.543438" y="193.819631" style="stroke: #000000; stroke-width: 0.8"/>
      </g>
     </g>
     <g id="text_29">
      <!-- 60 -->
      <g transform="translate(671.543438 197.618849) scale(0.1 -0.1)">
       <use xlink:href="#DejaVuSans-36"/>
       <use xlink:href="#DejaVuSans-30" transform="translate(63.623047 0)"/>
      </g>
     </g>
    </g>
    <g id="ytick_10">
     <g id="line2d_47">
      <g>
       <use xlink:href="#m3d1729049c" x="664.543438" y="129.426903" style="stroke: #000000; stroke-width: 0.8"/>
      </g>
     </g>
     <g id="text_30">
      <!-- 80 -->
      <g transform="translate(671.543438 133.226122) scale(0.1 -0.1)">
       <use xlink:href="#DejaVuSans-38"/>
       <use xlink:href="#DejaVuSans-30" transform="translate(63.623047 0)"/>
      </g>
     </g>
    </g>
    <g id="ytick_11">
     <g id="line2d_48">
      <g>
       <use xlink:href="#m3d1729049c" x="664.543438" y="65.034176" style="stroke: #000000; stroke-width: 0.8"/>
      </g>
     </g>
     <g id="text_31">
      <!-- 100 -->
      <g transform="translate(671.543438 68.833395) scale(0.1 -0.1)">
       <use xlink:href="#DejaVuSans-31"/>
       <use xlink:href="#DejaVuSans-30" transform="translate(63.623047 0)"/>
       <use xlink:href="#DejaVuSans-30" transform="translate(127.246094 0)"/>
      </g>
     </g>
    </g>
    <g id="text_32">
     <!-- CPU Utilisation (%) -->
     <g transform="translate(702.989219 261.649609) rotate(-90) scale(0.11 -0.11)">
      <defs>
       <path id="DejaVuSans-61" d="M 2194 1759 
Q 1497 1759 1228 1600 
Q 959 1441 959 1056 
Q 959 750 1161 570 
Q 1363 391 1709 391 
Q 2188 391 2477 730 
Q 2766 1069 2766 1631 
L 2766 1759 
L 2194 1759 
z
M 3341 1997 
L 3341 0 
L 2766 0 
L 2766 531 
Q 2569 213 2275 61 
Q 1981 -91 1556 -91 
Q 1019 -91 701 211 
Q 384 513 384 1019 
Q 384 1609 779 1909 
Q 1175 2209 1959 2209 
L 2766 2209 
L 2766 2266 
Q 2766 2663 2505 2880 
Q 2244 3097 1772 3097 
Q 1472 3097 1187 3025 
Q 903 2953 641 2809 
L 641 3341 
Q 956 3463 1253 3523 
Q 1550 3584 1831 3584 
Q 2591 3584 2966 3190 
Q 3341 2797 3341 1997 
z
" transform="scale(0.015625)"/>
       <path id="DejaVuSans-6e" d="M 3513 2113 
L 3513 0 
L 2938 0 
L 2938 2094 
Q 2938 2591 2744 2837 
Q 2550 3084 2163 3084 
Q 1697 3084 1428 2787 
Q 1159 2491 1159 1978 
L 1159 0 
L 581 0 
L 581 3500 
L 1159 3500 
L 1159 2956 
Q 1366 3272 1645 3428 
Q 1925 3584 2291 3584 
Q 2894 3584 3203 3211 
Q 3513 2838 3513 2113 
z
" transform="scale(0.015625)"/>
      </defs>
      <use xlink:href="#DejaVuSans-43"/>
      <use xlink:href="#DejaVuSans-50" transform="translate(69.824219 0)"/>
      <use xlink:href="#DejaVuSans-55" transform="translate(130.126953 0)"/>
      <use xlink:href="#DejaVuSans-20" transform="translate(203.320312 0)"/>
      <use xlink:href="#DejaVuSans-55" transform="translate(235.107422 0)"/>
      <use xlink:href="#DejaVuSans-74" transform="translate(308.300781 0)"/>
      <use xlink:href="#DejaVuSans-69" transform="translate(347.509766 0)"/>
      <use xlink:href="#DejaVuSans-6c" transform="translate(375.292969 0)"/>
      <use xlink:href="#DejaVuSans-69" transform="translate(403.076172 0)"/>
      <use xlink:href="#DejaVuSans-73" transform="translate(430.859375 0)"/>
      <use xlink:href="#DejaVuSans-61" transform="translate(482.958984 0)"/>
      <use xlink:href="#DejaVuSans-74" transform="translate(544.238281 0)"/>
      <use xlink:href="#DejaVuSans-69" transform="translate(583.447266 0)"/>
      <use xlink:href="#DejaVuSans-6f" transform="translate(611.230469 0)"/>
      <use xlink:href="#DejaVuSans-6e" transform="translate(672.412109 0)"/>
      <use xlink:href="#DejaVuSans-20" transform="translate(735.791016 0)"/>
      <use xlink:href="#DejaVuSans-28" transform="translate(767.578125 0)"/>
      <use xlink:href="#DejaVuSans-25" transform="translate(806.591797 0)"/>
      <use xlink:href="#DejaVuSans-29" transform="translate(901.611328 0)"/>
     </g>
    </g>
   </g>
   <g id="line2d_49">
    <path d="M 75.961165 378.494077 
L 81.623332 370.400143 
L 98.609833 347.460332 
L 126.920669 314.250117 
L 183.54234 263.58835 
L 240.164011 237.881383 
L 296.785683 225.492542 
L 353.407354 212.91954 
L 410.029025 200.565977 
L 466.650696 187.546826 
L 523.272368 164.419722 
L 579.894039 156.612117 
L 636.51571 162.17668 
" clip-path="url(#p7f23580d60)" style="fill: none; stroke-dasharray: 7.4,3.2; stroke-dashoffset: 0; stroke: #1a5fb4; stroke-opacity: 0.8; stroke-width: 2"/>
    <g clip-path="url(#p7f23580d60)">
     <use xlink:href="#mc5bc84d8af" x="75.961165" y="378.494077" style="fill: #1a5fb4; fill-opacity: 0.8; stroke: #1a5fb4; stroke-opacity: 0.8; stroke-linejoin: miter"/>
     <use xlink:href="#mc5bc84d8af" x="81.623332" y="370.400143" style="fill: #1a5fb4; fill-opacity: 0.8; stroke: #1a5fb4; stroke-opacity: 0.8; stroke-linejoin: miter"/>
     <use xlink:href="#mc5bc84d8af" x="98.609833" y="347.460332" style="fill: #1a5fb4; fill-opacity: 0.8; stroke: #1a5fb4; stroke-opacity: 0.8; stroke-linejoin: miter"/>
     <use xlink:href="#mc5bc84d8af" x="126.920669" y="314.250117" style="fill: #1a5fb4; fill-opacity: 0.8; stroke: #1a5fb4; stroke-opacity: 0.8; stroke-linejoin: miter"/>
     <use xlink:href="#mc5bc84d8af" x="183.54234" y="263.58835" style="fill: #1a5fb4; fill-opacity: 0.8; stroke: #1a5fb4; stroke-opacity: 0.8; stroke-linejoin: miter"/>
     <use xlink:href="#mc5bc84d8af" x="240.164011" y="237.881383" style="fill: #1a5fb4; fill-opacity: 0.8; stroke: #1a5fb4; stroke-opacity: 0.8; stroke-linejoin: miter"/>
     <use xlink:href="#mc5bc84d8af" x="296.785683" y="225.492542" style="fill: #1a5fb4; fill-opacity: 0.8; stroke: #1a5fb4; stroke-opacity: 0.8; stroke-linejoin: miter"/>
     <use xlink:href="#mc5bc84d8af" x="353.407354" y="212.91954" style="fill: #1a5fb4; fill-opacity: 0.8; stroke: #1a5fb4; stroke-opacity: 0.8; stroke-linejoin: miter"/>
     <use xlink:href="#mc5bc84d8af" x="410.029025" y="200.565977" style="fill: #1a5fb4; fill-opacity: 0.8; stroke: #1a5fb4; stroke-opacity: 0.8; stroke-linejoin: miter"/>
     <use xlink:href="#mc5bc84d8af" x="466.650696" y="187.546826" style="fill: #1a5fb4; fill-opacity: 0.8; stroke: #1a5fb4; stroke-opacity: 0.8; stroke-linejoin: miter"/>
     <use xlink:href="#mc5bc84d8af" x="523.272368" y="164.419722" style="fill: #1a5fb4; fill-opacity: 0.8; stroke: #1a5fb4; stroke-opacity: 0.8; stroke-linejoin: miter"/>
     <use xlink:href="#mc5bc84d8af" x="579.894039" y="156.612117" style="fill: #1a5fb4; fill-opacity: 0.8; stroke: #1a5fb4; stroke-opacity: 0.8; stroke-linejoin: miter"/>
     <use xlink:href="#mc5bc84d8af" x="636.51571" y="162.17668" style="fill: #1a5fb4; fill-opacity: 0.8; stroke: #1a5fb4; stroke-opacity: 0.8; stroke-linejoin: miter"/>
    </g>
   </g>
   <g id="line2d_50">
    <path d="M 75.961165 378.544026 
L 81.623332 370.491535 
L 98.609833 347.580372 
L 126.920669 314.73473 
L 183.54234 262.526114 
L 240.164011 237.117748 
L 296.785683 224.789579 
L 353.407354 211.724042 
L 410.029025 198.977943 
L 466.650696 187.001508 
L 523.272368 166.993839 
L 579.894039 158.20414 
L 636.51571 164.634271 
" clip-path="url(#p7f23580d60)" style="fill: none; stroke-dasharray: 7.4,3.2; stroke-dashoffset: 0; stroke: #c01c28; stroke-opacity: 0.8; stroke-width: 2"/>
    <g clip-path="url(#p7f23580d60)">
     <use xlink:href="#mcf47e39bf3" x="75.961165" y="378.544026" style="fill: #c01c28; fill-opacity: 0.8; stroke: #c01c28; stroke-opacity: 0.8; stroke-linejoin: miter"/>
     <use xlink:href="#mcf47e39bf3" x="81.623332" y="370.491535" style="fill: #c01c28; fill-opacity: 0.8; stroke: #c01c28; stroke-opacity: 0.8; stroke-linejoin: miter"/>
     <use xlink:href="#mcf47e39bf3" x="98.609833" y="347.580372" style="fill: #c01c28; fill-opacity: 0.8; stroke: #c01c28; stroke-opacity: 0.8; stroke-linejoin: miter"/>
     <use xlink:href="#mcf47e39bf3" x="126.920669" y="314.73473" style="fill: #c01c28; fill-opacity: 0.8; stroke: #c01c28; stroke-opacity: 0.8; stroke-linejoin: miter"/>
     <use xlink:href="#mcf47e39bf3" x="183.54234" y="262.526114" style="fill: #c01c28; fill-opacity: 0.8; stroke: #c01c28; stroke-opacity: 0.8; stroke-linejoin: miter"/>
     <use xlink:href="#mcf47e39bf3" x="240.164011" y="237.117748" style="fill: #c01c28; fill-opacity: 0.8; stroke: #c01c28; stroke-opacity: 0.8; stroke-linejoin: miter"/>
     <use xlink:href="#mcf47e39bf3" x="296.785683" y="224.789579" style="fill: #c01c28; fill-opacity: 0.8; stroke: #c01c28; stroke-opacity: 0.8; stroke-linejoin: miter"/>
     <use xlink:href="#mcf47e39bf3" x="353.407354" y="211.724042" style="fill: #c01c28; fill-opacity: 0.8; stroke: #c01c28; stroke-opacity: 0.8; stroke-linejoin: miter"/>
     <use xlink:href="#mcf47e39bf3" x="410.029025" y="198.977943" style="fill: #c01c28; fill-opacity: 0.8; stroke: #c01c28; stroke-opacity: 0.8; stroke-linejoin: miter"/>
     <use xlink:href="#mcf47e39bf3" x="466.650696" y="187.001508" style="fill: #c01c28; fill-opacity: 0.8; stroke: #c01c28; stroke-opacity: 0.8; stroke-linejoin: miter"/>
     <use xlink:href="#mcf47e39bf3" x="523.272368" y="166.993839" style="fill: #c01c28; fill-opacity: 0.8; stroke: #c01c28; stroke-opacity: 0.8; stroke-linejoin: miter"/>
     <use xlink:href="#mcf47e39bf3" x="579.894039" y="158.20414" style="fill: #c01c28; fill-opacity: 0.8; stroke: #c01c28; stroke-opacity: 0.8; stroke-linejoin: miter"/>
     <use xlink:href="#mcf47e39bf3" x="636.51571" y="164.634271" style="fill: #c01c28; fill-opacity: 0.8; stroke: #c01c28; stroke-opacity: 0.8; stroke-linejoin: miter"/>
    </g>
   </g>
   <g id="patch_8">
    <path d="M 47.933438 386.997812 
L 47.933438 32.837812 
" style="fill: none; stroke: #000000; stroke-width: 0.8; stroke-linejoin: miter; stroke-linecap: square"/>
   </g>
   <g id="patch_9">
    <path d="M 664.543438 386.997812 
L 664.543438 32.837812 
" style="fill: none; stroke: #000000; stroke-width: 0.8; stroke-linejoin: miter; stroke-linecap: square"/>
   </g>
   <g id="patch_10">
    <path d="M 47.933438 386.997812 
L 664.543438 386.997812 
" style="fill: none; stroke: #000000; stroke-width: 0.8; stroke-linejoin: miter; stroke-linecap: square"/>
   </g>
   <g id="patch_11">
    <path d="M 47.933438 32.837812 
L 664.543438 32.837812 
" style="fill: none; stroke: #000000; stroke-width: 0.8; stroke-linejoin: miter; stroke-linecap: square"/>
   </g>
   <g id="patch_12">
    <path d="M 564.586745 154.940219 
Q 544.904166 159.456348 526.856163 163.597427 
" style="fill: none; stroke: #ff0000; stroke-width: 1.5; stroke-linecap: round"/>
    <path d="M 530.76753 164.546745 
L 526.856163 163.597427 
L 529.962438 161.037924 
" style="fill: none; stroke: #ff0000; stroke-width: 1.5; stroke-linecap: round"/>
   </g>
   <g id="text_33">
    <g id="patch_13">
     <path d="M 533.272368 153.99144 
L 665.667993 153.99144 
Q 668.367993 153.99144 668.367993 151.29144 
L 668.367993 142.581128 
Q 668.367993 139.881128 665.667993 139.881128 
L 533.272368 139.881128 
Q 530.572368 139.881128 530.572368 142.581128 
L 530.572368 151.29144 
Q 530.572368 153.99144 533.272368 153.99144 
z
" style="fill: #ffffff; opacity: 0.8; stroke: #ff0000; stroke-linejoin: miter"/>
    </g>
    <!-- Max diff:  0.8% (+1.2% rel.) -->
    <g style="fill: #ff0000" transform="translate(533.272368 149.419722) scale(0.09 -0.09)">
     <defs>
      <path id="DejaVuSans-78" d="M 3513 3500 
L 2247 1797 
L 3578 0 
L 2900 0 
L 1881 1375 
L 863 0 
L 184 0 
L 1544 1831 
L 300 3500 
L 978 3500 
L 1906 2253 
L 2834 3500 
L 3513 3500 
z
" transform="scale(0.015625)"/>
      <path id="DejaVuSans-66" d="M 2375 4863 
L 2375 4384 
L 1825 4384 
Q 1516 4384 1395 4259 
Q 1275 4134 1275 3809 
L 1275 3500 
L 2222 3500 
L 2222 3053 
L 1275 3053 
L 1275 0 
L 697 0 
L 697 3053 
L 147 3053 
L 147 3500 
L 697 3500 
L 697 3744 
Q 697 4328 969 4595 
Q 1241 4863 1831 4863 
L 2375 4863 
z
" transform="scale(0.015625)"/>
      <path id="DejaVuSans-3a" d="M 750 794 
L 1409 794 
L 1409 0 
L 750 0 
L 750 794 
z
M 750 3309 
L 1409 3309 
L 1409 2516 
L 750 2516 
L 750 3309 
z
" transform="scale(0.015625)"/>
      <path id="DejaVuSans-2191" d="M 2541 4688 
L 2822 4688 
L 4047 3456 
L 3672 3081 
L 2947 3813 
L 2947 0 
L 2416 0 
L 2416 3813 
L 1684 3081 
L 1309 3456 
L 2541 4688 
z
" transform="scale(0.015625)"/>
      <path id="DejaVuSans-2e" d="M 684 794 
L 1344 794 
L 1344 0 
L 684 0 
L 684 794 
z
" transform="scale(0.015625)"/>
      <path id="DejaVuSans-2b" d="M 2944 4013 
L 2944 2272 
L 4684 2272 
L 4684 1741 
L 2944 1741 
L 2944 0 
L 2419 0 
L 2419 1741 
L 678 1741 
L 678 2272 
L 2419 2272 
L 2419 4013 
L 2944 4013 
z
" transform="scale(0.015625)"/>
     </defs>
     <use xlink:href="#DejaVuSans-4d"/>
     <use xlink:href="#DejaVuSans-61" transform="translate(86.279297 0)"/>
     <use xlink:href="#DejaVuSans-78" transform="translate(147.558594 0)"/>
     <use xlink:href="#DejaVuSans-20" transform="translate(206.738281 0)"/>
     <use xlink:href="#DejaVuSans-64" transform="translate(238.525391 0)"/>
     <use xlink:href="#DejaVuSans-69" transform="translate(302.001953 0)"/>
     <use xlink:href="#DejaVuSans-66" transform="translate(329.785156 0)"/>
     <use xlink:href="#DejaVuSans-66" transform="translate(364.990234 0)"/>
     <use xlink:href="#DejaVuSans-3a" transform="translate(396.570312 0)"/>
     <use xlink:href="#DejaVuSans-20" transform="translate(430.261719 0)"/>
     <use xlink:href="#DejaVuSans-2191" transform="translate(462.048828 0)"/>
     <use xlink:href="#DejaVuSans-20" transform="translate(545.837891 0)"/>
     <use xlink:href="#DejaVuSans-30" transform="translate(577.625 0)"/>
     <use xlink:href="#DejaVuSans-2e" transform="translate(641.248047 0)"/>
     <use xlink:href="#DejaVuSans-38" transform="translate(673.035156 0)"/>
     <use xlink:href="#DejaVuSans-25" transform="translate(736.658203 0)"/>
     <use xlink:href="#DejaVuSans-20" transform="translate(831.677734 0)"/>
     <use xlink:href="#DejaVuSans-28" transform="translate(863.464844 0)"/>
     <use xlink:href="#DejaVuSans-2b" transform="translate(902.478516 0)"/>
     <use xlink:href="#DejaVuSans-31" transform="translate(986.267578 0)"/>
     <use xlink:href="#DejaVuSans-2e" transform="translate(1049.890625 0)"/>
     <use xlink:href="#DejaVuSans-32" transform="translate(1081.677734 0)"/>
     <use xlink:href="#DejaVuSans-25" transform="translate(1145.300781 0)"/>
     <use xlink:href="#DejaVuSans-20" transform="translate(1240.320312 0)"/>
     <use xlink:href="#DejaVuSans-72" transform="translate(1272.107422 0)"/>
     <use xlink:href="#DejaVuSans-65" transform="translate(1310.970703 0)"/>
     <use xlink:href="#DejaVuSans-6c" transform="translate(1372.494141 0)"/>
     <use xlink:href="#DejaVuSans-2e" transform="translate(1400.277344 0)"/>
     <use xlink:href="#DejaVuSans-29" transform="translate(1432.064453 0)"/>
    </g>
   </g>
   <g id="text_34">
    <g id="patch_14">
     <path d="M 521.754831 51.331325 
L 652.211238 51.331325 
Q 654.911238 51.331325 654.911238 48.631325 
L 654.911238 39.921012 
Q 654.911238 37.221012 652.211238 37.221012 
L 521.754831 37.221012 
Q 519.054831 37.221012 519.054831 39.921012 
L 519.054831 48.631325 
Q 519.054831 51.331325 521.754831 51.331325 
z
" style="fill: #ffffff; opacity: 0.8; stroke: #ff0000; stroke-linejoin: miter"/>
    </g>
    <!-- Avg diff:  0.0% (+0.1% rel.) -->
    <g style="fill: #ff0000" transform="translate(521.754831 46.759606) scale(0.09 -0.09)">
     <use xlink:href="#DejaVuSans-41"/>
     <use xlink:href="#DejaVuSans-76" transform="translate(62.533203 0)"/>
     <use xlink:href="#DejaVuSans-67" transform="translate(121.712891 0)"/>
     <use xlink:href="#DejaVuSans-20" transform="translate(185.189453 0)"/>
     <use xlink:href="#DejaVuSans-64" transform="translate(216.976562 0)"/>
     <use xlink:href="#DejaVuSans-69" transform="translate(280.453125 0)"/>
     <use xlink:href="#DejaVuSans-66" transform="translate(308.236328 0)"/>
     <use xlink:href="#DejaVuSans-66" transform="translate(343.441406 0)"/>
     <use xlink:href="#DejaVuSans-3a" transform="translate(375.021484 0)"/>
     <use xlink:href="#DejaVuSans-20" transform="translate(408.712891 0)"/>
     <use xlink:href="#DejaVuSans-2191" transform="translate(440.5 0)"/>
     <use xlink:href="#DejaVuSans-20" transform="translate(524.289062 0)"/>
     <use xlink:href="#DejaVuSans-30" transform="translate(556.076172 0)"/>
     <use xlink:href="#DejaVuSans-2e" transform="translate(619.699219 0)"/>
     <use xlink:href="#DejaVuSans-30" transform="translate(651.486328 0)"/>
     <use xlink:href="#DejaVuSans-25" transform="translate(715.109375 0)"/>
     <use xlink:href="#DejaVuSans-20" transform="translate(810.128906 0)"/>
     <use xlink:href="#DejaVuSans-28" transform="translate(841.916016 0)"/>
     <use xlink:href="#DejaVuSans-2b" transform="translate(880.929688 0)"/>
     <use xlink:href="#DejaVuSans-30" transform="translate(964.71875 0)"/>
     <use xlink:href="#DejaVuSans-2e" transform="translate(1028.341797 0)"/>
     <use xlink:href="#DejaVuSans-31" transform="translate(1060.128906 0)"/>
     <use xlink:href="#DejaVuSans-25" transform="translate(1123.751953 0)"/>
     <use xlink:href="#DejaVuSans-20" transform="translate(1218.771484 0)"/>
     <use xlink:href="#DejaVuSans-72" transform="translate(1250.558594 0)"/>
     <use xlink:href="#DejaVuSans-65" transform="translate(1289.421875 0)"/>
     <use xlink:href="#DejaVuSans-6c" transform="translate(1350.945312 0)"/>
     <use xlink:href="#DejaVuSans-2e" transform="translate(1378.728516 0)"/>
     <use xlink:href="#DejaVuSans-29" transform="translate(1410.515625 0)"/>
    </g>
   </g>
  </g>
 </g>
 <defs>
  <clipPath id="p7f23580d60">
   <rect x="47.933438" y="32.837812" width="616.61" height="354.16"/>
  </clipPath>
 </defs>
</svg>
