<?xml version="1.0" encoding="utf-8" standalone="no"?>
<!DOCTYPE svg PUBLIC "-//W3C//DTD SVG 1.1//EN"
  "http://www.w3.org/Graphics/SVG/1.1/DTD/svg11.dtd">
<svg xmlns:xlink="http://www.w3.org/1999/xlink" width="677.00625pt" height="422.435662pt" viewBox="0 0 677.00625 422.435662" xmlns="http://www.w3.org/2000/svg" version="1.1">
 <metadata>
  <rdf:RDF xmlns:dc="http://purl.org/dc/elements/1.1/" xmlns:cc="http://creativecommons.org/ns#" xmlns:rdf="http://www.w3.org/1999/02/22-rdf-syntax-ns#">
   <cc:Work>
    <dc:type rdf:resource="http://purl.org/dc/dcmitype/StillImage"/>
    <dc:date>2025-04-04T13:10:49.628881</dc:date>
    <dc:format>image/svg+xml</dc:format>
    <dc:creator>
     <cc:Agent>
      <dc:title>Matplotlib v3.10.1, https://matplotlib.org/</dc:title>
     </cc:Agent>
    </dc:creator>
   </cc:Work>
  </rdf:RDF>
 </metadata>
 <defs>
  <style type="text/css">*{stroke-linejoin: round; stroke-linecap: butt}</style>
 </defs>
 <g id="figure_1">
  <g id="patch_1">
   <path d="M 0 422.435662 
L 677.00625 422.435662 
L 677.00625 0 
L 0 0 
z
" style="fill: #ffffff"/>
  </g>
  <g id="axes_1">
   <g id="patch_2">
    <path d="M 36.17625 344.221812 
L 669.80625 344.221812 
L 669.80625 23.837812 
L 36.17625 23.837812 
z
" style="fill: #ffffff"/>
   </g>
   <g id="matplotlib.axis_1">
    <g id="xtick_1">
     <g id="line2d_1">
      <path d="M 64.977614 344.221812 
L 64.977614 23.837812 
" clip-path="url(#p0316752f29)" style="fill: none; stroke-dasharray: 2.96,1.28; stroke-dashoffset: 0; stroke: #b0b0b0; stroke-opacity: 0.7; stroke-width: 0.8"/>
     </g>
     <g id="line2d_2">
      <defs>
       <path id="m510b98e88e" d="M 0 0 
L 0 3.5 
" style="stroke: #000000; stroke-width: 0.8"/>
      </defs>
      <g>
       <use xlink:href="#m510b98e88e" x="64.977614" y="344.221812" style="stroke: #000000; stroke-width: 0.8"/>
      </g>
     </g>
     <g id="text_1">
      <!-- 10 -->
      <g transform="translate(58.615114 358.82025) scale(0.1 -0.1)">
       <defs>
        <path id="DejaVuSans-31" d="M 794 531 
L 1825 531 
L 1825 4091 
L 703 3866 
L 703 4441 
L 1819 4666 
L 2450 4666 
L 2450 531 
L 3481 531 
L 3481 0 
L 794 0 
L 794 531 
z
" transform="scale(0.015625)"/>
        <path id="DejaVuSans-30" d="M 2034 4250 
Q 1547 4250 1301 3770 
Q 1056 3291 1056 2328 
Q 1056 1369 1301 889 
Q 1547 409 2034 409 
Q 2525 409 2770 889 
Q 3016 1369 3016 2328 
Q 3016 3291 2770 3770 
Q 2525 4250 2034 4250 
z
M 2034 4750 
Q 2819 4750 3233 4129 
Q 3647 3509 3647 2328 
Q 3647 1150 3233 529 
Q 2819 -91 2034 -91 
Q 1250 -91 836 529 
Q 422 1150 422 2328 
Q 422 3509 836 4129 
Q 1250 4750 2034 4750 
z
" transform="scale(0.015625)"/>
       </defs>
       <use xlink:href="#DejaVuSans-31"/>
       <use xlink:href="#DejaVuSans-30" transform="translate(63.623047 0)"/>
      </g>
     </g>
    </g>
    <g id="xtick_2">
     <g id="line2d_3">
      <path d="M 112.979886 344.221812 
L 112.979886 23.837812 
" clip-path="url(#p0316752f29)" style="fill: none; stroke-dasharray: 2.96,1.28; stroke-dashoffset: 0; stroke: #b0b0b0; stroke-opacity: 0.7; stroke-width: 0.8"/>
     </g>
     <g id="line2d_4">
      <g>
       <use xlink:href="#m510b98e88e" x="112.979886" y="344.221812" style="stroke: #000000; stroke-width: 0.8"/>
      </g>
     </g>
     <g id="text_2">
      <!-- 20 -->
      <g transform="translate(106.617386 358.82025) scale(0.1 -0.1)">
       <defs>
        <path id="DejaVuSans-32" d="M 1228 531 
L 3431 531 
L 3431 0 
L 469 0 
L 469 531 
Q 828 903 1448 1529 
Q 2069 2156 2228 2338 
Q 2531 2678 2651 2914 
Q 2772 3150 2772 3378 
Q 2772 3750 2511 3984 
Q 2250 4219 1831 4219 
Q 1534 4219 1204 4116 
Q 875 4013 500 3803 
L 500 4441 
Q 881 4594 1212 4672 
Q 1544 4750 1819 4750 
Q 2544 4750 2975 4387 
Q 3406 4025 3406 3419 
Q 3406 3131 3298 2873 
Q 3191 2616 2906 2266 
Q 2828 2175 2409 1742 
Q 1991 1309 1228 531 
z
" transform="scale(0.015625)"/>
       </defs>
       <use xlink:href="#DejaVuSans-32"/>
       <use xlink:href="#DejaVuSans-30" transform="translate(63.623047 0)"/>
      </g>
     </g>
    </g>
    <g id="xtick_3">
     <g id="line2d_5">
      <path d="M 160.982159 344.221812 
L 160.982159 23.837812 
" clip-path="url(#p0316752f29)" style="fill: none; stroke-dasharray: 2.96,1.28; stroke-dashoffset: 0; stroke: #b0b0b0; stroke-opacity: 0.7; stroke-width: 0.8"/>
     </g>
     <g id="line2d_6">
      <g>
       <use xlink:href="#m510b98e88e" x="160.982159" y="344.221812" style="stroke: #000000; stroke-width: 0.8"/>
      </g>
     </g>
     <g id="text_3">
      <!-- 50 -->
      <g transform="translate(154.619659 358.82025) scale(0.1 -0.1)">
       <defs>
        <path id="DejaVuSans-35" d="M 691 4666 
L 3169 4666 
L 3169 4134 
L 1269 4134 
L 1269 2991 
Q 1406 3038 1543 3061 
Q 1681 3084 1819 3084 
Q 2600 3084 3056 2656 
Q 3513 2228 3513 1497 
Q 3513 744 3044 326 
Q 2575 -91 1722 -91 
Q 1428 -91 1123 -41 
Q 819 9 494 109 
L 494 744 
Q 775 591 1075 516 
Q 1375 441 1709 441 
Q 2250 441 2565 725 
Q 2881 1009 2881 1497 
Q 2881 1984 2565 2268 
Q 2250 2553 1709 2553 
Q 1456 2553 1204 2497 
Q 953 2441 691 2322 
L 691 4666 
z
" transform="scale(0.015625)"/>
       </defs>
       <use xlink:href="#DejaVuSans-35"/>
       <use xlink:href="#DejaVuSans-30" transform="translate(63.623047 0)"/>
      </g>
     </g>
    </g>
    <g id="xtick_4">
     <g id="line2d_7">
      <path d="M 208.984432 344.221812 
L 208.984432 23.837812 
" clip-path="url(#p0316752f29)" style="fill: none; stroke-dasharray: 2.96,1.28; stroke-dashoffset: 0; stroke: #b0b0b0; stroke-opacity: 0.7; stroke-width: 0.8"/>
     </g>
     <g id="line2d_8">
      <g>
       <use xlink:href="#m510b98e88e" x="208.984432" y="344.221812" style="stroke: #000000; stroke-width: 0.8"/>
      </g>
     </g>
     <g id="text_4">
      <!-- 100 -->
      <g transform="translate(199.440682 358.82025) scale(0.1 -0.1)">
       <use xlink:href="#DejaVuSans-31"/>
       <use xlink:href="#DejaVuSans-30" transform="translate(63.623047 0)"/>
       <use xlink:href="#DejaVuSans-30" transform="translate(127.246094 0)"/>
      </g>
     </g>
    </g>
    <g id="xtick_5">
     <g id="line2d_9">
      <path d="M 256.986705 344.221812 
L 256.986705 23.837812 
" clip-path="url(#p0316752f29)" style="fill: none; stroke-dasharray: 2.96,1.28; stroke-dashoffset: 0; stroke: #b0b0b0; stroke-opacity: 0.7; stroke-width: 0.8"/>
     </g>
     <g id="line2d_10">
      <g>
       <use xlink:href="#m510b98e88e" x="256.986705" y="344.221812" style="stroke: #000000; stroke-width: 0.8"/>
      </g>
     </g>
     <g id="text_5">
      <!-- 200 -->
      <g transform="translate(247.442955 358.82025) scale(0.1 -0.1)">
       <use xlink:href="#DejaVuSans-32"/>
       <use xlink:href="#DejaVuSans-30" transform="translate(63.623047 0)"/>
       <use xlink:href="#DejaVuSans-30" transform="translate(127.246094 0)"/>
      </g>
     </g>
    </g>
    <g id="xtick_6">
     <g id="line2d_11">
      <path d="M 304.988977 344.221812 
L 304.988977 23.837812 
" clip-path="url(#p0316752f29)" style="fill: none; stroke-dasharray: 2.96,1.28; stroke-dashoffset: 0; stroke: #b0b0b0; stroke-opacity: 0.7; stroke-width: 0.8"/>
     </g>
     <g id="line2d_12">
      <g>
       <use xlink:href="#m510b98e88e" x="304.988977" y="344.221812" style="stroke: #000000; stroke-width: 0.8"/>
      </g>
     </g>
     <g id="text_6">
      <!-- 300 -->
      <g transform="translate(295.445227 358.82025) scale(0.1 -0.1)">
       <defs>
        <path id="DejaVuSans-33" d="M 2597 2516 
Q 3050 2419 3304 2112 
Q 3559 1806 3559 1356 
Q 3559 666 3084 287 
Q 2609 -91 1734 -91 
Q 1441 -91 1130 -33 
Q 819 25 488 141 
L 488 750 
Q 750 597 1062 519 
Q 1375 441 1716 441 
Q 2309 441 2620 675 
Q 2931 909 2931 1356 
Q 2931 1769 2642 2001 
Q 2353 2234 1838 2234 
L 1294 2234 
L 1294 2753 
L 1863 2753 
Q 2328 2753 2575 2939 
Q 2822 3125 2822 3475 
Q 2822 3834 2567 4026 
Q 2313 4219 1838 4219 
Q 1578 4219 1281 4162 
Q 984 4106 628 3988 
L 628 4550 
Q 988 4650 1302 4700 
Q 1616 4750 1894 4750 
Q 2613 4750 3031 4423 
Q 3450 4097 3450 3541 
Q 3450 3153 3228 2886 
Q 3006 2619 2597 2516 
z
" transform="scale(0.015625)"/>
       </defs>
       <use xlink:href="#DejaVuSans-33"/>
       <use xlink:href="#DejaVuSans-30" transform="translate(63.623047 0)"/>
       <use xlink:href="#DejaVuSans-30" transform="translate(127.246094 0)"/>
      </g>
     </g>
    </g>
    <g id="xtick_7">
     <g id="line2d_13">
      <path d="M 352.99125 344.221812 
L 352.99125 23.837812 
" clip-path="url(#p0316752f29)" style="fill: none; stroke-dasharray: 2.96,1.28; stroke-dashoffset: 0; stroke: #b0b0b0; stroke-opacity: 0.7; stroke-width: 0.8"/>
     </g>
     <g id="line2d_14">
      <g>
       <use xlink:href="#m510b98e88e" x="352.99125" y="344.221812" style="stroke: #000000; stroke-width: 0.8"/>
      </g>
     </g>
     <g id="text_7">
      <!-- 400 -->
      <g transform="translate(343.4475 358.82025) scale(0.1 -0.1)">
       <defs>
        <path id="DejaVuSans-34" d="M 2419 4116 
L 825 1625 
L 2419 1625 
L 2419 4116 
z
M 2253 4666 
L 3047 4666 
L 3047 1625 
L 3713 1625 
L 3713 1100 
L 3047 1100 
L 3047 0 
L 2419 0 
L 2419 1100 
L 313 1100 
L 313 1709 
L 2253 4666 
z
" transform="scale(0.015625)"/>
       </defs>
       <use xlink:href="#DejaVuSans-34"/>
       <use xlink:href="#DejaVuSans-30" transform="translate(63.623047 0)"/>
       <use xlink:href="#DejaVuSans-30" transform="translate(127.246094 0)"/>
      </g>
     </g>
    </g>
    <g id="xtick_8">
     <g id="line2d_15">
      <path d="M 400.993523 344.221812 
L 400.993523 23.837812 
" clip-path="url(#p0316752f29)" style="fill: none; stroke-dasharray: 2.96,1.28; stroke-dashoffset: 0; stroke: #b0b0b0; stroke-opacity: 0.7; stroke-width: 0.8"/>
     </g>
     <g id="line2d_16">
      <g>
       <use xlink:href="#m510b98e88e" x="400.993523" y="344.221812" style="stroke: #000000; stroke-width: 0.8"/>
      </g>
     </g>
     <g id="text_8">
      <!-- 500 -->
      <g transform="translate(391.449773 358.82025) scale(0.1 -0.1)">
       <use xlink:href="#DejaVuSans-35"/>
       <use xlink:href="#DejaVuSans-30" transform="translate(63.623047 0)"/>
       <use xlink:href="#DejaVuSans-30" transform="translate(127.246094 0)"/>
      </g>
     </g>
    </g>
    <g id="xtick_9">
     <g id="line2d_17">
      <path d="M 448.995795 344.221812 
L 448.995795 23.837812 
" clip-path="url(#p0316752f29)" style="fill: none; stroke-dasharray: 2.96,1.28; stroke-dashoffset: 0; stroke: #b0b0b0; stroke-opacity: 0.7; stroke-width: 0.8"/>
     </g>
     <g id="line2d_18">
      <g>
       <use xlink:href="#m510b98e88e" x="448.995795" y="344.221812" style="stroke: #000000; stroke-width: 0.8"/>
      </g>
     </g>
     <g id="text_9">
      <!-- 600 -->
      <g transform="translate(439.452045 358.82025) scale(0.1 -0.1)">
       <defs>
        <path id="DejaVuSans-36" d="M 2113 2584 
Q 1688 2584 1439 2293 
Q 1191 2003 1191 1497 
Q 1191 994 1439 701 
Q 1688 409 2113 409 
Q 2538 409 2786 701 
Q 3034 994 3034 1497 
Q 3034 2003 2786 2293 
Q 2538 2584 2113 2584 
z
M 3366 4563 
L 3366 3988 
Q 3128 4100 2886 4159 
Q 2644 4219 2406 4219 
Q 1781 4219 1451 3797 
Q 1122 3375 1075 2522 
Q 1259 2794 1537 2939 
Q 1816 3084 2150 3084 
Q 2853 3084 3261 2657 
Q 3669 2231 3669 1497 
Q 3669 778 3244 343 
Q 2819 -91 2113 -91 
Q 1303 -91 875 529 
Q 447 1150 447 2328 
Q 447 3434 972 4092 
Q 1497 4750 2381 4750 
Q 2619 4750 2861 4703 
Q 3103 4656 3366 4563 
z
" transform="scale(0.015625)"/>
       </defs>
       <use xlink:href="#DejaVuSans-36"/>
       <use xlink:href="#DejaVuSans-30" transform="translate(63.623047 0)"/>
       <use xlink:href="#DejaVuSans-30" transform="translate(127.246094 0)"/>
      </g>
     </g>
    </g>
    <g id="xtick_10">
     <g id="line2d_19">
      <path d="M 496.998068 344.221812 
L 496.998068 23.837812 
" clip-path="url(#p0316752f29)" style="fill: none; stroke-dasharray: 2.96,1.28; stroke-dashoffset: 0; stroke: #b0b0b0; stroke-opacity: 0.7; stroke-width: 0.8"/>
     </g>
     <g id="line2d_20">
      <g>
       <use xlink:href="#m510b98e88e" x="496.998068" y="344.221812" style="stroke: #000000; stroke-width: 0.8"/>
      </g>
     </g>
     <g id="text_10">
      <!-- 700 -->
      <g transform="translate(487.454318 358.82025) scale(0.1 -0.1)">
       <defs>
        <path id="DejaVuSans-37" d="M 525 4666 
L 3525 4666 
L 3525 4397 
L 1831 0 
L 1172 0 
L 2766 4134 
L 525 4134 
L 525 4666 
z
" transform="scale(0.015625)"/>
       </defs>
       <use xlink:href="#DejaVuSans-37"/>
       <use xlink:href="#DejaVuSans-30" transform="translate(63.623047 0)"/>
       <use xlink:href="#DejaVuSans-30" transform="translate(127.246094 0)"/>
      </g>
     </g>
    </g>
    <g id="xtick_11">
     <g id="line2d_21">
      <path d="M 545.000341 344.221812 
L 545.000341 23.837812 
" clip-path="url(#p0316752f29)" style="fill: none; stroke-dasharray: 2.96,1.28; stroke-dashoffset: 0; stroke: #b0b0b0; stroke-opacity: 0.7; stroke-width: 0.8"/>
     </g>
     <g id="line2d_22">
      <g>
       <use xlink:href="#m510b98e88e" x="545.000341" y="344.221812" style="stroke: #000000; stroke-width: 0.8"/>
      </g>
     </g>
     <g id="text_11">
      <!-- 800 -->
      <g transform="translate(535.456591 358.82025) scale(0.1 -0.1)">
       <defs>
        <path id="DejaVuSans-38" d="M 2034 2216 
Q 1584 2216 1326 1975 
Q 1069 1734 1069 1313 
Q 1069 891 1326 650 
Q 1584 409 2034 409 
Q 2484 409 2743 651 
Q 3003 894 3003 1313 
Q 3003 1734 2745 1975 
Q 2488 2216 2034 2216 
z
M 1403 2484 
Q 997 2584 770 2862 
Q 544 3141 544 3541 
Q 544 4100 942 4425 
Q 1341 4750 2034 4750 
Q 2731 4750 3128 4425 
Q 3525 4100 3525 3541 
Q 3525 3141 3298 2862 
Q 3072 2584 2669 2484 
Q 3125 2378 3379 2068 
Q 3634 1759 3634 1313 
Q 3634 634 3220 271 
Q 2806 -91 2034 -91 
Q 1263 -91 848 271 
Q 434 634 434 1313 
Q 434 1759 690 2068 
Q 947 2378 1403 2484 
z
M 1172 3481 
Q 1172 3119 1398 2916 
Q 1625 2713 2034 2713 
Q 2441 2713 2670 2916 
Q 2900 3119 2900 3481 
Q 2900 3844 2670 4047 
Q 2441 4250 2034 4250 
Q 1625 4250 1398 4047 
Q 1172 3844 1172 3481 
z
" transform="scale(0.015625)"/>
       </defs>
       <use xlink:href="#DejaVuSans-38"/>
       <use xlink:href="#DejaVuSans-30" transform="translate(63.623047 0)"/>
       <use xlink:href="#DejaVuSans-30" transform="translate(127.246094 0)"/>
      </g>
     </g>
    </g>
    <g id="xtick_12">
     <g id="line2d_23">
      <path d="M 593.002614 344.221812 
L 593.002614 23.837812 
" clip-path="url(#p0316752f29)" style="fill: none; stroke-dasharray: 2.96,1.28; stroke-dashoffset: 0; stroke: #b0b0b0; stroke-opacity: 0.7; stroke-width: 0.8"/>
     </g>
     <g id="line2d_24">
      <g>
       <use xlink:href="#m510b98e88e" x="593.002614" y="344.221812" style="stroke: #000000; stroke-width: 0.8"/>
      </g>
     </g>
     <g id="text_12">
      <!-- 900 -->
      <g transform="translate(583.458864 358.82025) scale(0.1 -0.1)">
       <defs>
        <path id="DejaVuSans-39" d="M 703 97 
L 703 672 
Q 941 559 1184 500 
Q 1428 441 1663 441 
Q 2288 441 2617 861 
Q 2947 1281 2994 2138 
Q 2813 1869 2534 1725 
Q 2256 1581 1919 1581 
Q 1219 1581 811 2004 
Q 403 2428 403 3163 
Q 403 3881 828 4315 
Q 1253 4750 1959 4750 
Q 2769 4750 3195 4129 
Q 3622 3509 3622 2328 
Q 3622 1225 3098 567 
Q 2575 -91 1691 -91 
Q 1453 -91 1209 -44 
Q 966 3 703 97 
z
M 1959 2075 
Q 2384 2075 2632 2365 
Q 2881 2656 2881 3163 
Q 2881 3666 2632 3958 
Q 2384 4250 1959 4250 
Q 1534 4250 1286 3958 
Q 1038 3666 1038 3163 
Q 1038 2656 1286 2365 
Q 1534 2075 1959 2075 
z
" transform="scale(0.015625)"/>
       </defs>
       <use xlink:href="#DejaVuSans-39"/>
       <use xlink:href="#DejaVuSans-30" transform="translate(63.623047 0)"/>
       <use xlink:href="#DejaVuSans-30" transform="translate(127.246094 0)"/>
      </g>
     </g>
    </g>
    <g id="xtick_13">
     <g id="line2d_25">
      <path d="M 641.004886 344.221812 
L 641.004886 23.837812 
" clip-path="url(#p0316752f29)" style="fill: none; stroke-dasharray: 2.96,1.28; stroke-dashoffset: 0; stroke: #b0b0b0; stroke-opacity: 0.7; stroke-width: 0.8"/>
     </g>
     <g id="line2d_26">
      <g>
       <use xlink:href="#m510b98e88e" x="641.004886" y="344.221812" style="stroke: #000000; stroke-width: 0.8"/>
      </g>
     </g>
     <g id="text_13">
      <!-- 1000 -->
      <g transform="translate(628.279886 358.82025) scale(0.1 -0.1)">
       <use xlink:href="#DejaVuSans-31"/>
       <use xlink:href="#DejaVuSans-30" transform="translate(63.623047 0)"/>
       <use xlink:href="#DejaVuSans-30" transform="translate(127.246094 0)"/>
       <use xlink:href="#DejaVuSans-30" transform="translate(190.869141 0)"/>
      </g>
     </g>
    </g>
    <g id="text_14">
     <!-- Throughput -->
     <g transform="translate(318.143438 374.018062) scale(0.12 -0.12)">
      <defs>
       <path id="DejaVuSans-54" d="M -19 4666 
L 3928 4666 
L 3928 4134 
L 2272 4134 
L 2272 0 
L 1638 0 
L 1638 4134 
L -19 4134 
L -19 4666 
z
" transform="scale(0.015625)"/>
       <path id="DejaVuSans-68" d="M 3513 2113 
L 3513 0 
L 2938 0 
L 2938 2094 
Q 2938 2591 2744 2837 
Q 2550 3084 2163 3084 
Q 1697 3084 1428 2787 
Q 1159 2491 1159 1978 
L 1159 0 
L 581 0 
L 581 4863 
L 1159 4863 
L 1159 2956 
Q 1366 3272 1645 3428 
Q 1925 3584 2291 3584 
Q 2894 3584 3203 3211 
Q 3513 2838 3513 2113 
z
" transform="scale(0.015625)"/>
       <path id="DejaVuSans-72" d="M 2631 2963 
Q 2534 3019 2420 3045 
Q 2306 3072 2169 3072 
Q 1681 3072 1420 2755 
Q 1159 2438 1159 1844 
L 1159 0 
L 581 0 
L 581 3500 
L 1159 3500 
L 1159 2956 
Q 1341 3275 1631 3429 
Q 1922 3584 2338 3584 
Q 2397 3584 2469 3576 
Q 2541 3569 2628 3553 
L 2631 2963 
z
" transform="scale(0.015625)"/>
       <path id="DejaVuSans-6f" d="M 1959 3097 
Q 1497 3097 1228 2736 
Q 959 2375 959 1747 
Q 959 1119 1226 758 
Q 1494 397 1959 397 
Q 2419 397 2687 759 
Q 2956 1122 2956 1747 
Q 2956 2369 2687 2733 
Q 2419 3097 1959 3097 
z
M 1959 3584 
Q 2709 3584 3137 3096 
Q 3566 2609 3566 1747 
Q 3566 888 3137 398 
Q 2709 -91 1959 -91 
Q 1206 -91 779 398 
Q 353 888 353 1747 
Q 353 2609 779 3096 
Q 1206 3584 1959 3584 
z
" transform="scale(0.015625)"/>
       <path id="DejaVuSans-75" d="M 544 1381 
L 544 3500 
L 1119 3500 
L 1119 1403 
Q 1119 906 1312 657 
Q 1506 409 1894 409 
Q 2359 409 2629 706 
Q 2900 1003 2900 1516 
L 2900 3500 
L 3475 3500 
L 3475 0 
L 2900 0 
L 2900 538 
Q 2691 219 2414 64 
Q 2138 -91 1772 -91 
Q 1169 -91 856 284 
Q 544 659 544 1381 
z
M 1991 3584 
L 1991 3584 
z
" transform="scale(0.015625)"/>
       <path id="DejaVuSans-67" d="M 2906 1791 
Q 2906 2416 2648 2759 
Q 2391 3103 1925 3103 
Q 1463 3103 1205 2759 
Q 947 2416 947 1791 
Q 947 1169 1205 825 
Q 1463 481 1925 481 
Q 2391 481 2648 825 
Q 2906 1169 2906 1791 
z
M 3481 434 
Q 3481 -459 3084 -895 
Q 2688 -1331 1869 -1331 
Q 1566 -1331 1297 -1286 
Q 1028 -1241 775 -1147 
L 775 -588 
Q 1028 -725 1275 -790 
Q 1522 -856 1778 -856 
Q 2344 -856 2625 -561 
Q 2906 -266 2906 331 
L 2906 616 
Q 2728 306 2450 153 
Q 2172 0 1784 0 
Q 1141 0 747 490 
Q 353 981 353 1791 
Q 353 2603 747 3093 
Q 1141 3584 1784 3584 
Q 2172 3584 2450 3431 
Q 2728 3278 2906 2969 
L 2906 3500 
L 3481 3500 
L 3481 434 
z
" transform="scale(0.015625)"/>
       <path id="DejaVuSans-70" d="M 1159 525 
L 1159 -1331 
L 581 -1331 
L 581 3500 
L 1159 3500 
L 1159 2969 
Q 1341 3281 1617 3432 
Q 1894 3584 2278 3584 
Q 2916 3584 3314 3078 
Q 3713 2572 3713 1747 
Q 3713 922 3314 415 
Q 2916 -91 2278 -91 
Q 1894 -91 1617 61 
Q 1341 213 1159 525 
z
M 3116 1747 
Q 3116 2381 2855 2742 
Q 2594 3103 2138 3103 
Q 1681 3103 1420 2742 
Q 1159 2381 1159 1747 
Q 1159 1113 1420 752 
Q 1681 391 2138 391 
Q 2594 391 2855 752 
Q 3116 1113 3116 1747 
z
" transform="scale(0.015625)"/>
       <path id="DejaVuSans-74" d="M 1172 4494 
L 1172 3500 
L 2356 3500 
L 2356 3053 
L 1172 3053 
L 1172 1153 
Q 1172 725 1289 603 
Q 1406 481 1766 481 
L 2356 481 
L 2356 0 
L 1766 0 
Q 1100 0 847 248 
Q 594 497 594 1153 
L 594 3053 
L 172 3053 
L 172 3500 
L 594 3500 
L 594 4494 
L 1172 4494 
z
" transform="scale(0.015625)"/>
      </defs>
      <use xlink:href="#DejaVuSans-54"/>
      <use xlink:href="#DejaVuSans-68" transform="translate(61.083984 0)"/>
      <use xlink:href="#DejaVuSans-72" transform="translate(124.462891 0)"/>
      <use xlink:href="#DejaVuSans-6f" transform="translate(163.326172 0)"/>
      <use xlink:href="#DejaVuSans-75" transform="translate(224.507812 0)"/>
      <use xlink:href="#DejaVuSans-67" transform="translate(287.886719 0)"/>
      <use xlink:href="#DejaVuSans-68" transform="translate(351.363281 0)"/>
      <use xlink:href="#DejaVuSans-70" transform="translate(414.742188 0)"/>
      <use xlink:href="#DejaVuSans-75" transform="translate(478.21875 0)"/>
      <use xlink:href="#DejaVuSans-74" transform="translate(541.597656 0)"/>
     </g>
    </g>
   </g>
   <g id="matplotlib.axis_2">
    <g id="ytick_1">
     <g id="line2d_27">
      <path d="M 36.17625 344.221812 
L 669.80625 344.221812 
" clip-path="url(#p0316752f29)" style="fill: none; stroke-dasharray: 2.96,1.28; stroke-dashoffset: 0; stroke: #b0b0b0; stroke-opacity: 0.7; stroke-width: 0.8"/>
     </g>
     <g id="line2d_28">
      <defs>
       <path id="m199dd27e61" d="M 0 0 
L -3.5 0 
" style="stroke: #000000; stroke-width: 0.8"/>
      </defs>
      <g>
       <use xlink:href="#m199dd27e61" x="36.17625" y="344.221812" style="stroke: #000000; stroke-width: 0.8"/>
      </g>
     </g>
     <g id="text_15">
      <!-- 0 -->
      <g transform="translate(22.81375 348.021031) scale(0.1 -0.1)">
       <use xlink:href="#DejaVuSans-30"/>
      </g>
     </g>
    </g>
    <g id="ytick_2">
     <g id="line2d_29">
      <path d="M 36.17625 297.560394 
L 669.80625 297.560394 
" clip-path="url(#p0316752f29)" style="fill: none; stroke-dasharray: 2.96,1.28; stroke-dashoffset: 0; stroke: #b0b0b0; stroke-opacity: 0.7; stroke-width: 0.8"/>
     </g>
     <g id="line2d_30">
      <g>
       <use xlink:href="#m199dd27e61" x="36.17625" y="297.560394" style="stroke: #000000; stroke-width: 0.8"/>
      </g>
     </g>
     <g id="text_16">
      <!-- 1 -->
      <g transform="translate(22.81375 301.359613) scale(0.1 -0.1)">
       <use xlink:href="#DejaVuSans-31"/>
      </g>
     </g>
    </g>
    <g id="ytick_3">
     <g id="line2d_31">
      <path d="M 36.17625 250.898975 
L 669.80625 250.898975 
" clip-path="url(#p0316752f29)" style="fill: none; stroke-dasharray: 2.96,1.28; stroke-dashoffset: 0; stroke: #b0b0b0; stroke-opacity: 0.7; stroke-width: 0.8"/>
     </g>
     <g id="line2d_32">
      <g>
       <use xlink:href="#m199dd27e61" x="36.17625" y="250.898975" style="stroke: #000000; stroke-width: 0.8"/>
      </g>
     </g>
     <g id="text_17">
      <!-- 2 -->
      <g transform="translate(22.81375 254.698194) scale(0.1 -0.1)">
       <use xlink:href="#DejaVuSans-32"/>
      </g>
     </g>
    </g>
    <g id="ytick_4">
     <g id="line2d_33">
      <path d="M 36.17625 204.237557 
L 669.80625 204.237557 
" clip-path="url(#p0316752f29)" style="fill: none; stroke-dasharray: 2.96,1.28; stroke-dashoffset: 0; stroke: #b0b0b0; stroke-opacity: 0.7; stroke-width: 0.8"/>
     </g>
     <g id="line2d_34">
      <g>
       <use xlink:href="#m199dd27e61" x="36.17625" y="204.237557" style="stroke: #000000; stroke-width: 0.8"/>
      </g>
     </g>
     <g id="text_18">
      <!-- 3 -->
      <g transform="translate(22.81375 208.036776) scale(0.1 -0.1)">
       <use xlink:href="#DejaVuSans-33"/>
      </g>
     </g>
    </g>
    <g id="ytick_5">
     <g id="line2d_35">
      <path d="M 36.17625 157.576138 
L 669.80625 157.576138 
" clip-path="url(#p0316752f29)" style="fill: none; stroke-dasharray: 2.96,1.28; stroke-dashoffset: 0; stroke: #b0b0b0; stroke-opacity: 0.7; stroke-width: 0.8"/>
     </g>
     <g id="line2d_36">
      <g>
       <use xlink:href="#m199dd27e61" x="36.17625" y="157.576138" style="stroke: #000000; stroke-width: 0.8"/>
      </g>
     </g>
     <g id="text_19">
      <!-- 4 -->
      <g transform="translate(22.81375 161.375357) scale(0.1 -0.1)">
       <use xlink:href="#DejaVuSans-34"/>
      </g>
     </g>
    </g>
    <g id="ytick_6">
     <g id="line2d_37">
      <path d="M 36.17625 110.91472 
L 669.80625 110.91472 
" clip-path="url(#p0316752f29)" style="fill: none; stroke-dasharray: 2.96,1.28; stroke-dashoffset: 0; stroke: #b0b0b0; stroke-opacity: 0.7; stroke-width: 0.8"/>
     </g>
     <g id="line2d_38">
      <g>
       <use xlink:href="#m199dd27e61" x="36.17625" y="110.91472" style="stroke: #000000; stroke-width: 0.8"/>
      </g>
     </g>
     <g id="text_20">
      <!-- 5 -->
      <g transform="translate(22.81375 114.713938) scale(0.1 -0.1)">
       <use xlink:href="#DejaVuSans-35"/>
      </g>
     </g>
    </g>
    <g id="ytick_7">
     <g id="line2d_39">
      <path d="M 36.17625 64.253301 
L 669.80625 64.253301 
" clip-path="url(#p0316752f29)" style="fill: none; stroke-dasharray: 2.96,1.28; stroke-dashoffset: 0; stroke: #b0b0b0; stroke-opacity: 0.7; stroke-width: 0.8"/>
     </g>
     <g id="line2d_40">
      <g>
       <use xlink:href="#m199dd27e61" x="36.17625" y="64.253301" style="stroke: #000000; stroke-width: 0.8"/>
      </g>
     </g>
     <g id="text_21">
      <!-- 6 -->
      <g transform="translate(22.81375 68.05252) scale(0.1 -0.1)">
       <use xlink:href="#DejaVuSans-36"/>
      </g>
     </g>
    </g>
    <g id="text_22">
     <!-- CPU Utilisation (cycles) -->
     <g transform="translate(16.318125 253.397312) rotate(-90) scale(0.12 -0.12)">
      <defs>
       <path id="DejaVuSans-43" d="M 4122 4306 
L 4122 3641 
Q 3803 3938 3442 4084 
Q 3081 4231 2675 4231 
Q 1875 4231 1450 3742 
Q 1025 3253 1025 2328 
Q 1025 1406 1450 917 
Q 1875 428 2675 428 
Q 3081 428 3442 575 
Q 3803 722 4122 1019 
L 4122 359 
Q 3791 134 3420 21 
Q 3050 -91 2638 -91 
Q 1578 -91 968 557 
Q 359 1206 359 2328 
Q 359 3453 968 4101 
Q 1578 4750 2638 4750 
Q 3056 4750 3426 4639 
Q 3797 4528 4122 4306 
z
" transform="scale(0.015625)"/>
       <path id="DejaVuSans-50" d="M 1259 4147 
L 1259 2394 
L 2053 2394 
Q 2494 2394 2734 2622 
Q 2975 2850 2975 3272 
Q 2975 3691 2734 3919 
Q 2494 4147 2053 4147 
L 1259 4147 
z
M 628 4666 
L 2053 4666 
Q 2838 4666 3239 4311 
Q 3641 3956 3641 3272 
Q 3641 2581 3239 2228 
Q 2838 1875 2053 1875 
L 1259 1875 
L 1259 0 
L 628 0 
L 628 4666 
z
" transform="scale(0.015625)"/>
       <path id="DejaVuSans-55" d="M 556 4666 
L 1191 4666 
L 1191 1831 
Q 1191 1081 1462 751 
Q 1734 422 2344 422 
Q 2950 422 3222 751 
Q 3494 1081 3494 1831 
L 3494 4666 
L 4128 4666 
L 4128 1753 
Q 4128 841 3676 375 
Q 3225 -91 2344 -91 
Q 1459 -91 1007 375 
Q 556 841 556 1753 
L 556 4666 
z
" transform="scale(0.015625)"/>
       <path id="DejaVuSans-20" transform="scale(0.015625)"/>
       <path id="DejaVuSans-69" d="M 603 3500 
L 1178 3500 
L 1178 0 
L 603 0 
L 603 3500 
z
M 603 4863 
L 1178 4863 
L 1178 4134 
L 603 4134 
L 603 4863 
z
" transform="scale(0.015625)"/>
       <path id="DejaVuSans-6c" d="M 603 4863 
L 1178 4863 
L 1178 0 
L 603 0 
L 603 4863 
z
" transform="scale(0.015625)"/>
       <path id="DejaVuSans-73" d="M 2834 3397 
L 2834 2853 
Q 2591 2978 2328 3040 
Q 2066 3103 1784 3103 
Q 1356 3103 1142 2972 
Q 928 2841 928 2578 
Q 928 2378 1081 2264 
Q 1234 2150 1697 2047 
L 1894 2003 
Q 2506 1872 2764 1633 
Q 3022 1394 3022 966 
Q 3022 478 2636 193 
Q 2250 -91 1575 -91 
Q 1294 -91 989 -36 
Q 684 19 347 128 
L 347 722 
Q 666 556 975 473 
Q 1284 391 1588 391 
Q 1994 391 2212 530 
Q 2431 669 2431 922 
Q 2431 1156 2273 1281 
Q 2116 1406 1581 1522 
L 1381 1569 
Q 847 1681 609 1914 
Q 372 2147 372 2553 
Q 372 3047 722 3315 
Q 1072 3584 1716 3584 
Q 2034 3584 2315 3537 
Q 2597 3491 2834 3397 
z
" transform="scale(0.015625)"/>
       <path id="DejaVuSans-61" d="M 2194 1759 
Q 1497 1759 1228 1600 
Q 959 1441 959 1056 
Q 959 750 1161 570 
Q 1363 391 1709 391 
Q 2188 391 2477 730 
Q 2766 1069 2766 1631 
L 2766 1759 
L 2194 1759 
z
M 3341 1997 
L 3341 0 
L 2766 0 
L 2766 531 
Q 2569 213 2275 61 
Q 1981 -91 1556 -91 
Q 1019 -91 701 211 
Q 384 513 384 1019 
Q 384 1609 779 1909 
Q 1175 2209 1959 2209 
L 2766 2209 
L 2766 2266 
Q 2766 2663 2505 2880 
Q 2244 3097 1772 3097 
Q 1472 3097 1187 3025 
Q 903 2953 641 2809 
L 641 3341 
Q 956 3463 1253 3523 
Q 1550 3584 1831 3584 
Q 2591 3584 2966 3190 
Q 3341 2797 3341 1997 
z
" transform="scale(0.015625)"/>
       <path id="DejaVuSans-6e" d="M 3513 2113 
L 3513 0 
L 2938 0 
L 2938 2094 
Q 2938 2591 2744 2837 
Q 2550 3084 2163 3084 
Q 1697 3084 1428 2787 
Q 1159 2491 1159 1978 
L 1159 0 
L 581 0 
L 581 3500 
L 1159 3500 
L 1159 2956 
Q 1366 3272 1645 3428 
Q 1925 3584 2291 3584 
Q 2894 3584 3203 3211 
Q 3513 2838 3513 2113 
z
" transform="scale(0.015625)"/>
       <path id="DejaVuSans-28" d="M 1984 4856 
Q 1566 4138 1362 3434 
Q 1159 2731 1159 2009 
Q 1159 1288 1364 580 
Q 1569 -128 1984 -844 
L 1484 -844 
Q 1016 -109 783 600 
Q 550 1309 550 2009 
Q 550 2706 781 3412 
Q 1013 4119 1484 4856 
L 1984 4856 
z
" transform="scale(0.015625)"/>
       <path id="DejaVuSans-63" d="M 3122 3366 
L 3122 2828 
Q 2878 2963 2633 3030 
Q 2388 3097 2138 3097 
Q 1578 3097 1268 2742 
Q 959 2388 959 1747 
Q 959 1106 1268 751 
Q 1578 397 2138 397 
Q 2388 397 2633 464 
Q 2878 531 3122 666 
L 3122 134 
Q 2881 22 2623 -34 
Q 2366 -91 2075 -91 
Q 1284 -91 818 406 
Q 353 903 353 1747 
Q 353 2603 823 3093 
Q 1294 3584 2113 3584 
Q 2378 3584 2631 3529 
Q 2884 3475 3122 3366 
z
" transform="scale(0.015625)"/>
       <path id="DejaVuSans-79" d="M 2059 -325 
Q 1816 -950 1584 -1140 
Q 1353 -1331 966 -1331 
L 506 -1331 
L 506 -850 
L 844 -850 
Q 1081 -850 1212 -737 
Q 1344 -625 1503 -206 
L 1606 56 
L 191 3500 
L 800 3500 
L 1894 763 
L 2988 3500 
L 3597 3500 
L 2059 -325 
z
" transform="scale(0.015625)"/>
       <path id="DejaVuSans-65" d="M 3597 1894 
L 3597 1613 
L 953 1613 
Q 991 1019 1311 708 
Q 1631 397 2203 397 
Q 2534 397 2845 478 
Q 3156 559 3463 722 
L 3463 178 
Q 3153 47 2828 -22 
Q 2503 -91 2169 -91 
Q 1331 -91 842 396 
Q 353 884 353 1716 
Q 353 2575 817 3079 
Q 1281 3584 2069 3584 
Q 2775 3584 3186 3129 
Q 3597 2675 3597 1894 
z
M 3022 2063 
Q 3016 2534 2758 2815 
Q 2500 3097 2075 3097 
Q 1594 3097 1305 2825 
Q 1016 2553 972 2059 
L 3022 2063 
z
" transform="scale(0.015625)"/>
       <path id="DejaVuSans-29" d="M 513 4856 
L 1013 4856 
Q 1481 4119 1714 3412 
Q 1947 2706 1947 2009 
Q 1947 1309 1714 600 
Q 1481 -109 1013 -844 
L 513 -844 
Q 928 -128 1133 580 
Q 1338 1288 1338 2009 
Q 1338 2731 1133 3434 
Q 928 4138 513 4856 
z
" transform="scale(0.015625)"/>
      </defs>
      <use xlink:href="#DejaVuSans-43"/>
      <use xlink:href="#DejaVuSans-50" transform="translate(69.824219 0)"/>
      <use xlink:href="#DejaVuSans-55" transform="translate(130.126953 0)"/>
      <use xlink:href="#DejaVuSans-20" transform="translate(203.320312 0)"/>
      <use xlink:href="#DejaVuSans-55" transform="translate(235.107422 0)"/>
      <use xlink:href="#DejaVuSans-74" transform="translate(308.300781 0)"/>
      <use xlink:href="#DejaVuSans-69" transform="translate(347.509766 0)"/>
      <use xlink:href="#DejaVuSans-6c" transform="translate(375.292969 0)"/>
      <use xlink:href="#DejaVuSans-69" transform="translate(403.076172 0)"/>
      <use xlink:href="#DejaVuSans-73" transform="translate(430.859375 0)"/>
      <use xlink:href="#DejaVuSans-61" transform="translate(482.958984 0)"/>
      <use xlink:href="#DejaVuSans-74" transform="translate(544.238281 0)"/>
      <use xlink:href="#DejaVuSans-69" transform="translate(583.447266 0)"/>
      <use xlink:href="#DejaVuSans-6f" transform="translate(611.230469 0)"/>
      <use xlink:href="#DejaVuSans-6e" transform="translate(672.412109 0)"/>
      <use xlink:href="#DejaVuSans-20" transform="translate(735.791016 0)"/>
      <use xlink:href="#DejaVuSans-28" transform="translate(767.578125 0)"/>
      <use xlink:href="#DejaVuSans-63" transform="translate(806.591797 0)"/>
      <use xlink:href="#DejaVuSans-79" transform="translate(861.572266 0)"/>
      <use xlink:href="#DejaVuSans-63" transform="translate(920.751953 0)"/>
      <use xlink:href="#DejaVuSans-6c" transform="translate(975.732422 0)"/>
      <use xlink:href="#DejaVuSans-65" transform="translate(1003.515625 0)"/>
      <use xlink:href="#DejaVuSans-73" transform="translate(1065.039062 0)"/>
      <use xlink:href="#DejaVuSans-29" transform="translate(1117.138672 0)"/>
     </g>
    </g>
    <g id="text_23">
     <!-- 1e9 -->
     <g transform="translate(36.17625 20.837812) scale(0.1 -0.1)">
      <use xlink:href="#DejaVuSans-31"/>
      <use xlink:href="#DejaVuSans-65" transform="translate(63.623047 0)"/>
      <use xlink:href="#DejaVuSans-39" transform="translate(125.146484 0)"/>
     </g>
    </g>
   </g>
   <g id="line2d_41">
    <path d="M 64.977614 312.72158 
L 112.979886 310.460832 
L 160.982159 306.33032 
L 208.984432 297.489949 
L 256.986705 303.820561 
L 304.988977 313.468764 
L 352.99125 309.832473 
L 400.993523 306.315832 
L 448.995795 303.006395 
L 496.998068 299.888058 
L 545.000341 296.823608 
L 593.002614 295.611958 
L 641.004886 296.649324 
" clip-path="url(#p0316752f29)" style="fill: none; stroke-dasharray: 7.4,3.2; stroke-dashoffset: 0; stroke: #1f77b4; stroke-width: 2"/>
    <defs>
     <path id="md97ffc4589" d="M 0 3 
C 0.795609 3 1.55874 2.683901 2.12132 2.12132 
C 2.683901 1.55874 3 0.795609 3 0 
C 3 -0.795609 2.683901 -1.55874 2.12132 -2.12132 
C 1.55874 -2.683901 0.795609 -3 0 -3 
C -0.795609 -3 -1.55874 -2.683901 -2.12132 -2.12132 
C -2.683901 -1.55874 -3 -0.795609 -3 0 
C -3 0.795609 -2.683901 1.55874 -2.12132 2.12132 
C -1.55874 2.683901 -0.795609 3 0 3 
z
" style="stroke: #1f77b4"/>
    </defs>
    <g clip-path="url(#p0316752f29)">
     <use xlink:href="#md97ffc4589" x="64.977614" y="312.72158" style="fill: #1f77b4; stroke: #1f77b4"/>
     <use xlink:href="#md97ffc4589" x="112.979886" y="310.460832" style="fill: #1f77b4; stroke: #1f77b4"/>
     <use xlink:href="#md97ffc4589" x="160.982159" y="306.33032" style="fill: #1f77b4; stroke: #1f77b4"/>
     <use xlink:href="#md97ffc4589" x="208.984432" y="297.489949" style="fill: #1f77b4; stroke: #1f77b4"/>
     <use xlink:href="#md97ffc4589" x="256.986705" y="303.820561" style="fill: #1f77b4; stroke: #1f77b4"/>
     <use xlink:href="#md97ffc4589" x="304.988977" y="313.468764" style="fill: #1f77b4; stroke: #1f77b4"/>
     <use xlink:href="#md97ffc4589" x="352.99125" y="309.832473" style="fill: #1f77b4; stroke: #1f77b4"/>
     <use xlink:href="#md97ffc4589" x="400.993523" y="306.315832" style="fill: #1f77b4; stroke: #1f77b4"/>
     <use xlink:href="#md97ffc4589" x="448.995795" y="303.006395" style="fill: #1f77b4; stroke: #1f77b4"/>
     <use xlink:href="#md97ffc4589" x="496.998068" y="299.888058" style="fill: #1f77b4; stroke: #1f77b4"/>
     <use xlink:href="#md97ffc4589" x="545.000341" y="296.823608" style="fill: #1f77b4; stroke: #1f77b4"/>
     <use xlink:href="#md97ffc4589" x="593.002614" y="295.611958" style="fill: #1f77b4; stroke: #1f77b4"/>
     <use xlink:href="#md97ffc4589" x="641.004886" y="296.649324" style="fill: #1f77b4; stroke: #1f77b4"/>
    </g>
   </g>
   <g id="line2d_42">
    <path d="M 64.977614 298.398731 
L 112.979886 294.096091 
L 160.982159 282.73949 
L 208.984432 276.208939 
L 256.986705 210.957954 
L 304.988977 151.539748 
L 352.99125 169.846923 
L 400.993523 181.23274 
L 448.995795 191.955059 
L 496.998068 199.620368 
L 545.000341 207.636322 
L 593.002614 212.339851 
L 641.004886 211.948601 
" clip-path="url(#p0316752f29)" style="fill: none; stroke: #1f77b4; stroke-width: 2; stroke-linecap: square"/>
    <defs>
     <path id="m9d1aa6ccbc" d="M -3 3 
L 3 3 
L 3 -3 
L -3 -3 
z
" style="stroke: #1f77b4; stroke-linejoin: miter"/>
    </defs>
    <g clip-path="url(#p0316752f29)">
     <use xlink:href="#m9d1aa6ccbc" x="64.977614" y="298.398731" style="fill: #1f77b4; stroke: #1f77b4; stroke-linejoin: miter"/>
     <use xlink:href="#m9d1aa6ccbc" x="112.979886" y="294.096091" style="fill: #1f77b4; stroke: #1f77b4; stroke-linejoin: miter"/>
     <use xlink:href="#m9d1aa6ccbc" x="160.982159" y="282.73949" style="fill: #1f77b4; stroke: #1f77b4; stroke-linejoin: miter"/>
     <use xlink:href="#m9d1aa6ccbc" x="208.984432" y="276.208939" style="fill: #1f77b4; stroke: #1f77b4; stroke-linejoin: miter"/>
     <use xlink:href="#m9d1aa6ccbc" x="256.986705" y="210.957954" style="fill: #1f77b4; stroke: #1f77b4; stroke-linejoin: miter"/>
     <use xlink:href="#m9d1aa6ccbc" x="304.988977" y="151.539748" style="fill: #1f77b4; stroke: #1f77b4; stroke-linejoin: miter"/>
     <use xlink:href="#m9d1aa6ccbc" x="352.99125" y="169.846923" style="fill: #1f77b4; stroke: #1f77b4; stroke-linejoin: miter"/>
     <use xlink:href="#m9d1aa6ccbc" x="400.993523" y="181.23274" style="fill: #1f77b4; stroke: #1f77b4; stroke-linejoin: miter"/>
     <use xlink:href="#m9d1aa6ccbc" x="448.995795" y="191.955059" style="fill: #1f77b4; stroke: #1f77b4; stroke-linejoin: miter"/>
     <use xlink:href="#m9d1aa6ccbc" x="496.998068" y="199.620368" style="fill: #1f77b4; stroke: #1f77b4; stroke-linejoin: miter"/>
     <use xlink:href="#m9d1aa6ccbc" x="545.000341" y="207.636322" style="fill: #1f77b4; stroke: #1f77b4; stroke-linejoin: miter"/>
     <use xlink:href="#m9d1aa6ccbc" x="593.002614" y="212.339851" style="fill: #1f77b4; stroke: #1f77b4; stroke-linejoin: miter"/>
     <use xlink:href="#m9d1aa6ccbc" x="641.004886" y="211.948601" style="fill: #1f77b4; stroke: #1f77b4; stroke-linejoin: miter"/>
    </g>
   </g>
   <g id="line2d_43">
    <path d="M 64.977614 284.180534 
L 112.979886 279.66001 
L 160.982159 264.403773 
L 208.984432 256.907239 
L 256.986705 205.0673 
L 304.988977 180.659955 
L 352.99125 197.005568 
L 400.993523 207.065375 
L 448.995795 215.456696 
L 496.998068 220.940168 
L 545.000341 226.212343 
L 593.002614 228.846712 
L 641.004886 228.379461 
" clip-path="url(#p0316752f29)" style="fill: none; stroke-dasharray: 7.4,3.2; stroke-dashoffset: 0; stroke: #ff7f0e; stroke-width: 2"/>
    <defs>
     <path id="m76702c6b8f" d="M 0 3 
C 0.795609 3 1.55874 2.683901 2.12132 2.12132 
C 2.683901 1.55874 3 0.795609 3 0 
C 3 -0.795609 2.683901 -1.55874 2.12132 -2.12132 
C 1.55874 -2.683901 0.795609 -3 0 -3 
C -0.795609 -3 -1.55874 -2.683901 -2.12132 -2.12132 
C -2.683901 -1.55874 -3 -0.795609 -3 0 
C -3 0.795609 -2.683901 1.55874 -2.12132 2.12132 
C -1.55874 2.683901 -0.795609 3 0 3 
z
" style="stroke: #ff7f0e"/>
    </defs>
    <g clip-path="url(#p0316752f29)">
     <use xlink:href="#m76702c6b8f" x="64.977614" y="284.180534" style="fill: #ff7f0e; stroke: #ff7f0e"/>
     <use xlink:href="#m76702c6b8f" x="112.979886" y="279.66001" style="fill: #ff7f0e; stroke: #ff7f0e"/>
     <use xlink:href="#m76702c6b8f" x="160.982159" y="264.403773" style="fill: #ff7f0e; stroke: #ff7f0e"/>
     <use xlink:href="#m76702c6b8f" x="208.984432" y="256.907239" style="fill: #ff7f0e; stroke: #ff7f0e"/>
     <use xlink:href="#m76702c6b8f" x="256.986705" y="205.0673" style="fill: #ff7f0e; stroke: #ff7f0e"/>
     <use xlink:href="#m76702c6b8f" x="304.988977" y="180.659955" style="fill: #ff7f0e; stroke: #ff7f0e"/>
     <use xlink:href="#m76702c6b8f" x="352.99125" y="197.005568" style="fill: #ff7f0e; stroke: #ff7f0e"/>
     <use xlink:href="#m76702c6b8f" x="400.993523" y="207.065375" style="fill: #ff7f0e; stroke: #ff7f0e"/>
     <use xlink:href="#m76702c6b8f" x="448.995795" y="215.456696" style="fill: #ff7f0e; stroke: #ff7f0e"/>
     <use xlink:href="#m76702c6b8f" x="496.998068" y="220.940168" style="fill: #ff7f0e; stroke: #ff7f0e"/>
     <use xlink:href="#m76702c6b8f" x="545.000341" y="226.212343" style="fill: #ff7f0e; stroke: #ff7f0e"/>
     <use xlink:href="#m76702c6b8f" x="593.002614" y="228.846712" style="fill: #ff7f0e; stroke: #ff7f0e"/>
     <use xlink:href="#m76702c6b8f" x="641.004886" y="228.379461" style="fill: #ff7f0e; stroke: #ff7f0e"/>
    </g>
   </g>
   <g id="line2d_44">
    <path d="M 64.977614 284.449413 
L 112.979886 280.125522 
L 160.982159 266.702343 
L 208.984432 258.629058 
L 256.986705 262.075765 
L 304.988977 309.178159 
L 352.99125 306.476539 
L 400.993523 302.777597 
L 448.995795 298.879592 
L 496.998068 294.653614 
L 545.000341 289.853272 
L 593.002614 287.679265 
L 641.004886 288.672657 
" clip-path="url(#p0316752f29)" style="fill: none; stroke: #ff7f0e; stroke-width: 2; stroke-linecap: square"/>
    <defs>
     <path id="mad935b5b3b" d="M -3 3 
L 3 3 
L 3 -3 
L -3 -3 
z
" style="stroke: #ff7f0e; stroke-linejoin: miter"/>
    </defs>
    <g clip-path="url(#p0316752f29)">
     <use xlink:href="#mad935b5b3b" x="64.977614" y="284.449413" style="fill: #ff7f0e; stroke: #ff7f0e; stroke-linejoin: miter"/>
     <use xlink:href="#mad935b5b3b" x="112.979886" y="280.125522" style="fill: #ff7f0e; stroke: #ff7f0e; stroke-linejoin: miter"/>
     <use xlink:href="#mad935b5b3b" x="160.982159" y="266.702343" style="fill: #ff7f0e; stroke: #ff7f0e; stroke-linejoin: miter"/>
     <use xlink:href="#mad935b5b3b" x="208.984432" y="258.629058" style="fill: #ff7f0e; stroke: #ff7f0e; stroke-linejoin: miter"/>
     <use xlink:href="#mad935b5b3b" x="256.986705" y="262.075765" style="fill: #ff7f0e; stroke: #ff7f0e; stroke-linejoin: miter"/>
     <use xlink:href="#mad935b5b3b" x="304.988977" y="309.178159" style="fill: #ff7f0e; stroke: #ff7f0e; stroke-linejoin: miter"/>
     <use xlink:href="#mad935b5b3b" x="352.99125" y="306.476539" style="fill: #ff7f0e; stroke: #ff7f0e; stroke-linejoin: miter"/>
     <use xlink:href="#mad935b5b3b" x="400.993523" y="302.777597" style="fill: #ff7f0e; stroke: #ff7f0e; stroke-linejoin: miter"/>
     <use xlink:href="#mad935b5b3b" x="448.995795" y="298.879592" style="fill: #ff7f0e; stroke: #ff7f0e; stroke-linejoin: miter"/>
     <use xlink:href="#mad935b5b3b" x="496.998068" y="294.653614" style="fill: #ff7f0e; stroke: #ff7f0e; stroke-linejoin: miter"/>
     <use xlink:href="#mad935b5b3b" x="545.000341" y="289.853272" style="fill: #ff7f0e; stroke: #ff7f0e; stroke-linejoin: miter"/>
     <use xlink:href="#mad935b5b3b" x="593.002614" y="287.679265" style="fill: #ff7f0e; stroke: #ff7f0e; stroke-linejoin: miter"/>
     <use xlink:href="#mad935b5b3b" x="641.004886" y="288.672657" style="fill: #ff7f0e; stroke: #ff7f0e; stroke-linejoin: miter"/>
    </g>
   </g>
   <g id="line2d_45">
    <path d="M 64.977614 204.817093 
L 112.979886 194.559093 
L 160.982159 166.599588 
L 208.984432 134.468275 
L 256.986705 55.204623 
L 304.988977 37.629763 
L 352.99125 55.458373 
L 400.993523 67.875352 
L 448.995795 74.714898 
L 496.998068 77.05202 
L 545.000341 81.246531 
L 593.002614 80.789238 
L 641.004886 78.603676 
" clip-path="url(#p0316752f29)" style="fill: none; stroke-dasharray: 7.4,3.2; stroke-dashoffset: 0; stroke: #2ca02c; stroke-width: 2"/>
    <defs>
     <path id="m272c1c20a8" d="M 0 3 
C 0.795609 3 1.55874 2.683901 2.12132 2.12132 
C 2.683901 1.55874 3 0.795609 3 0 
C 3 -0.795609 2.683901 -1.55874 2.12132 -2.12132 
C 1.55874 -2.683901 0.795609 -3 0 -3 
C -0.795609 -3 -1.55874 -2.683901 -2.12132 -2.12132 
C -2.683901 -1.55874 -3 -0.795609 -3 0 
C -3 0.795609 -2.683901 1.55874 -2.12132 2.12132 
C -1.55874 2.683901 -0.795609 3 0 3 
z
" style="stroke: #2ca02c"/>
    </defs>
    <g clip-path="url(#p0316752f29)">
     <use xlink:href="#m272c1c20a8" x="64.977614" y="204.817093" style="fill: #2ca02c; stroke: #2ca02c"/>
     <use xlink:href="#m272c1c20a8" x="112.979886" y="194.559093" style="fill: #2ca02c; stroke: #2ca02c"/>
     <use xlink:href="#m272c1c20a8" x="160.982159" y="166.599588" style="fill: #2ca02c; stroke: #2ca02c"/>
     <use xlink:href="#m272c1c20a8" x="208.984432" y="134.468275" style="fill: #2ca02c; stroke: #2ca02c"/>
     <use xlink:href="#m272c1c20a8" x="256.986705" y="55.204623" style="fill: #2ca02c; stroke: #2ca02c"/>
     <use xlink:href="#m272c1c20a8" x="304.988977" y="37.629763" style="fill: #2ca02c; stroke: #2ca02c"/>
     <use xlink:href="#m272c1c20a8" x="352.99125" y="55.458373" style="fill: #2ca02c; stroke: #2ca02c"/>
     <use xlink:href="#m272c1c20a8" x="400.993523" y="67.875352" style="fill: #2ca02c; stroke: #2ca02c"/>
     <use xlink:href="#m272c1c20a8" x="448.995795" y="74.714898" style="fill: #2ca02c; stroke: #2ca02c"/>
     <use xlink:href="#m272c1c20a8" x="496.998068" y="77.05202" style="fill: #2ca02c; stroke: #2ca02c"/>
     <use xlink:href="#m272c1c20a8" x="545.000341" y="81.246531" style="fill: #2ca02c; stroke: #2ca02c"/>
     <use xlink:href="#m272c1c20a8" x="593.002614" y="80.789238" style="fill: #2ca02c; stroke: #2ca02c"/>
     <use xlink:href="#m272c1c20a8" x="641.004886" y="78.603676" style="fill: #2ca02c; stroke: #2ca02c"/>
    </g>
   </g>
   <g id="line2d_46">
    <path d="M 64.977614 226.748387 
L 112.979886 216.875381 
L 160.982159 188.65652 
L 208.984432 167.433262 
L 256.986705 80.72497 
L 304.988977 44.558657 
L 352.99125 63.029712 
L 400.993523 74.165604 
L 448.995795 80.893499 
L 496.998068 82.565942 
L 545.000341 86.773943 
L 593.002614 86.703468 
L 641.004886 84.468802 
" clip-path="url(#p0316752f29)" style="fill: none; stroke: #2ca02c; stroke-width: 2; stroke-linecap: square"/>
    <defs>
     <path id="m54bd1ffa0f" d="M -3 3 
L 3 3 
L 3 -3 
L -3 -3 
z
" style="stroke: #2ca02c; stroke-linejoin: miter"/>
    </defs>
    <g clip-path="url(#p0316752f29)">
     <use xlink:href="#m54bd1ffa0f" x="64.977614" y="226.748387" style="fill: #2ca02c; stroke: #2ca02c; stroke-linejoin: miter"/>
     <use xlink:href="#m54bd1ffa0f" x="112.979886" y="216.875381" style="fill: #2ca02c; stroke: #2ca02c; stroke-linejoin: miter"/>
     <use xlink:href="#m54bd1ffa0f" x="160.982159" y="188.65652" style="fill: #2ca02c; stroke: #2ca02c; stroke-linejoin: miter"/>
     <use xlink:href="#m54bd1ffa0f" x="208.984432" y="167.433262" style="fill: #2ca02c; stroke: #2ca02c; stroke-linejoin: miter"/>
     <use xlink:href="#m54bd1ffa0f" x="256.986705" y="80.72497" style="fill: #2ca02c; stroke: #2ca02c; stroke-linejoin: miter"/>
     <use xlink:href="#m54bd1ffa0f" x="304.988977" y="44.558657" style="fill: #2ca02c; stroke: #2ca02c; stroke-linejoin: miter"/>
     <use xlink:href="#m54bd1ffa0f" x="352.99125" y="63.029712" style="fill: #2ca02c; stroke: #2ca02c; stroke-linejoin: miter"/>
     <use xlink:href="#m54bd1ffa0f" x="400.993523" y="74.165604" style="fill: #2ca02c; stroke: #2ca02c; stroke-linejoin: miter"/>
     <use xlink:href="#m54bd1ffa0f" x="448.995795" y="80.893499" style="fill: #2ca02c; stroke: #2ca02c; stroke-linejoin: miter"/>
     <use xlink:href="#m54bd1ffa0f" x="496.998068" y="82.565942" style="fill: #2ca02c; stroke: #2ca02c; stroke-linejoin: miter"/>
     <use xlink:href="#m54bd1ffa0f" x="545.000341" y="86.773943" style="fill: #2ca02c; stroke: #2ca02c; stroke-linejoin: miter"/>
     <use xlink:href="#m54bd1ffa0f" x="593.002614" y="86.703468" style="fill: #2ca02c; stroke: #2ca02c; stroke-linejoin: miter"/>
     <use xlink:href="#m54bd1ffa0f" x="641.004886" y="84.468802" style="fill: #2ca02c; stroke: #2ca02c; stroke-linejoin: miter"/>
    </g>
   </g>
   <g id="line2d_47">
    <path d="M 64.977614 289.847372 
L 112.979886 285.671138 
L 160.982159 274.113261 
L 208.984432 262.221526 
L 256.986705 268.388626 
L 304.988977 284.447475 
L 352.99125 273.232665 
L 400.993523 261.628999 
L 448.995795 248.657549 
L 496.998068 235.720578 
L 545.000341 206.431812 
L 593.002614 169.48981 
L 641.004886 175.960204 
" clip-path="url(#p0316752f29)" style="fill: none; stroke-dasharray: 7.4,3.2; stroke-dashoffset: 0; stroke: #d62728; stroke-width: 2"/>
    <defs>
     <path id="m7d85b51e67" d="M 0 3 
C 0.795609 3 1.55874 2.683901 2.12132 2.12132 
C 2.683901 1.55874 3 0.795609 3 0 
C 3 -0.795609 2.683901 -1.55874 2.12132 -2.12132 
C 1.55874 -2.683901 0.795609 -3 0 -3 
C -0.795609 -3 -1.55874 -2.683901 -2.12132 -2.12132 
C -2.683901 -1.55874 -3 -0.795609 -3 0 
C -3 0.795609 -2.683901 1.55874 -2.12132 2.12132 
C -1.55874 2.683901 -0.795609 3 0 3 
z
" style="stroke: #d62728"/>
    </defs>
    <g clip-path="url(#p0316752f29)">
     <use xlink:href="#m7d85b51e67" x="64.977614" y="289.847372" style="fill: #d62728; stroke: #d62728"/>
     <use xlink:href="#m7d85b51e67" x="112.979886" y="285.671138" style="fill: #d62728; stroke: #d62728"/>
     <use xlink:href="#m7d85b51e67" x="160.982159" y="274.113261" style="fill: #d62728; stroke: #d62728"/>
     <use xlink:href="#m7d85b51e67" x="208.984432" y="262.221526" style="fill: #d62728; stroke: #d62728"/>
     <use xlink:href="#m7d85b51e67" x="256.986705" y="268.388626" style="fill: #d62728; stroke: #d62728"/>
     <use xlink:href="#m7d85b51e67" x="304.988977" y="284.447475" style="fill: #d62728; stroke: #d62728"/>
     <use xlink:href="#m7d85b51e67" x="352.99125" y="273.232665" style="fill: #d62728; stroke: #d62728"/>
     <use xlink:href="#m7d85b51e67" x="400.993523" y="261.628999" style="fill: #d62728; stroke: #d62728"/>
     <use xlink:href="#m7d85b51e67" x="448.995795" y="248.657549" style="fill: #d62728; stroke: #d62728"/>
     <use xlink:href="#m7d85b51e67" x="496.998068" y="235.720578" style="fill: #d62728; stroke: #d62728"/>
     <use xlink:href="#m7d85b51e67" x="545.000341" y="206.431812" style="fill: #d62728; stroke: #d62728"/>
     <use xlink:href="#m7d85b51e67" x="593.002614" y="169.48981" style="fill: #d62728; stroke: #d62728"/>
     <use xlink:href="#m7d85b51e67" x="641.004886" y="175.960204" style="fill: #d62728; stroke: #d62728"/>
    </g>
   </g>
   <g id="line2d_48">
    <path d="M 64.977614 290.679656 
L 112.979886 286.099959 
L 160.982159 273.140736 
L 208.984432 267.090323 
L 256.986705 268.745664 
L 304.988977 285.163125 
L 352.99125 274.09898 
L 400.993523 261.792165 
L 448.995795 248.960055 
L 496.998068 235.594814 
L 545.000341 209.155423 
L 593.002614 170.684071 
L 641.004886 175.570979 
" clip-path="url(#p0316752f29)" style="fill: none; stroke: #d62728; stroke-width: 2; stroke-linecap: square"/>
    <defs>
     <path id="m8e57f031dd" d="M -3 3 
L 3 3 
L 3 -3 
L -3 -3 
z
" style="stroke: #d62728; stroke-linejoin: miter"/>
    </defs>
    <g clip-path="url(#p0316752f29)">
     <use xlink:href="#m8e57f031dd" x="64.977614" y="290.679656" style="fill: #d62728; stroke: #d62728; stroke-linejoin: miter"/>
     <use xlink:href="#m8e57f031dd" x="112.979886" y="286.099959" style="fill: #d62728; stroke: #d62728; stroke-linejoin: miter"/>
     <use xlink:href="#m8e57f031dd" x="160.982159" y="273.140736" style="fill: #d62728; stroke: #d62728; stroke-linejoin: miter"/>
     <use xlink:href="#m8e57f031dd" x="208.984432" y="267.090323" style="fill: #d62728; stroke: #d62728; stroke-linejoin: miter"/>
     <use xlink:href="#m8e57f031dd" x="256.986705" y="268.745664" style="fill: #d62728; stroke: #d62728; stroke-linejoin: miter"/>
     <use xlink:href="#m8e57f031dd" x="304.988977" y="285.163125" style="fill: #d62728; stroke: #d62728; stroke-linejoin: miter"/>
     <use xlink:href="#m8e57f031dd" x="352.99125" y="274.09898" style="fill: #d62728; stroke: #d62728; stroke-linejoin: miter"/>
     <use xlink:href="#m8e57f031dd" x="400.993523" y="261.792165" style="fill: #d62728; stroke: #d62728; stroke-linejoin: miter"/>
     <use xlink:href="#m8e57f031dd" x="448.995795" y="248.960055" style="fill: #d62728; stroke: #d62728; stroke-linejoin: miter"/>
     <use xlink:href="#m8e57f031dd" x="496.998068" y="235.594814" style="fill: #d62728; stroke: #d62728; stroke-linejoin: miter"/>
     <use xlink:href="#m8e57f031dd" x="545.000341" y="209.155423" style="fill: #d62728; stroke: #d62728; stroke-linejoin: miter"/>
     <use xlink:href="#m8e57f031dd" x="593.002614" y="170.684071" style="fill: #d62728; stroke: #d62728; stroke-linejoin: miter"/>
     <use xlink:href="#m8e57f031dd" x="641.004886" y="175.570979" style="fill: #d62728; stroke: #d62728; stroke-linejoin: miter"/>
    </g>
   </g>
   <g id="line2d_49">
    <path d="M 64.977614 276.996581 
L 112.979886 272.305128 
L 160.982159 260.955402 
L 208.984432 235.544565 
L 256.986705 219.849914 
L 304.988977 212.175654 
L 352.99125 183.849239 
L 400.993523 154.455583 
L 448.995795 124.152441 
L 496.998068 95.973631 
L 545.000341 65.557705 
L 593.002614 53.165996 
L 641.004886 63.694617 
" clip-path="url(#p0316752f29)" style="fill: none; stroke-dasharray: 7.4,3.2; stroke-dashoffset: 0; stroke: #9467bd; stroke-width: 2"/>
    <defs>
     <path id="m62f16efc91" d="M 0 3 
C 0.795609 3 1.55874 2.683901 2.12132 2.12132 
C 2.683901 1.55874 3 0.795609 3 0 
C 3 -0.795609 2.683901 -1.55874 2.12132 -2.12132 
C 1.55874 -2.683901 0.795609 -3 0 -3 
C -0.795609 -3 -1.55874 -2.683901 -2.12132 -2.12132 
C -2.683901 -1.55874 -3 -0.795609 -3 0 
C -3 0.795609 -2.683901 1.55874 -2.12132 2.12132 
C -1.55874 2.683901 -0.795609 3 0 3 
z
" style="stroke: #9467bd"/>
    </defs>
    <g clip-path="url(#p0316752f29)">
     <use xlink:href="#m62f16efc91" x="64.977614" y="276.996581" style="fill: #9467bd; stroke: #9467bd"/>
     <use xlink:href="#m62f16efc91" x="112.979886" y="272.305128" style="fill: #9467bd; stroke: #9467bd"/>
     <use xlink:href="#m62f16efc91" x="160.982159" y="260.955402" style="fill: #9467bd; stroke: #9467bd"/>
     <use xlink:href="#m62f16efc91" x="208.984432" y="235.544565" style="fill: #9467bd; stroke: #9467bd"/>
     <use xlink:href="#m62f16efc91" x="256.986705" y="219.849914" style="fill: #9467bd; stroke: #9467bd"/>
     <use xlink:href="#m62f16efc91" x="304.988977" y="212.175654" style="fill: #9467bd; stroke: #9467bd"/>
     <use xlink:href="#m62f16efc91" x="352.99125" y="183.849239" style="fill: #9467bd; stroke: #9467bd"/>
     <use xlink:href="#m62f16efc91" x="400.993523" y="154.455583" style="fill: #9467bd; stroke: #9467bd"/>
     <use xlink:href="#m62f16efc91" x="448.995795" y="124.152441" style="fill: #9467bd; stroke: #9467bd"/>
     <use xlink:href="#m62f16efc91" x="496.998068" y="95.973631" style="fill: #9467bd; stroke: #9467bd"/>
     <use xlink:href="#m62f16efc91" x="545.000341" y="65.557705" style="fill: #9467bd; stroke: #9467bd"/>
     <use xlink:href="#m62f16efc91" x="593.002614" y="53.165996" style="fill: #9467bd; stroke: #9467bd"/>
     <use xlink:href="#m62f16efc91" x="641.004886" y="63.694617" style="fill: #9467bd; stroke: #9467bd"/>
    </g>
   </g>
   <g id="line2d_50">
    <path d="M 64.977614 280.928009 
L 112.979886 275.763868 
L 160.982159 261.491453 
L 208.984432 247.304772 
L 256.986705 228.370104 
L 304.988977 213.216917 
L 352.99125 184.821776 
L 400.993523 156.009141 
L 448.995795 125.136598 
L 496.998068 97.198512 
L 545.000341 67.755022 
L 593.002614 55.797385 
L 641.004886 63.996238 
" clip-path="url(#p0316752f29)" style="fill: none; stroke: #9467bd; stroke-width: 2; stroke-linecap: square"/>
    <defs>
     <path id="m794e39ddda" d="M -3 3 
L 3 3 
L 3 -3 
L -3 -3 
z
" style="stroke: #9467bd; stroke-linejoin: miter"/>
    </defs>
    <g clip-path="url(#p0316752f29)">
     <use xlink:href="#m794e39ddda" x="64.977614" y="280.928009" style="fill: #9467bd; stroke: #9467bd; stroke-linejoin: miter"/>
     <use xlink:href="#m794e39ddda" x="112.979886" y="275.763868" style="fill: #9467bd; stroke: #9467bd; stroke-linejoin: miter"/>
     <use xlink:href="#m794e39ddda" x="160.982159" y="261.491453" style="fill: #9467bd; stroke: #9467bd; stroke-linejoin: miter"/>
     <use xlink:href="#m794e39ddda" x="208.984432" y="247.304772" style="fill: #9467bd; stroke: #9467bd; stroke-linejoin: miter"/>
     <use xlink:href="#m794e39ddda" x="256.986705" y="228.370104" style="fill: #9467bd; stroke: #9467bd; stroke-linejoin: miter"/>
     <use xlink:href="#m794e39ddda" x="304.988977" y="213.216917" style="fill: #9467bd; stroke: #9467bd; stroke-linejoin: miter"/>
     <use xlink:href="#m794e39ddda" x="352.99125" y="184.821776" style="fill: #9467bd; stroke: #9467bd; stroke-linejoin: miter"/>
     <use xlink:href="#m794e39ddda" x="400.993523" y="156.009141" style="fill: #9467bd; stroke: #9467bd; stroke-linejoin: miter"/>
     <use xlink:href="#m794e39ddda" x="448.995795" y="125.136598" style="fill: #9467bd; stroke: #9467bd; stroke-linejoin: miter"/>
     <use xlink:href="#m794e39ddda" x="496.998068" y="97.198512" style="fill: #9467bd; stroke: #9467bd; stroke-linejoin: miter"/>
     <use xlink:href="#m794e39ddda" x="545.000341" y="67.755022" style="fill: #9467bd; stroke: #9467bd; stroke-linejoin: miter"/>
     <use xlink:href="#m794e39ddda" x="593.002614" y="55.797385" style="fill: #9467bd; stroke: #9467bd; stroke-linejoin: miter"/>
     <use xlink:href="#m794e39ddda" x="641.004886" y="63.996238" style="fill: #9467bd; stroke: #9467bd; stroke-linejoin: miter"/>
    </g>
   </g>
   <g id="patch_3">
    <path d="M 36.17625 344.221812 
L 36.17625 23.837812 
" style="fill: none; stroke: #000000; stroke-width: 0.8; stroke-linejoin: miter; stroke-linecap: square"/>
   </g>
   <g id="patch_4">
    <path d="M 669.80625 344.221812 
L 669.80625 23.837812 
" style="fill: none; stroke: #000000; stroke-width: 0.8; stroke-linejoin: miter; stroke-linecap: square"/>
   </g>
   <g id="patch_5">
    <path d="M 36.17625 344.221812 
L 669.80625 344.221812 
" style="fill: none; stroke: #000000; stroke-width: 0.8; stroke-linejoin: miter; stroke-linecap: square"/>
   </g>
   <g id="patch_6">
    <path d="M 36.17625 23.837812 
L 669.80625 23.837812 
" style="fill: none; stroke: #000000; stroke-width: 0.8; stroke-linejoin: miter; stroke-linecap: square"/>
   </g>
   <g id="text_24">
    <!-- PD Utilisation (Meson): Pancake vs C -->
    <g transform="translate(207.724844 17.837812) scale(0.14 -0.14)">
     <defs>
      <path id="DejaVuSans-Bold-50" d="M 588 4666 
L 2584 4666 
Q 3475 4666 3951 4270 
Q 4428 3875 4428 3144 
Q 4428 2409 3951 2014 
Q 3475 1619 2584 1619 
L 1791 1619 
L 1791 0 
L 588 0 
L 588 4666 
z
M 1791 3794 
L 1791 2491 
L 2456 2491 
Q 2806 2491 2997 2661 
Q 3188 2831 3188 3144 
Q 3188 3456 2997 3625 
Q 2806 3794 2456 3794 
L 1791 3794 
z
" transform="scale(0.015625)"/>
      <path id="DejaVuSans-Bold-44" d="M 1791 3756 
L 1791 909 
L 2222 909 
Q 2959 909 3348 1275 
Q 3738 1641 3738 2338 
Q 3738 3031 3350 3393 
Q 2963 3756 2222 3756 
L 1791 3756 
z
M 588 4666 
L 1856 4666 
Q 2919 4666 3439 4514 
Q 3959 4363 4331 4000 
Q 4659 3684 4818 3271 
Q 4978 2859 4978 2338 
Q 4978 1809 4818 1395 
Q 4659 981 4331 666 
Q 3956 303 3431 151 
Q 2906 0 1856 0 
L 588 0 
L 588 4666 
z
" transform="scale(0.015625)"/>
      <path id="DejaVuSans-Bold-20" transform="scale(0.015625)"/>
      <path id="DejaVuSans-Bold-55" d="M 588 4666 
L 1791 4666 
L 1791 1869 
Q 1791 1291 1980 1042 
Q 2169 794 2597 794 
Q 3028 794 3217 1042 
Q 3406 1291 3406 1869 
L 3406 4666 
L 4609 4666 
L 4609 1869 
Q 4609 878 4112 393 
Q 3616 -91 2597 -91 
Q 1581 -91 1084 393 
Q 588 878 588 1869 
L 588 4666 
z
" transform="scale(0.015625)"/>
      <path id="DejaVuSans-Bold-74" d="M 1759 4494 
L 1759 3500 
L 2913 3500 
L 2913 2700 
L 1759 2700 
L 1759 1216 
Q 1759 972 1856 886 
Q 1953 800 2241 800 
L 2816 800 
L 2816 0 
L 1856 0 
Q 1194 0 917 276 
Q 641 553 641 1216 
L 641 2700 
L 84 2700 
L 84 3500 
L 641 3500 
L 641 4494 
L 1759 4494 
z
" transform="scale(0.015625)"/>
      <path id="DejaVuSans-Bold-69" d="M 538 3500 
L 1656 3500 
L 1656 0 
L 538 0 
L 538 3500 
z
M 538 4863 
L 1656 4863 
L 1656 3950 
L 538 3950 
L 538 4863 
z
" transform="scale(0.015625)"/>
      <path id="DejaVuSans-Bold-6c" d="M 538 4863 
L 1656 4863 
L 1656 0 
L 538 0 
L 538 4863 
z
" transform="scale(0.015625)"/>
      <path id="DejaVuSans-Bold-73" d="M 3272 3391 
L 3272 2541 
Q 2913 2691 2578 2766 
Q 2244 2841 1947 2841 
Q 1628 2841 1473 2761 
Q 1319 2681 1319 2516 
Q 1319 2381 1436 2309 
Q 1553 2238 1856 2203 
L 2053 2175 
Q 2913 2066 3209 1816 
Q 3506 1566 3506 1031 
Q 3506 472 3093 190 
Q 2681 -91 1863 -91 
Q 1516 -91 1145 -36 
Q 775 19 384 128 
L 384 978 
Q 719 816 1070 734 
Q 1422 653 1784 653 
Q 2113 653 2278 743 
Q 2444 834 2444 1013 
Q 2444 1163 2330 1236 
Q 2216 1309 1875 1350 
L 1678 1375 
Q 931 1469 631 1722 
Q 331 1975 331 2491 
Q 331 3047 712 3315 
Q 1094 3584 1881 3584 
Q 2191 3584 2531 3537 
Q 2872 3491 3272 3391 
z
" transform="scale(0.015625)"/>
      <path id="DejaVuSans-Bold-61" d="M 2106 1575 
Q 1756 1575 1579 1456 
Q 1403 1338 1403 1106 
Q 1403 894 1545 773 
Q 1688 653 1941 653 
Q 2256 653 2472 879 
Q 2688 1106 2688 1447 
L 2688 1575 
L 2106 1575 
z
M 3816 1997 
L 3816 0 
L 2688 0 
L 2688 519 
Q 2463 200 2181 54 
Q 1900 -91 1497 -91 
Q 953 -91 614 226 
Q 275 544 275 1050 
Q 275 1666 698 1953 
Q 1122 2241 2028 2241 
L 2688 2241 
L 2688 2328 
Q 2688 2594 2478 2717 
Q 2269 2841 1825 2841 
Q 1466 2841 1156 2769 
Q 847 2697 581 2553 
L 581 3406 
Q 941 3494 1303 3539 
Q 1666 3584 2028 3584 
Q 2975 3584 3395 3211 
Q 3816 2838 3816 1997 
z
" transform="scale(0.015625)"/>
      <path id="DejaVuSans-Bold-6f" d="M 2203 2784 
Q 1831 2784 1636 2517 
Q 1441 2250 1441 1747 
Q 1441 1244 1636 976 
Q 1831 709 2203 709 
Q 2569 709 2762 976 
Q 2956 1244 2956 1747 
Q 2956 2250 2762 2517 
Q 2569 2784 2203 2784 
z
M 2203 3584 
Q 3106 3584 3614 3096 
Q 4122 2609 4122 1747 
Q 4122 884 3614 396 
Q 3106 -91 2203 -91 
Q 1297 -91 786 396 
Q 275 884 275 1747 
Q 275 2609 786 3096 
Q 1297 3584 2203 3584 
z
" transform="scale(0.015625)"/>
      <path id="DejaVuSans-Bold-6e" d="M 4056 2131 
L 4056 0 
L 2931 0 
L 2931 347 
L 2931 1631 
Q 2931 2084 2911 2256 
Q 2891 2428 2841 2509 
Q 2775 2619 2662 2680 
Q 2550 2741 2406 2741 
Q 2056 2741 1856 2470 
Q 1656 2200 1656 1722 
L 1656 0 
L 538 0 
L 538 3500 
L 1656 3500 
L 1656 2988 
Q 1909 3294 2193 3439 
Q 2478 3584 2822 3584 
Q 3428 3584 3742 3212 
Q 4056 2841 4056 2131 
z
" transform="scale(0.015625)"/>
      <path id="DejaVuSans-Bold-28" d="M 2413 -844 
L 1484 -844 
Q 1006 -72 778 623 
Q 550 1319 550 2003 
Q 550 2688 779 3389 
Q 1009 4091 1484 4856 
L 2413 4856 
Q 2013 4116 1813 3408 
Q 1613 2700 1613 2009 
Q 1613 1319 1811 609 
Q 2009 -100 2413 -844 
z
" transform="scale(0.015625)"/>
      <path id="DejaVuSans-Bold-4d" d="M 588 4666 
L 2119 4666 
L 3181 2169 
L 4250 4666 
L 5778 4666 
L 5778 0 
L 4641 0 
L 4641 3413 
L 3566 897 
L 2803 897 
L 1728 3413 
L 1728 0 
L 588 0 
L 588 4666 
z
" transform="scale(0.015625)"/>
      <path id="DejaVuSans-Bold-65" d="M 4031 1759 
L 4031 1441 
L 1416 1441 
Q 1456 1047 1700 850 
Q 1944 653 2381 653 
Q 2734 653 3104 758 
Q 3475 863 3866 1075 
L 3866 213 
Q 3469 63 3072 -14 
Q 2675 -91 2278 -91 
Q 1328 -91 801 392 
Q 275 875 275 1747 
Q 275 2603 792 3093 
Q 1309 3584 2216 3584 
Q 3041 3584 3536 3087 
Q 4031 2591 4031 1759 
z
M 2881 2131 
Q 2881 2450 2695 2645 
Q 2509 2841 2209 2841 
Q 1884 2841 1681 2658 
Q 1478 2475 1428 2131 
L 2881 2131 
z
" transform="scale(0.015625)"/>
      <path id="DejaVuSans-Bold-29" d="M 513 -844 
Q 913 -100 1113 609 
Q 1313 1319 1313 2009 
Q 1313 2700 1113 3408 
Q 913 4116 513 4856 
L 1441 4856 
Q 1916 4091 2145 3389 
Q 2375 2688 2375 2003 
Q 2375 1319 2147 623 
Q 1919 -72 1441 -844 
L 513 -844 
z
" transform="scale(0.015625)"/>
      <path id="DejaVuSans-Bold-3a" d="M 716 3500 
L 1844 3500 
L 1844 2291 
L 716 2291 
L 716 3500 
z
M 716 1209 
L 1844 1209 
L 1844 0 
L 716 0 
L 716 1209 
z
" transform="scale(0.015625)"/>
      <path id="DejaVuSans-Bold-63" d="M 3366 3391 
L 3366 2478 
Q 3138 2634 2908 2709 
Q 2678 2784 2431 2784 
Q 1963 2784 1702 2511 
Q 1441 2238 1441 1747 
Q 1441 1256 1702 982 
Q 1963 709 2431 709 
Q 2694 709 2930 787 
Q 3166 866 3366 1019 
L 3366 103 
Q 3103 6 2833 -42 
Q 2563 -91 2291 -91 
Q 1344 -91 809 395 
Q 275 881 275 1747 
Q 275 2613 809 3098 
Q 1344 3584 2291 3584 
Q 2566 3584 2833 3536 
Q 3100 3488 3366 3391 
z
" transform="scale(0.015625)"/>
      <path id="DejaVuSans-Bold-6b" d="M 538 4863 
L 1656 4863 
L 1656 2216 
L 2944 3500 
L 4244 3500 
L 2534 1894 
L 4378 0 
L 3022 0 
L 1656 1459 
L 1656 0 
L 538 0 
L 538 4863 
z
" transform="scale(0.015625)"/>
      <path id="DejaVuSans-Bold-76" d="M 97 3500 
L 1216 3500 
L 2088 1081 
L 2956 3500 
L 4078 3500 
L 2700 0 
L 1472 0 
L 97 3500 
z
" transform="scale(0.015625)"/>
      <path id="DejaVuSans-Bold-43" d="M 4288 256 
Q 3956 84 3597 -3 
Q 3238 -91 2847 -91 
Q 1681 -91 1000 561 
Q 319 1213 319 2328 
Q 319 3447 1000 4098 
Q 1681 4750 2847 4750 
Q 3238 4750 3597 4662 
Q 3956 4575 4288 4403 
L 4288 3438 
Q 3953 3666 3628 3772 
Q 3303 3878 2944 3878 
Q 2300 3878 1931 3465 
Q 1563 3053 1563 2328 
Q 1563 1606 1931 1193 
Q 2300 781 2944 781 
Q 3303 781 3628 887 
Q 3953 994 4288 1222 
L 4288 256 
z
" transform="scale(0.015625)"/>
     </defs>
     <use xlink:href="#DejaVuSans-Bold-50"/>
     <use xlink:href="#DejaVuSans-Bold-44" transform="translate(73.291016 0)"/>
     <use xlink:href="#DejaVuSans-Bold-20" transform="translate(156.298828 0)"/>
     <use xlink:href="#DejaVuSans-Bold-55" transform="translate(191.113281 0)"/>
     <use xlink:href="#DejaVuSans-Bold-74" transform="translate(272.314453 0)"/>
     <use xlink:href="#DejaVuSans-Bold-69" transform="translate(320.117188 0)"/>
     <use xlink:href="#DejaVuSans-Bold-6c" transform="translate(354.394531 0)"/>
     <use xlink:href="#DejaVuSans-Bold-69" transform="translate(388.671875 0)"/>
     <use xlink:href="#DejaVuSans-Bold-73" transform="translate(422.949219 0)"/>
     <use xlink:href="#DejaVuSans-Bold-61" transform="translate(482.470703 0)"/>
     <use xlink:href="#DejaVuSans-Bold-74" transform="translate(549.951172 0)"/>
     <use xlink:href="#DejaVuSans-Bold-69" transform="translate(597.753906 0)"/>
     <use xlink:href="#DejaVuSans-Bold-6f" transform="translate(632.03125 0)"/>
     <use xlink:href="#DejaVuSans-Bold-6e" transform="translate(700.732422 0)"/>
     <use xlink:href="#DejaVuSans-Bold-20" transform="translate(771.923828 0)"/>
     <use xlink:href="#DejaVuSans-Bold-28" transform="translate(806.738281 0)"/>
     <use xlink:href="#DejaVuSans-Bold-4d" transform="translate(852.441406 0)"/>
     <use xlink:href="#DejaVuSans-Bold-65" transform="translate(951.953125 0)"/>
     <use xlink:href="#DejaVuSans-Bold-73" transform="translate(1019.775391 0)"/>
     <use xlink:href="#DejaVuSans-Bold-6f" transform="translate(1079.296875 0)"/>
     <use xlink:href="#DejaVuSans-Bold-6e" transform="translate(1147.998047 0)"/>
     <use xlink:href="#DejaVuSans-Bold-29" transform="translate(1219.189453 0)"/>
     <use xlink:href="#DejaVuSans-Bold-3a" transform="translate(1264.892578 0)"/>
     <use xlink:href="#DejaVuSans-Bold-20" transform="translate(1304.882812 0)"/>
     <use xlink:href="#DejaVuSans-Bold-50" transform="translate(1339.697266 0)"/>
     <use xlink:href="#DejaVuSans-Bold-61" transform="translate(1410.363281 0)"/>
     <use xlink:href="#DejaVuSans-Bold-6e" transform="translate(1477.84375 0)"/>
     <use xlink:href="#DejaVuSans-Bold-63" transform="translate(1549.035156 0)"/>
     <use xlink:href="#DejaVuSans-Bold-61" transform="translate(1608.3125 0)"/>
     <use xlink:href="#DejaVuSans-Bold-6b" transform="translate(1675.792969 0)"/>
     <use xlink:href="#DejaVuSans-Bold-65" transform="translate(1739.671875 0)"/>
     <use xlink:href="#DejaVuSans-Bold-20" transform="translate(1807.494141 0)"/>
     <use xlink:href="#DejaVuSans-Bold-76" transform="translate(1842.308594 0)"/>
     <use xlink:href="#DejaVuSans-Bold-73" transform="translate(1907.494141 0)"/>
     <use xlink:href="#DejaVuSans-Bold-20" transform="translate(1967.015625 0)"/>
     <use xlink:href="#DejaVuSans-Bold-43" transform="translate(2001.830078 0)"/>
    </g>
   </g>
   <g id="legend_1">
    <g id="patch_7">
     <path d="M 43.17625 61.194062 
L 116.429375 61.194062 
Q 118.429375 61.194062 118.429375 59.194062 
L 118.429375 30.837812 
Q 118.429375 28.837812 116.429375 28.837812 
L 43.17625 28.837812 
Q 41.17625 28.837812 41.17625 30.837812 
L 41.17625 59.194062 
Q 41.17625 61.194062 43.17625 61.194062 
z
" style="fill: #ffffff; opacity: 0.8; stroke: #cccccc; stroke-linejoin: miter"/>
    </g>
    <g id="line2d_51">
     <path d="M 45.17625 36.93625 
L 55.17625 36.93625 
L 65.17625 36.93625 
" style="fill: none; stroke-dasharray: 5.55,2.4; stroke-dashoffset: 0; stroke: #000000; stroke-width: 1.5"/>
     <defs>
      <path id="m4db575ab28" d="M 0 3 
C 0.795609 3 1.55874 2.683901 2.12132 2.12132 
C 2.683901 1.55874 3 0.795609 3 0 
C 3 -0.795609 2.683901 -1.55874 2.12132 -2.12132 
C 1.55874 -2.683901 0.795609 -3 0 -3 
C -0.795609 -3 -1.55874 -2.683901 -2.12132 -2.12132 
C -2.683901 -1.55874 -3 -0.795609 -3 0 
C -3 0.795609 -2.683901 1.55874 -2.12132 2.12132 
C -1.55874 2.683901 -0.795609 3 0 3 
z
" style="stroke: #000000"/>
     </defs>
     <g>
      <use xlink:href="#m4db575ab28" x="55.17625" y="36.93625" style="stroke: #000000"/>
     </g>
    </g>
    <g id="text_25">
     <!-- Pancake -->
     <g transform="translate(73.17625 40.43625) scale(0.1 -0.1)">
      <defs>
       <path id="DejaVuSans-6b" d="M 581 4863 
L 1159 4863 
L 1159 1991 
L 2875 3500 
L 3609 3500 
L 1753 1863 
L 3688 0 
L 2938 0 
L 1159 1709 
L 1159 0 
L 581 0 
L 581 4863 
z
" transform="scale(0.015625)"/>
      </defs>
      <use xlink:href="#DejaVuSans-50"/>
      <use xlink:href="#DejaVuSans-61" transform="translate(55.802734 0)"/>
      <use xlink:href="#DejaVuSans-6e" transform="translate(117.082031 0)"/>
      <use xlink:href="#DejaVuSans-63" transform="translate(180.460938 0)"/>
      <use xlink:href="#DejaVuSans-61" transform="translate(235.441406 0)"/>
      <use xlink:href="#DejaVuSans-6b" transform="translate(296.720703 0)"/>
      <use xlink:href="#DejaVuSans-65" transform="translate(351.005859 0)"/>
     </g>
    </g>
    <g id="line2d_52">
     <path d="M 45.17625 51.614375 
L 55.17625 51.614375 
L 65.17625 51.614375 
" style="fill: none; stroke: #000000; stroke-width: 1.5; stroke-linecap: square"/>
     <defs>
      <path id="m364c135c3f" d="M -3 3 
L 3 3 
L 3 -3 
L -3 -3 
z
" style="stroke: #000000; stroke-linejoin: miter"/>
     </defs>
     <g>
      <use xlink:href="#m364c135c3f" x="55.17625" y="51.614375" style="stroke: #000000; stroke-linejoin: miter"/>
     </g>
    </g>
    <g id="text_26">
     <!-- C -->
     <g transform="translate(73.17625 55.114375) scale(0.1 -0.1)">
      <use xlink:href="#DejaVuSans-43"/>
     </g>
    </g>
   </g>
   <g id="legend_2">
    <g id="patch_8">
     <path d="M 43.486562 415.235662 
L 662.495938 415.235662 
Q 664.495938 415.235662 664.495938 413.235662 
L 664.495938 399.279412 
Q 664.495938 397.279412 662.495938 397.279412 
L 43.486562 397.279412 
Q 41.486562 397.279412 41.486562 399.279412 
L 41.486562 413.235662 
Q 41.486562 415.235662 43.486562 415.235662 
z
" style="fill: #ffffff; opacity: 0.8; stroke: #cccccc; stroke-linejoin: miter"/>
    </g>
    <g id="line2d_53">
     <path d="M 45.486562 405.37785 
L 55.486562 405.37785 
L 65.486562 405.37785 
" style="fill: none; stroke: #1f77b4; stroke-width: 2.5; stroke-linecap: square"/>
    </g>
    <g id="text_27">
     <!-- net_virt_tx (3) -->
     <g transform="translate(73.486562 408.87785) scale(0.1 -0.1)">
      <defs>
       <path id="DejaVuSans-5f" d="M 3263 -1063 
L 3263 -1509 
L -63 -1509 
L -63 -1063 
L 3263 -1063 
z
" transform="scale(0.015625)"/>
       <path id="DejaVuSans-76" d="M 191 3500 
L 800 3500 
L 1894 563 
L 2988 3500 
L 3597 3500 
L 2284 0 
L 1503 0 
L 191 3500 
z
" transform="scale(0.015625)"/>
       <path id="DejaVuSans-78" d="M 3513 3500 
L 2247 1797 
L 3578 0 
L 2900 0 
L 1881 1375 
L 863 0 
L 184 0 
L 1544 1831 
L 300 3500 
L 978 3500 
L 1906 2253 
L 2834 3500 
L 3513 3500 
z
" transform="scale(0.015625)"/>
      </defs>
      <use xlink:href="#DejaVuSans-6e"/>
      <use xlink:href="#DejaVuSans-65" transform="translate(63.378906 0)"/>
      <use xlink:href="#DejaVuSans-74" transform="translate(124.902344 0)"/>
      <use xlink:href="#DejaVuSans-5f" transform="translate(164.111328 0)"/>
      <use xlink:href="#DejaVuSans-76" transform="translate(214.111328 0)"/>
      <use xlink:href="#DejaVuSans-69" transform="translate(273.291016 0)"/>
      <use xlink:href="#DejaVuSans-72" transform="translate(301.074219 0)"/>
      <use xlink:href="#DejaVuSans-74" transform="translate(342.1875 0)"/>
      <use xlink:href="#DejaVuSans-5f" transform="translate(381.396484 0)"/>
      <use xlink:href="#DejaVuSans-74" transform="translate(431.396484 0)"/>
      <use xlink:href="#DejaVuSans-78" transform="translate(470.605469 0)"/>
      <use xlink:href="#DejaVuSans-20" transform="translate(529.785156 0)"/>
      <use xlink:href="#DejaVuSans-28" transform="translate(561.572266 0)"/>
      <use xlink:href="#DejaVuSans-33" transform="translate(600.585938 0)"/>
      <use xlink:href="#DejaVuSans-29" transform="translate(664.208984 0)"/>
     </g>
    </g>
    <g id="line2d_54">
     <path d="M 163.808437 405.37785 
L 173.808437 405.37785 
L 183.808437 405.37785 
" style="fill: none; stroke: #ff7f0e; stroke-width: 2.5; stroke-linecap: square"/>
    </g>
    <g id="text_28">
     <!-- net_virt_rx (4) -->
     <g transform="translate(191.808437 408.87785) scale(0.1 -0.1)">
      <use xlink:href="#DejaVuSans-6e"/>
      <use xlink:href="#DejaVuSans-65" transform="translate(63.378906 0)"/>
      <use xlink:href="#DejaVuSans-74" transform="translate(124.902344 0)"/>
      <use xlink:href="#DejaVuSans-5f" transform="translate(164.111328 0)"/>
      <use xlink:href="#DejaVuSans-76" transform="translate(214.111328 0)"/>
      <use xlink:href="#DejaVuSans-69" transform="translate(273.291016 0)"/>
      <use xlink:href="#DejaVuSans-72" transform="translate(301.074219 0)"/>
      <use xlink:href="#DejaVuSans-74" transform="translate(342.1875 0)"/>
      <use xlink:href="#DejaVuSans-5f" transform="translate(381.396484 0)"/>
      <use xlink:href="#DejaVuSans-72" transform="translate(431.396484 0)"/>
      <use xlink:href="#DejaVuSans-78" transform="translate(469.884766 0)"/>
      <use xlink:href="#DejaVuSans-20" transform="translate(529.064453 0)"/>
      <use xlink:href="#DejaVuSans-28" transform="translate(560.851562 0)"/>
      <use xlink:href="#DejaVuSans-34" transform="translate(599.865234 0)"/>
      <use xlink:href="#DejaVuSans-29" transform="translate(663.488281 0)"/>
     </g>
    </g>
    <g id="line2d_55">
     <path d="M 282.058437 405.37785 
L 292.058437 405.37785 
L 302.058437 405.37785 
" style="fill: none; stroke: #2ca02c; stroke-width: 2.5; stroke-linecap: square"/>
    </g>
    <g id="text_29">
     <!-- ethernet_driver (2) -->
     <g transform="translate(310.058437 408.87785) scale(0.1 -0.1)">
      <defs>
       <path id="DejaVuSans-64" d="M 2906 2969 
L 2906 4863 
L 3481 4863 
L 3481 0 
L 2906 0 
L 2906 525 
Q 2725 213 2448 61 
Q 2172 -91 1784 -91 
Q 1150 -91 751 415 
Q 353 922 353 1747 
Q 353 2572 751 3078 
Q 1150 3584 1784 3584 
Q 2172 3584 2448 3432 
Q 2725 3281 2906 2969 
z
M 947 1747 
Q 947 1113 1208 752 
Q 1469 391 1925 391 
Q 2381 391 2643 752 
Q 2906 1113 2906 1747 
Q 2906 2381 2643 2742 
Q 2381 3103 1925 3103 
Q 1469 3103 1208 2742 
Q 947 2381 947 1747 
z
" transform="scale(0.015625)"/>
      </defs>
      <use xlink:href="#DejaVuSans-65"/>
      <use xlink:href="#DejaVuSans-74" transform="translate(61.523438 0)"/>
      <use xlink:href="#DejaVuSans-68" transform="translate(100.732422 0)"/>
      <use xlink:href="#DejaVuSans-65" transform="translate(164.111328 0)"/>
      <use xlink:href="#DejaVuSans-72" transform="translate(225.634766 0)"/>
      <use xlink:href="#DejaVuSans-6e" transform="translate(264.998047 0)"/>
      <use xlink:href="#DejaVuSans-65" transform="translate(328.376953 0)"/>
      <use xlink:href="#DejaVuSans-74" transform="translate(389.900391 0)"/>
      <use xlink:href="#DejaVuSans-5f" transform="translate(429.109375 0)"/>
      <use xlink:href="#DejaVuSans-64" transform="translate(479.109375 0)"/>
      <use xlink:href="#DejaVuSans-72" transform="translate(542.585938 0)"/>
      <use xlink:href="#DejaVuSans-69" transform="translate(583.699219 0)"/>
      <use xlink:href="#DejaVuSans-76" transform="translate(611.482422 0)"/>
      <use xlink:href="#DejaVuSans-65" transform="translate(670.662109 0)"/>
      <use xlink:href="#DejaVuSans-72" transform="translate(732.185547 0)"/>
      <use xlink:href="#DejaVuSans-20" transform="translate(773.298828 0)"/>
      <use xlink:href="#DejaVuSans-28" transform="translate(805.085938 0)"/>
      <use xlink:href="#DejaVuSans-32" transform="translate(844.099609 0)"/>
      <use xlink:href="#DejaVuSans-29" transform="translate(907.722656 0)"/>
     </g>
    </g>
    <g id="line2d_56">
     <path d="M 424.733438 405.37785 
L 434.733438 405.37785 
L 444.733438 405.37785 
" style="fill: none; stroke: #d62728; stroke-width: 2.5; stroke-linecap: square"/>
    </g>
    <g id="text_30">
     <!-- client0_net_copier (6) -->
     <g transform="translate(452.733438 408.87785) scale(0.1 -0.1)">
      <use xlink:href="#DejaVuSans-63"/>
      <use xlink:href="#DejaVuSans-6c" transform="translate(54.980469 0)"/>
      <use xlink:href="#DejaVuSans-69" transform="translate(82.763672 0)"/>
      <use xlink:href="#DejaVuSans-65" transform="translate(110.546875 0)"/>
      <use xlink:href="#DejaVuSans-6e" transform="translate(172.070312 0)"/>
      <use xlink:href="#DejaVuSans-74" transform="translate(235.449219 0)"/>
      <use xlink:href="#DejaVuSans-30" transform="translate(274.658203 0)"/>
      <use xlink:href="#DejaVuSans-5f" transform="translate(338.28125 0)"/>
      <use xlink:href="#DejaVuSans-6e" transform="translate(388.28125 0)"/>
      <use xlink:href="#DejaVuSans-65" transform="translate(451.660156 0)"/>
      <use xlink:href="#DejaVuSans-74" transform="translate(513.183594 0)"/>
      <use xlink:href="#DejaVuSans-5f" transform="translate(552.392578 0)"/>
      <use xlink:href="#DejaVuSans-63" transform="translate(602.392578 0)"/>
      <use xlink:href="#DejaVuSans-6f" transform="translate(657.373047 0)"/>
      <use xlink:href="#DejaVuSans-70" transform="translate(718.554688 0)"/>
      <use xlink:href="#DejaVuSans-69" transform="translate(782.03125 0)"/>
      <use xlink:href="#DejaVuSans-65" transform="translate(809.814453 0)"/>
      <use xlink:href="#DejaVuSans-72" transform="translate(871.337891 0)"/>
      <use xlink:href="#DejaVuSans-20" transform="translate(912.451172 0)"/>
      <use xlink:href="#DejaVuSans-28" transform="translate(944.238281 0)"/>
      <use xlink:href="#DejaVuSans-36" transform="translate(983.251953 0)"/>
      <use xlink:href="#DejaVuSans-29" transform="translate(1046.875 0)"/>
     </g>
    </g>
    <g id="line2d_57">
     <path d="M 581.324063 405.37785 
L 591.324063 405.37785 
L 601.324063 405.37785 
" style="fill: none; stroke: #9467bd; stroke-width: 2.5; stroke-linecap: square"/>
    </g>
    <g id="text_31">
     <!-- client0 (5) -->
     <g transform="translate(609.324063 408.87785) scale(0.1 -0.1)">
      <use xlink:href="#DejaVuSans-63"/>
      <use xlink:href="#DejaVuSans-6c" transform="translate(54.980469 0)"/>
      <use xlink:href="#DejaVuSans-69" transform="translate(82.763672 0)"/>
      <use xlink:href="#DejaVuSans-65" transform="translate(110.546875 0)"/>
      <use xlink:href="#DejaVuSans-6e" transform="translate(172.070312 0)"/>
      <use xlink:href="#DejaVuSans-74" transform="translate(235.449219 0)"/>
      <use xlink:href="#DejaVuSans-30" transform="translate(274.658203 0)"/>
      <use xlink:href="#DejaVuSans-20" transform="translate(338.28125 0)"/>
      <use xlink:href="#DejaVuSans-28" transform="translate(370.068359 0)"/>
      <use xlink:href="#DejaVuSans-35" transform="translate(409.082031 0)"/>
      <use xlink:href="#DejaVuSans-29" transform="translate(472.705078 0)"/>
     </g>
    </g>
   </g>
  </g>
 </g>
 <defs>
  <clipPath id="p0316752f29">
   <rect x="36.17625" y="23.837812" width="633.63" height="320.384"/>
  </clipPath>
 </defs>
</svg>
